<?xml version="1.0" encoding="utf-8"?>
<!-- Generator: Adobe Illustrator 24.0.1, SVG Export Plug-In . SVG Version: 6.00 Build 0)  -->
<svg version="1.1" id="Layer_1" xmlns="http://www.w3.org/2000/svg" xmlns:xlink="http://www.w3.org/1999/xlink" x="0px" y="0px"
	 viewBox="0 0 527 495" style="enable-background:new 0 0 527 495;" xml:space="preserve">
<style type="text/css">
	.st0{fill:url(#SVGID_1_);}
	.st1{fill:#3C5186;}
	.st2{fill:#4A66A4;}
	.st3{fill:#F3B3B6;}
	.st4{fill:url(#SVGID_2_);}
	.st5{fill:url(#SVGID_3_);}
	.st6{fill:#FFFFFF;}
	.st7{fill:url(#SVGID_4_);}
	.st8{fill:url(#SVGID_5_);}
</style>
<linearGradient id="SVGID_1_" gradientUnits="userSpaceOnUse" x1="58.2636" y1="-256.0027" x2="76.6939" y2="-256.0027" gradientTransform="matrix(1 0 0 -1 0 -88)">
	<stop  offset="0" style="stop-color:#A9D7F5"/>
	<stop  offset="1" style="stop-color:#FFFFFF"/>
</linearGradient>
<path class="st0" d="M70.6,194.8c-1.5,0-3-1-3.6-2.6l-7.1-18.6c-3-7.9-1.6-17.1,3.8-23.5l6.3-7.5c1.4-1.7,3.9-1.9,5.5-0.3
	c1.6,1.5,1.7,4.2,0.3,5.9l-6.3,7.5c-3.3,4-4.3,9.8-2.3,14.7l7.1,18.6c0.8,2.1-0.1,4.6-2.1,5.5C71.6,194.7,71.1,194.8,70.6,194.8z"/>
<path class="st1" d="M70.2,265.6l-3.8,2.8L55,273c-0.9,0.3-1.4,1.2-1.4,2.1l-0.2,2.6c-0.2,1.7,1.3,3.1,3,2.9l16.6-2.5l1.6-1.3
	l1.4-0.2l1.4,1.5H79c1.5,0,2.6-1.2,2.6-2.6v-3.6l-2.6-6.3H70.2z"/>
<path class="st2" d="M73.7,273.8c-3.5,0-4.9-2.9-4.9-6.5l-1.3-32.6l-0.1-47.1c-0.2-3.6,2.9-7.2,6.3-7.4c3.5-0.2,8.3,3.4,8.6,7
	L80,234.5l-0.9,32.8C79.1,270.9,77.2,273.8,73.7,273.8z"/>
<path class="st3" d="M126,163L126,163c-0.6,0-1.1-0.4-1.2-1.1l-0.4-7.4c0-0.6,0.4-1.2,1-1.2l0,0c0.6,0,1.1,0.4,1.1,1.1l0.4,7.4
	C127,162.5,126.6,163,126,163z"/>
<path class="st3" d="M116.5,171.8c-4.7,0-9.2-1.9-12.5-5.4l-10.4-11c-1.5-1.6-1.4-4.1,0.1-5.6s3.9-1.5,5.4,0.1l10.4,11
	c1.9,2,4.4,3.1,7,3.1l0,0c2.7,0,5.2-1.1,7-3.1l4.4-4.5c1.5-1.5,3.9-1.5,5.4,0s1.5,4,0,5.6l-4.3,4.5
	C125.7,169.8,121.3,171.8,116.5,171.8L116.5,171.8z"/>
<path class="st3" d="M126.8,160.2L126.8,160.2c-0.6-0.4-0.8-1.1-0.5-1.6l4.3-6.5c0.4-0.5,1.1-0.7,1.7-0.4h0.1
	c0.6,0.3,0.8,1.1,0.4,1.6l-4.3,6.5C128.1,160.4,127.4,160.6,126.8,160.2z"/>
<path class="st3" d="M129.2,160.1L129.2,160.1c-0.5-0.4-0.6-1.2-0.3-1.8l4.5-6.4c0.4-0.5,1.1-0.6,1.6-0.2l0,0
	c0.5,0.4,0.6,1.2,0.2,1.7l-4.5,6.3C130.4,160.4,129.7,160.6,129.2,160.1z"/>
<path class="st3" d="M130.8,162l-1.1-1.4c-0.1-0.2-0.1-0.4,0-0.5l6.8-6.7c0.1-0.1,0.3-0.1,0.5,0l1.1,1.4c0.1,0.2,0.1,0.4,0,0.5
	l-6.8,6.7C131.1,162.2,130.9,162.2,130.8,162z"/>
<path class="st3" d="M129.7,162.4L129.7,162.4c-0.3-0.6-0.1-1.3,0.4-1.7l6.3-3.8c0.5-0.3,1.2-0.1,1.5,0.5v0.1
	c0.3,0.6,0.1,1.3-0.4,1.6l-6.3,3.8C130.7,163.2,130,163,129.7,162.4z"/>
<path class="st1" d="M91.2,286.5l-4.5,15.6c0.1,1.8,1.3,3.3,3,3.8l1.2,0.3c1.1,0.3,2.2,0.1,3.2-0.6c2.8-2,4.7-5.2,5.1-8.8l1.2-10.6
	l-1.7-3.8L91.2,286.5z"/>
<linearGradient id="SVGID_2_" gradientUnits="userSpaceOnUse" x1="68.7387" y1="-323.5485" x2="126.5564" y2="-323.5485" gradientTransform="matrix(1 0 0 -1 0 -88)">
	<stop  offset="0" style="stop-color:#3C5186"/>
	<stop  offset="0.3931" style="stop-color:#4C67A1"/>
	<stop  offset="0.7545" style="stop-color:#5877B6"/>
	<stop  offset="1" style="stop-color:#5D7DBE"/>
</linearGradient>
<path class="st4" d="M96.5,289.4c3.5-0.3,5.1-3.5,4.8-7l-2.9-41.3L98,194.7c-0.3-3.6-6.7-13.3-10.2-13.1c-3.5,0.3-19.3,0.7-19.1,4.2
	l9.1,16.2l7.9,40.1l4.7,41.5c0.3,3.3,2.1,5.9,5.3,5.9C96.1,289.5,96.3,289.5,96.5,289.4z"/>
<linearGradient id="SVGID_3_" gradientUnits="userSpaceOnUse" x1="67" y1="-256.0054" x2="129.5" y2="-256.0054" gradientTransform="matrix(1 0 0 -1 0 -88)">
	<stop  offset="0" style="stop-color:#A9D7F5"/>
	<stop  offset="7.770000e-02" style="stop-color:#BDE0F8"/>
	<stop  offset="0.2141" style="stop-color:#D6EBFB"/>
	<stop  offset="0.3623" style="stop-color:#E9F4FD"/>
	<stop  offset="0.5259" style="stop-color:#F6FAFE"/>
	<stop  offset="0.7166" style="stop-color:#FDFEFF"/>
	<stop  offset="1" style="stop-color:#FFFFFF"/>
</linearGradient>
<path class="st5" d="M128.3,161.2c-1.6-1.6-4.2-1.6-5.8,0.1c-1.8,2-4.3,3-6.9,3l0,0c-2.6,0-5.1-1.1-6.9-3l-9.2-9.7
	c-1.1-2.4-2.8-4.6-5.1-6.1c-0.3-0.2-0.5-0.3-0.8-0.5l-12.1-7c-6.4-3.9-14.5,1-14.5,8.7v43c4.6,6.9,15,12,30.8,8.6l1-16.2l1.2-17.7
	l2.8,2.9c3.4,3.6,7.9,5.6,12.7,5.6l0,0c4.9,0,9.4-2,12.8-5.6C129.9,165.5,129.9,162.8,128.3,161.2z"/>
<path class="st6" d="M82.4,148.3l-5.9,4.1v-3.2c0-1.5,0.3-3,0.9-4.3l2.2-4.9l1.7,0.2L82.4,148.3z"/>
<linearGradient id="SVGID_4_" gradientUnits="userSpaceOnUse" x1="85" y1="-240.4" x2="78.1506" y2="-240.4" gradientTransform="matrix(1 0 0 -1 0 -88)">
	<stop  offset="0.1499" style="stop-color:#F49719"/>
	<stop  offset="1" style="stop-color:#FCC00E"/>
</linearGradient>
<path class="st7" d="M81.9,148l3.1,4.4l-2.7,4.4l-3-1.1l-1.2-4.9L81.9,148z"/>
<path class="st3" d="M86.6,148.9h-4.9c-0.5,0-1-0.4-1-1v-14.1h6.8V148C87.6,148.5,87.1,148.9,86.6,148.9z"/>
<path class="st3" d="M85.7,142.7h-2.9c-7.5,0-10.6-6.5-10.6-14.4v-3.2c0-2.5,1.9-4.5,4.2-4.5h7.1c2.9,0,5.3,2.6,5.3,5.7l3.1,12.3
	C91.9,140.4,87.4,142.7,85.7,142.7z"/>
<path class="st1" d="M96.5,127.3c-0.7-4.3-3.6-8.1-7.4-10c-1.8-0.9-3.8-1.3-5.7-1.6c-3.2-0.5-6.5-0.5-9.4,0.8
	c-3.3,1.5-4.9,4.5-1.3,7c1.5,1,3.3,1.4,5.1,1.5c2,0.1,4.2,0,5.6,1.4c1.9,1.9,1.1,5.1,2.3,7.5c0.3,0,0.6,0,0.9,0
	c0.3-0.7,0.1-1.5,0.2-2.2s0.8-1.6,1.4-1.2c0.4,0.2,0.5,0.7,0.5,1.1c0.2,1.5,0.1,3.1-0.2,4.6c-0.3,1.4-0.8,3.1,0.4,3.9
	c2,1.3,5.2-2.4,6.1-3.8C96.3,133.6,97,130.4,96.5,127.3z"/>
<path class="st6" d="M81.6,148l4.5,6.2l0.4-3.8c0.3-2.4,1.1-4.6,2.6-6.5c0.4-0.5,0.2-1.2-0.4-1.5l-1.4-0.7L81.6,148z"/>
<path class="st1" d="M98.7,194.3c-15.8,3.2-26.2-1.6-30.8-8.2v3.1c4.6,6.6,15,11.4,30.8,8.2V194.3z"/>
<linearGradient id="SVGID_5_" gradientUnits="userSpaceOnUse" x1="83.2937" y1="-263.9" x2="77.3005" y2="-263.9" gradientTransform="matrix(1 0 0 -1 0 -88)">
	<stop  offset="0.1499" style="stop-color:#F49719"/>
	<stop  offset="1" style="stop-color:#FCC00E"/>
</linearGradient>
<path class="st8" d="M83.3,158l-0.9,34.2l-3.3,2.7l-1.8-3.5l2.9-34.5L83.3,158z"/>
</svg>
