<?xml version="1.0" encoding="utf-8"?>
<!-- Generator: Adobe Illustrator 24.0.1, SVG Export Plug-In . SVG Version: 6.00 Build 0)  -->
<svg version="1.1" id="Layer_1" xmlns="http://www.w3.org/2000/svg" xmlns:xlink="http://www.w3.org/1999/xlink" x="0px" y="0px"
	 viewBox="0 0 527 495" style="enable-background:new 0 0 527 495;" xml:space="preserve">
<style type="text/css">
	.st0{fill:#626D9B;}
	.st1{fill:#3C5186;}
	.st2{fill:#F1F2F2;}
	.st3{fill:#FFFFFF;}
</style>
<path class="st0" d="M208.8,397.7l44-25.9v-0.6l-63.4-35l-33.3,30.3L208.8,397.7z"/>
<path class="st1" d="M208.8,397.1l44-25.9l-63.4-35.6l-33.3,30.3L208.8,397.1z"/>
<path class="st2" d="M207,396.5l44-25.9l0.3-8.2l-63.7-27.9l-33.3,30.3L207,396.5z"/>
<path class="st0" d="M182.4,320.6l70.4,40.9v0.6l-44,25.9l-70.4-41.5L182.4,320.6z"/>
<path class="st1" d="M182.4,320l70.4,41.5l-44,25.9l-70.4-41.5L182.4,320z"/>
<path class="st3" d="M191.6,329.7l19.8,11.6L176,362.1l-19.8-11.6L191.6,329.7z"/>
<path class="st0" d="M139,346.2v10.1l69.8,41.4l0.6-0.3v-9.7L139,346.2z"/>
<path class="st1" d="M138.4,345.9V356l70.4,41.7v-10.4L138.4,345.9z"/>
</svg>
