<?xml version="1.0" encoding="utf-8"?>
<!-- Generator: Adobe Illustrator 24.0.1, SVG Export Plug-In . SVG Version: 6.00 Build 0)  -->
<svg version="1.1" id="Layer_1" xmlns="http://www.w3.org/2000/svg" xmlns:xlink="http://www.w3.org/1999/xlink" x="0px" y="0px"
	 viewBox="0 0 527 495" style="enable-background:new 0 0 527 495;" xml:space="preserve">
<style type="text/css">
	.st0{opacity:0.3;fill:#2E3D64;enable-background:new    ;}
	.st1{fill:url(#SVGID_1_);}
	.st2{fill:url(#SVGID_2_);}
	.st3{fill:url(#SVGID_3_);}
</style>
<path class="st0" d="M358.3,244.8l-29.4-17.3v61.4l26.3,15.6c0.8,0.5,1.8,0.7,2.7,0.5h0.1c2-0.3,3.4-2.1,3.4-4.1v-50.4
	C361.5,248.4,360,245.8,358.3,244.8z"/>
<linearGradient id="SVGID_1_" gradientUnits="userSpaceOnUse" x1="286.1" y1="1428.5957" x2="356.779" y2="1428.5957" gradientTransform="matrix(1 0 0 1 0 -1168)">
	<stop  offset="0" style="stop-color:#F5FAFE"/>
	<stop  offset="0.2091" style="stop-color:#E5F1FA"/>
	<stop  offset="0.822" style="stop-color:#B6D3F0"/>
	<stop  offset="0.9962" style="stop-color:#A6CBED"/>
</linearGradient>
<path class="st1" d="M287.1,213.9l-0.3,0.4c-0.5,0.7-0.7,1.5-0.7,2.3v49.7c0,2.1,1.4,4.7,3.2,5.7l61.2,36.5c0.8,0.5,1.8,0.7,2.7,0.5
	h0.1c2-0.3,3.4-2.1,3.4-4.1v-50.5c0-2.1-1.4-4.7-3.2-5.7l-61-36.1C290.7,211.6,288.3,212.2,287.1,213.9z"/>
<linearGradient id="SVGID_2_" gradientUnits="userSpaceOnUse" x1="364.3474" y1="1461.8906" x2="274.9765" y2="1396.1858" gradientTransform="matrix(1 0 0 1 0 -1168)">
	<stop  offset="0" style="stop-color:#A9D7F5"/>
	<stop  offset="0.3297" style="stop-color:#CDE7FA"/>
	<stop  offset="0.7734" style="stop-color:#F2F9FE"/>
	<stop  offset="1" style="stop-color:#FFFFFF"/>
</linearGradient>
<path class="st2" d="M289.3,214.4c-1.8-1-3.2-0.2-3.2,1.9v49.8c0,2.1,1.4,4.7,3.2,5.7l61.3,36.7c1.8,1.1,3.2,0.2,3.2-1.9v-50.2
	c0-2.1-1.4-4.7-3.2-5.7L289.3,214.4z"/>
<linearGradient id="SVGID_3_" gradientUnits="userSpaceOnUse" x1="286.1" y1="1450.986" x2="353.8" y2="1450.986" gradientTransform="matrix(1 0 0 1 0 -1168)">
	<stop  offset="0" style="stop-color:#3C5186"/>
	<stop  offset="0.116" style="stop-color:#40578D"/>
	<stop  offset="0.6906" style="stop-color:#5472B0"/>
	<stop  offset="1" style="stop-color:#5D7DBE"/>
</linearGradient>
<path class="st3" d="M340.6,261.5L325.4,273l-6.3-12.3l-15,6.5l-18-10.2v9.1c0,2.1,1.4,4.7,3.2,5.7l61.3,36.7
	c1.8,1.1,3.2,0.2,3.2-1.9v-8.1v-38L340.6,261.5z"/>
</svg>
