<?xml version="1.0" encoding="utf-8"?>
<!-- Generator: Adobe Illustrator 24.0.1, SVG Export Plug-In . SVG Version: 6.00 Build 0)  -->
<svg version="1.1" id="Layer_1" xmlns="http://www.w3.org/2000/svg" xmlns:xlink="http://www.w3.org/1999/xlink" x="0px" y="0px"
	 viewBox="0 0 527 495" style="enable-background:new 0 0 527 495;" xml:space="preserve">
<style type="text/css">
	.st0{opacity:0.3;fill:#2E3D64;enable-background:new    ;}
	.st1{fill:#4A66A4;}
	.st2{fill-rule:evenodd;clip-rule:evenodd;fill:url(#SVGID_1_);}
	.st3{fill:url(#SVGID_2_);}
	.st4{fill:#EDF3FA;}
</style>
<path class="st0" d="M373.5,121.2l-60.3-36.3V155c0,1.2,0.8,2.6,1.8,3.3l64,38.3v-65.5C379,127,376.9,123.2,373.5,121.2z"/>
<path class="st1" d="M324.5,36.5c0-1.2,0.8-1.7,1.8-1.1L494.2,135c1,0.6,1.8,2.1,1.8,3.3V245c0,1.2-0.8,1.7-1.8,1.1l-167.9-99.6
	c-1-0.6-1.8-2.1-1.8-3.3L324.5,36.5L324.5,36.5z"/>
<linearGradient id="SVGID_1_" gradientUnits="userSpaceOnUse" x1="482.4732" y1="1365.9203" x2="405.8732" y2="1302.6934" gradientTransform="matrix(1 0 0 1 0 -1168)">
	<stop  offset="0.1499" style="stop-color:#F49719"/>
	<stop  offset="1" style="stop-color:#FCC00E"/>
</linearGradient>
<path class="st2" d="M457.7,207.7c-1.5,0.3-3.1,0.5-4.7,0.5c-0.7,0-1.4,0-2.1-0.2c-2.3-0.2-4.7-0.7-7-1.5s-4.6-1.9-7-3.3
	c-2.2-1.3-4.4-2.9-6.6-4.7c-2.1-1.7-4.1-3.7-6-5.8s-3.7-4.3-5.4-6.7c-1.7-2.4-3.2-4.8-4.7-7.3c-1.4-2.5-2.7-5.1-3.8-7.8
	c-1.2-2.7-2.1-5.4-2.9-8.1c-0.8-2.8-1.4-5.6-1.9-8.3c-0.4-2.8-0.7-5.6-0.7-8.3c0-2.8,0.2-5.4,0.7-7.9s1.2-4.8,2.2-7s2.2-4.2,3.7-5.9
	c1.5-1.7,3.3-3.2,5.2-4.4c1.1-0.6,2.2-1.2,3.5-1.6c1.6-0.6,3.3-0.8,4.9-0.8h0.7l-0.1,13.9c-0.8,0.2-1.5,0.5-2.2,0.9
	s-1.3,0.9-1.8,1.5c-0.6,0.7-1.1,1.5-1.5,2.5c-0.5,1.1-0.9,2.4-1.2,3.7c-0.3,1.5-0.5,3.3-0.5,5.1c0,1.9,0.2,3.9,0.5,6
	s0.8,4.3,1.4,6.4c0.7,2.2,1.4,4.4,2.4,6.5c0.9,2.2,2,4.3,3.1,6.4c1.2,2.1,2.5,4.1,3.8,6c1.4,1.9,2.8,3.7,4.3,5.4s3.1,3.2,4.7,4.5
	s3.2,2.5,4.8,3.5c1.5,0.9,3,1.6,4.5,2.1c1.3,0.5,2.6,0.8,3.7,0.9c1.1,0.1,2,0,2.9-0.1c0.8-0.1,1.5-0.4,2.2-0.8
	c0.7-0.4,1.3-0.9,1.8-1.5c0.6-0.7,1.1-1.5,1.5-2.5c0.5-1.1,0.9-2.4,1.2-3.7c0.3-1.5,0.5-3.3,0.5-5.1c0-1.9-0.1-3.9-0.5-6l13.6-2.3
	c0.4,2.8,0.7,5.6,0.7,8.3c0,2.8-0.3,5.4-0.7,7.9c-0.5,2.5-1.2,4.9-2.2,7c-1,2.2-2.2,4.2-3.7,5.9s-3.3,3.2-5.2,4.4
	C462,206.4,459.9,207.2,457.7,207.7z M450.8,148.7c1.4,1.9,2.7,3.9,3.8,6c1.2,2.1,2.2,4.2,3.1,6.4l11.5-5.2l1.1-0.5
	c-1.1-2.7-2.4-5.3-3.8-7.8s-3-5-4.7-7.3c-1.7-2.4-3.5-4.6-5.4-6.7c-1.9-2.1-4-4.1-6-5.8c-2.2-1.8-4.4-3.4-6.7-4.7
	c-2.3-1.3-4.7-2.4-7-3.3l-4.4,13.5c1.4,0.5,3,1.2,4.5,2.1c1.6,1,3.2,2.1,4.8,3.5c1.6,1.3,3.2,2.9,4.7,4.5
	C448,145,449.4,146.8,450.8,148.7z"/>
<linearGradient id="SVGID_2_" gradientUnits="userSpaceOnUse" x1="496" y1="1308.8" x2="324.6" y2="1308.8" gradientTransform="matrix(1 0 0 1 0 -1168)">
	<stop  offset="3.802050e-03" style="stop-color:#3C5186"/>
	<stop  offset="1" style="stop-color:#5D7DBE"/>
</linearGradient>
<path class="st3" d="M494.2,135L326.4,35.4c-1-0.6-1.8-0.1-1.8,1.1v1l167,99.2c1,0.6,1.8,2.1,1.8,3.3v105.7l0.8,0.5
	c1,0.6,1.8,0.1,1.8-1.1V138.3C496,137.1,495.2,135.7,494.2,135z"/>
<path class="st4" d="M373.2,88.3v7.4l-37.4-22.2v-7.7L373.2,88.3z"/>
<path class="st4" d="M398.1,126v7.4l-62.2-36.5v-7.7L398.1,126z"/>
<path class="st4" d="M398.1,145.5v7.4l-62.2-36.5v-7.7L398.1,145.5z"/>
<path class="st4" d="M398.1,163.7v7.4l-62.2-36.5v-7.7L398.1,163.7z"/>
</svg>
