<?xml version="1.0" encoding="utf-8"?>
<!-- Generator: Adobe Illustrator 24.0.1, SVG Export Plug-In . SVG Version: 6.00 Build 0)  -->
<svg version="1.1" id="Layer_1" xmlns="http://www.w3.org/2000/svg" xmlns:xlink="http://www.w3.org/1999/xlink" x="0px" y="0px"
	 viewBox="0 0 527 495" style="enable-background:new 0 0 527 495;" xml:space="preserve">
<style type="text/css">
	.st0{opacity:0.7;}
	.st1{opacity:1.000000e-02;fill:#3C5186;enable-background:new    ;}
	.st2{opacity:2.440000e-02;fill:#3C5186;enable-background:new    ;}
	.st3{opacity:4.880000e-02;fill:#3C5186;enable-background:new    ;}
	.st4{opacity:7.320000e-02;fill:#3C5186;enable-background:new    ;}
	.st5{opacity:9.760000e-02;fill:#3C5186;enable-background:new    ;}
	.st6{opacity:0.122;fill:#3C5186;enable-background:new    ;}
	.st7{opacity:0.1463;fill:#3C5186;enable-background:new    ;}
	.st8{opacity:0.1707;fill:#3C5186;enable-background:new    ;}
	.st9{opacity:0.1951;fill:#3C5186;enable-background:new    ;}
	.st10{opacity:0.2195;fill:#3C5186;enable-background:new    ;}
	.st11{opacity:0.2439;fill:#3C5186;enable-background:new    ;}
	.st12{opacity:0.2683;fill:#3C5186;enable-background:new    ;}
	.st13{opacity:0.2927;fill:#3C5186;enable-background:new    ;}
	.st14{opacity:0.3171;fill:#3C5186;enable-background:new    ;}
	.st15{opacity:0.3415;fill:#3C5186;enable-background:new    ;}
	.st16{opacity:0.3659;fill:#3C5186;enable-background:new    ;}
	.st17{opacity:0.3902;fill:#3C5186;enable-background:new    ;}
	.st18{opacity:0.4146;fill:#3C5186;enable-background:new    ;}
	.st19{opacity:0.439;fill:#3C5186;enable-background:new    ;}
	.st20{opacity:0.4634;fill:#3C5186;enable-background:new    ;}
	.st21{opacity:0.4878;fill:#3C5186;enable-background:new    ;}
	.st22{opacity:0.5122;fill:#3C5186;enable-background:new    ;}
	.st23{opacity:0.5366;fill:#3C5186;enable-background:new    ;}
	.st24{opacity:0.561;fill:#3C5186;enable-background:new    ;}
	.st25{opacity:0.5854;fill:#3C5186;enable-background:new    ;}
	.st26{opacity:0.6098;fill:#3C5186;enable-background:new    ;}
	.st27{opacity:0.6341;fill:#3C5186;enable-background:new    ;}
	.st28{opacity:0.6585;fill:#3C5186;enable-background:new    ;}
	.st29{opacity:0.6829;fill:#3C5186;enable-background:new    ;}
	.st30{opacity:0.7073;fill:#3C5186;enable-background:new    ;}
	.st31{opacity:0.7317;fill:#3C5186;enable-background:new    ;}
	.st32{opacity:0.7561;fill:#3C5186;enable-background:new    ;}
	.st33{opacity:0.7805;fill:#3C5186;enable-background:new    ;}
	.st34{opacity:0.8049;fill:#3C5186;enable-background:new    ;}
	.st35{opacity:0.8293;fill:#3C5186;enable-background:new    ;}
	.st36{opacity:0.8537;fill:#3C5186;enable-background:new    ;}
	.st37{opacity:0.878;fill:#3C5186;enable-background:new    ;}
	.st38{opacity:0.9024;fill:#3C5186;enable-background:new    ;}
	.st39{opacity:0.9268;fill:#3C5186;enable-background:new    ;}
	.st40{opacity:0.9512;fill:#3C5186;enable-background:new    ;}
	.st41{opacity:0.9756;fill:#3C5186;enable-background:new    ;}
	.st42{fill:#3C5186;}
	.st43{fill:#FCC00E;}
	.st44{fill:url(#SVGID_1_);}
</style>
<g>
	<g class="st0">
		<path class="st1" d="M188.3,484.4c3.1-1.8,3.1-4.7,0-6.6L29.2,384c-3.1-1.8-8.1-1.8-11.1,0.1l-15,9.1c-3,1.9-3,4.9,0,6.7
			l158.5,93.5c3.1,1.8,8.1,1.8,11.2,0L188.3,484.4z"/>
		<path class="st2" d="M188.1,484.3c3.1-1.8,3.1-4.7,0-6.5L29.3,384.1c-3.1-1.8-8-1.8-11.1,0.1l-14.9,9.1c-3,1.8-3,4.8,0,6.6
			l158.2,93.4c3.1,1.8,8.1,1.8,11.1,0L188.1,484.3z"/>
		<path class="st3" d="M187.9,484.2c3.1-1.8,3.1-4.7,0-6.5L29.4,384.1c-3-1.8-8-1.8-11,0.1l-14.9,9.1c-3,1.8-3,4.8,0,6.6l158,93.2
			c3,1.8,8,1.8,11.1,0L187.9,484.2z"/>
		<path class="st4" d="M187.8,484.1c3-1.8,3.1-4.7,0-6.5L29.5,384.2c-3-1.8-8-1.8-11,0.1l-14.8,9c-3,1.8-3,4.8,0,6.6L161.4,493
			c3,1.8,8,1.8,11.1,0L187.8,484.1z"/>
		<path class="st5" d="M187.6,484.1c3-1.8,3-4.7,0-6.5L29.5,384.2c-3-1.8-8-1.7-11,0.1l-14.8,9c-3,1.8-3,4.8,0,6.6l157.5,93
			c3,1.8,8,1.8,11,0L187.6,484.1z"/>
		<path class="st6" d="M187.4,484c3-1.8,3-4.7,0-6.4L29.6,384.3c-3-1.8-7.9-1.7-10.9,0.1l-14.7,9c-3,1.8-3,4.8,0,6.5l157.2,92.9
			c3,1.8,8,1.8,11,0L187.4,484z"/>
		<path class="st7" d="M187.3,483.9c3-1.8,3-4.6,0-6.4L29.7,384.4c-3-1.8-7.9-1.7-10.9,0.1l-14.6,8.9c-3,1.8-3,4.7,0,6.5l157,92.8
			c3,1.8,7.9,1.8,10.9,0L187.3,483.9z"/>
		<path class="st8" d="M187.1,483.8c3-1.7,3-4.6,0-6.4l-157.3-93c-3-1.8-7.9-1.7-10.8,0.1l-14.6,8.9c-3,1.8-2.9,4.7,0,6.5
			l156.7,92.6c3,1.8,7.9,1.8,10.9,0L187.1,483.8z"/>
		<path class="st9" d="M186.9,483.7c3-1.7,3-4.6,0-6.4L29.9,384.5c-3-1.8-7.8-1.7-10.8,0.1l-14.5,8.9c-3,1.8-2.9,4.7,0,6.5
			l156.5,92.5c3,1.8,7.9,1.8,10.8,0L186.9,483.7z"/>
		<path class="st10" d="M186.7,483.6c3-1.7,3-4.6,0-6.3L29.9,384.6c-3-1.8-7.8-1.7-10.7,0.1l-14.5,8.8c-2.9,1.8-2.9,4.7,0,6.4
			L161,492.3c3,1.8,7.8,1.8,10.8,0L186.7,483.6z"/>
		<path class="st11" d="M186.6,483.6c3-1.7,3-4.6,0-6.3L30,384.6c-3-1.7-7.8-1.7-10.7,0.1l-14.4,8.8c-2.9,1.8-2.9,4.7,0,6.4
			l156,92.3c3,1.7,7.8,1.8,10.8,0L186.6,483.6z"/>
		<path class="st12" d="M186.4,483.5c3-1.7,3-4.5,0-6.3L30.1,384.7c-2.9-1.7-7.7-1.7-10.7,0.1L5,393.5c-2.9,1.8-2.9,4.7,0,6.4
			l155.8,92.2c2.9,1.7,7.8,1.8,10.7,0L186.4,483.5z"/>
		<path class="st13" d="M186.2,483.4c2.9-1.7,3-4.5,0-6.3L30.2,384.7c-2.9-1.7-7.7-1.7-10.6,0.1l-14.3,8.7c-2.9,1.8-2.9,4.6,0,6.4
			l155.5,92c2.9,1.7,7.7,1.7,10.7,0L186.2,483.4z"/>
		<path class="st14" d="M186.1,483.3c2.9-1.7,2.9-4.5,0-6.2L30.2,384.8c-2.9-1.7-7.7-1.7-10.6,0.1l-14.3,8.7c-2.9,1.8-2.9,4.6,0,6.3
			l155.3,91.9c2.9,1.7,7.7,1.7,10.6,0L186.1,483.3z"/>
		<path class="st15" d="M185.9,483.2c2.9-1.7,2.9-4.5,0-6.2L30.3,384.9c-2.9-1.7-7.7-1.7-10.5,0.1l-14.2,8.7c-2.9,1.8-2.9,4.6,0,6.3
			l155,91.8c2.9,1.7,7.7,1.7,10.6,0L185.9,483.2z"/>
		<path class="st16" d="M185.7,483.2c2.9-1.7,2.9-4.5,0-6.2l-155.4-92c-2.9-1.7-7.6-1.7-10.5,0.1l-14.2,8.6c-2.9,1.8-2.9,4.6,0,6.3
			l154.8,91.7c2.9,1.7,7.7,1.7,10.6,0L185.7,483.2z"/>
		<path class="st17" d="M185.5,483.1c2.9-1.7,2.9-4.5,0-6.2L30.5,385c-2.9-1.7-7.6-1.7-10.5,0.1l-14.1,8.6c-2.9,1.7-2.8,4.6,0,6.3
			l154.5,91.6c2.9,1.7,7.6,1.7,10.5,0L185.5,483.1z"/>
		<path class="st18" d="M185.4,483c2.9-1.7,2.9-4.4,0-6.1L30.5,385c-2.9-1.7-7.6-1.7-10.4,0.1l-14,8.6c-2.8,1.7-2.8,4.6,0,6.2
			l154.3,91.5c2.9,1.7,7.6,1.7,10.5,0L185.4,483z"/>
		<path class="st19" d="M185.2,482.9c2.9-1.7,2.9-4.4,0-6.1L30.6,385.1c-2.9-1.7-7.5-1.7-10.4,0.1l-14,8.5c-2.8,1.7-2.8,4.5,0,6.2
			l154,91.3c2.9,1.7,7.6,1.7,10.4,0L185.2,482.9z"/>
		<path class="st20" d="M185,482.8c2.9-1.7,2.9-4.4,0-6.1L30.7,385.2c-2.9-1.7-7.5-1.6-10.3,0.1l-13.9,8.5c-2.8,1.7-2.8,4.5,0,6.2
			l153.8,91.2c2.9,1.7,7.5,1.7,10.4,0L185,482.8z"/>
		<path class="st21" d="M184.8,482.7c2.9-1.7,2.9-4.4,0-6.1L30.8,385.2c-2.8-1.7-7.5-1.6-10.3,0.1l-13.9,8.5c-2.8,1.7-2.8,4.5,0,6.2
			L160.2,491c2.8,1.7,7.5,1.7,10.4,0L184.8,482.7z"/>
		<path class="st22" d="M184.7,482.7c2.8-1.7,2.8-4.4,0-6L30.8,385.3c-2.8-1.7-7.4-1.6-10.3,0.1l-13.8,8.4c-2.8,1.7-2.8,4.5,0,6.1
			l153.3,91c2.8,1.7,7.5,1.7,10.3,0L184.7,482.7z"/>
		<path class="st23" d="M184.5,482.6c2.8-1.6,2.8-4.4,0-6L30.9,385.3c-2.8-1.7-7.4-1.6-10.2,0.1l-13.8,8.4c-2.8,1.7-2.8,4.5,0,6.1
			L160,490.8c2.8,1.7,7.4,1.7,10.3,0L184.5,482.6z"/>
		<path class="st24" d="M184.3,482.5c2.8-1.6,2.8-4.3,0-6L31,385.4c-2.8-1.7-7.4-1.6-10.2,0.1l-13.7,8.4c-2.8,1.7-2.8,4.4,0,6.1
			L160,490.7c2.8,1.7,7.4,1.7,10.2,0L184.3,482.5z"/>
		<path class="st25" d="M184.2,482.4c2.8-1.6,2.8-4.3,0-6l-153.1-91c-2.8-1.6-7.4-1.6-10.1,0.1l-13.6,8.3c-2.8,1.7-2.8,4.4,0,6.1
			l152.6,90.6c2.8,1.6,7.4,1.7,10.2,0L184.2,482.4z"/>
		<path class="st26" d="M184,482.3c2.8-1.6,2.8-4.3,0-5.9L31.1,385.5c-2.8-1.6-7.3-1.6-10.1,0.1l-13.6,8.3c-2.8,1.7-2.7,4.4,0,6.1
			l152.3,90.5c2.8,1.6,7.3,1.7,10.1,0L184,482.3z"/>
		<path class="st27" d="M183.8,482.2c2.8-1.6,2.8-4.3,0-5.9L31.2,385.6c-2.8-1.6-7.3-1.6-10,0.1l-13.5,8.3c-2.8,1.7-2.7,4.4,0,6
			l152.1,90.4c2.8,1.6,7.3,1.7,10.1,0L183.8,482.2z"/>
		<path class="st28" d="M183.6,482.2c2.8-1.6,2.8-4.3,0-5.9L31.3,385.6c-2.8-1.6-7.3-1.6-10,0.1l-13.5,8.2c-2.7,1.7-2.7,4.4,0,6
			l151.8,90.3c2.8,1.6,7.3,1.6,10.1,0L183.6,482.2z"/>
		<path class="st29" d="M183.5,482.1c2.8-1.6,2.8-4.3,0-5.9L31.4,385.7c-2.8-1.6-7.2-1.6-10,0.1L8,394c-2.7,1.7-2.7,4.4,0,6
			l151.6,90.2c2.8,1.6,7.3,1.6,10,0L183.5,482.1z"/>
		<path class="st30" d="M183.3,482c2.8-1.6,2.8-4.2,0-5.8L31.4,385.8c-2.7-1.6-7.2-1.6-9.9,0.1L8.1,394c-2.7,1.7-2.7,4.3,0,6
			l151.3,90c2.7,1.6,7.2,1.6,10,0L183.3,482z"/>
		<path class="st31" d="M183.1,481.9c2.7-1.6,2.7-4.2,0-5.8L31.5,385.8c-2.7-1.6-7.2-1.6-9.9,0.1L8.3,394c-2.7,1.6-2.7,4.3,0,5.9
			l151.1,89.9c2.7,1.6,7.2,1.6,9.9,0L183.1,481.9z"/>
		<path class="st32" d="M183,481.8c2.7-1.6,2.7-4.2,0-5.8L31.6,385.9c-2.7-1.6-7.1-1.6-9.8,0.1L8.5,394c-2.7,1.6-2.7,4.3,0,5.9
			l150.9,89.8c2.7,1.6,7.2,1.6,9.9,0L183,481.8z"/>
		<path class="st33" d="M182.8,481.7c2.7-1.6,2.7-4.2,0-5.8L31.7,386c-2.7-1.6-7.1-1.6-9.8,0.1l-13.2,8c-2.7,1.6-2.7,4.3,0,5.9
			l150.6,89.7c2.7,1.6,7.1,1.6,9.9,0L182.8,481.7z"/>
		<path class="st34" d="M182.6,481.7c2.7-1.6,2.7-4.2,0-5.7L31.7,386c-2.7-1.6-7.1-1.6-9.8,0.1l-13.1,8c-2.7,1.6-2.7,4.3,0,5.9
			l150.4,89.6c2.7,1.6,7.1,1.6,9.8,0L182.6,481.7z"/>
		<path class="st35" d="M182.4,481.6c2.7-1.6,2.7-4.1,0-5.7L31.8,386.1c-2.7-1.6-7.1-1.6-9.7,0.1l-13.1,8c-2.7,1.6-2.6,4.2,0,5.8
			l150.1,89.5c2.7,1.6,7.1,1.6,9.8,0L182.4,481.6z"/>
		<path class="st36" d="M182.3,481.5c2.7-1.6,2.7-4.1,0-5.7L31.9,386.1c-2.7-1.6-7-1.5-9.7,0.1l-13,7.9c-2.6,1.6-2.6,4.2,0,5.8
			l149.9,89.3c2.7,1.6,7,1.6,9.7,0L182.3,481.5z"/>
		<path class="st37" d="M182.1,481.4c2.7-1.6,2.7-4.1,0-5.7L32,386.2c-2.7-1.6-7-1.5-9.6,0.1l-13,7.9c-2.6,1.6-2.6,4.2,0,5.8
			L159,489.2c2.7,1.6,7,1.6,9.7,0L182.1,481.4z"/>
		<path class="st38" d="M181.9,481.3c2.7-1.5,2.7-4.1,0-5.6L32,386.3c-2.6-1.6-7-1.5-9.6,0.1l-12.9,7.9c-2.6,1.6-2.6,4.2,0,5.7
			l149.4,89.1c2.6,1.6,7,1.6,9.6,0L181.9,481.3z"/>
		<path class="st39" d="M181.8,481.3c2.6-1.5,2.7-4.1,0-5.6L32.1,386.3c-2.6-1.6-6.9-1.5-9.6,0.1l-12.9,7.8c-2.6,1.6-2.6,4.2,0,5.7
			l149.1,89c2.6,1.6,7,1.6,9.6,0L181.8,481.3z"/>
		<path class="st40" d="M181.6,481.2c2.6-1.5,2.6-4.1,0-5.6L32.2,386.4c-2.6-1.5-6.9-1.5-9.5,0.1l-12.8,7.8c-2.6,1.6-2.6,4.1,0,5.7
			l148.9,88.9c2.6,1.5,6.9,1.6,9.6,0L181.6,481.2z"/>
		<path class="st41" d="M181.4,481.1c2.6-1.5,2.6-4,0-5.6L32.3,386.4c-2.6-1.5-6.9-1.5-9.5,0.1L10,394.3c-2.6,1.6-2.6,4.1,0,5.7
			l148.6,88.8c2.6,1.5,6.9,1.6,9.5,0L181.4,481.1z"/>
		<path class="st42" d="M181.2,481c2.6-1.5,2.6-4,0-5.6L32.3,386.5c-2.6-1.5-6.8-1.5-9.4,0.1l-12.7,7.7c-2.6,1.6-2.6,4.1,0,5.6
			l148.4,88.6c2.6,1.5,6.9,1.5,9.5,0L181.2,481z"/>
	</g>
	<path class="st43" d="M185.9,480.8c3-1.7,3-4.6,0-6.4L32.4,383.4c-3-1.8-7.8-1.7-10.7,0.1l-14.5,8.9c-2.9,1.8-2.9,4.7,0,6.5
		l152.9,90.7c3,1.8,7.8,1.8,10.8,0L185.9,480.8z"/>
	
		<linearGradient id="SVGID_1_" gradientUnits="userSpaceOnUse" x1="188.1318" y1="61.3242" x2="4.9963" y2="61.3242" gradientTransform="matrix(1 0 0 -1 0 496)">
		<stop  offset="0" style="stop-color:#F49719"/>
		<stop  offset="1" style="stop-color:#FCC00E"/>
	</linearGradient>
	<path class="st44" d="M185.9,479c3-1.7,3-4.6,0-6.4L32.4,381.6c-3-1.8-7.8-1.7-10.7,0.1l-14.5,8.9c-2.9,1.8-2.9,4.7,0,6.5
		l152.9,90.7c3,1.8,7.8,1.8,10.8,0L185.9,479z"/>
	<path class="st42" d="M180.4,470.2l-9.8,5.7l-2.2-1.3l9.7-5.7L180.4,470.2z"/>
	<path class="st42" d="M168.4,463.2l-6.4,3.9l-2.1-1.3l6.4-4L168.4,463.2z"/>
	<path class="st42" d="M156.5,456.2l-6.4,3.9l-2.1-1.3l6.4-4L156.5,456.2z"/>
	<path class="st42" d="M144.5,448.3l-6.4,3.9l-2.1-1.3l6.4-4L144.5,448.3z"/>
	<path class="st42" d="M132.5,441.2l-9.8,5.7l-2.2-1.3l9.7-5.7L132.5,441.2z"/>
	<path class="st42" d="M120.5,434.3l-6.4,3.9l-2.1-1.3l6.4-4L120.5,434.3z"/>
	<path class="st42" d="M108.5,427.2l-6.4,3.9l-2.1-1.3l6.4-4L108.5,427.2z"/>
	<path class="st42" d="M96.6,420.2l-6.4,3.9l-2.1-1.3l6.4-4L96.6,420.2z"/>
	<path class="st42" d="M84.6,413.2l-9.8,5.7l-2.2-1.3l9.7-5.8L84.6,413.2z"/>
	<path class="st42" d="M72.6,406.2l-6.4,3.9l-2.1-1.3l6.4-4L72.6,406.2z"/>
	<path class="st42" d="M60.6,399.2l-6.4,3.9l-2.1-1.3l6.4-4L60.6,399.2z"/>
	<path class="st42" d="M48.6,392.2l-6.4,3.9l-2.1-1.3l6.4-4L48.6,392.2z"/>
	<path class="st42" d="M36.7,385.1l-9.8,5.7l-2.2-1.3l9.7-5.7L36.7,385.1z"/>
</g>
</svg>
