<?xml version="1.0" encoding="utf-8"?>
<!-- Generator: Adobe Illustrator 24.0.1, SVG Export Plug-In . SVG Version: 6.00 Build 0)  -->
<svg version="1.1" id="Layer_1" xmlns="http://www.w3.org/2000/svg" xmlns:xlink="http://www.w3.org/1999/xlink" x="0px" y="0px"
	 viewBox="0 0 527 495" style="enable-background:new 0 0 527 495;" xml:space="preserve">
<style type="text/css">
	.st0{fill:#3C5186;}
	.st1{fill:url(#SVGID_1_);}
	.st2{fill:#2E3D64;}
	.st3{opacity:0.1;fill:#232752;enable-background:new    ;}
	.st4{fill:url(#SVGID_2_);}
	.st5{fill:#FFFFFF;}
	.st6{fill-rule:evenodd;clip-rule:evenodd;fill:#FFFFFF;}
</style>
<path class="st0" d="M373.8,121.5L173.2,1.4c-2.5-1.5-5.6,0.4-5.6,3.4v148c0,4.1,2.1,7.9,5.5,9.9l200.6,120.1
	c2.5,1.5,5.6-0.4,5.6-3.4v-148C379.3,127.3,377.2,123.6,373.8,121.5z"/>
<linearGradient id="SVGID_1_" gradientUnits="userSpaceOnUse" x1="424.2448" y1="1430.5725" x2="255.4068" y2="1224.4808" gradientTransform="matrix(1 0 0 1 0 -1168)">
	<stop  offset="3.802050e-03" style="stop-color:#3C5186"/>
	<stop  offset="1" style="stop-color:#5D7DBE"/>
</linearGradient>
<path class="st1" d="M375.3,282.2v-148c0-4.1-2.1-7.9-5.5-9.9L169.2,4.2c-0.5-0.3-1-0.4-1.5-0.5c0.7-2.4,3.3-3.6,5.5-2.3
	l200.6,120.1c3.4,2.1,5.5,5.8,5.5,9.9v148c0,2.4-2.1,4.1-4.1,3.8C375.3,282.9,375.3,282.6,375.3,282.2z"/>
<path class="st2" d="M328.3,183.2h-0.9v71.9l0.9,0.5V183.2z"/>
<path class="st2" d="M201.4,179.6l0.9,0.5v-69.9h-0.9V179.6z"/>
<path class="st2" d="M239.4,202.4l0.9,0.6v-73.8h-0.9V202.4z"/>
<path class="st2" d="M284.4,229.4l0.9,0.5V110.3h-0.9V229.4z"/>
<path class="st2" d="M203.3,110.3c0,1.1-0.7,2-1.4,2c-0.8,0-1.4-0.9-1.4-2s0.7-2,1.4-2S203.3,109.2,203.3,110.3z"/>
<path class="st2" d="M241.3,129.2c0,1.1-0.7,2-1.4,2c-0.8,0-1.4-0.9-1.4-2s0.7-2,1.4-2C240.7,127.2,241.3,128.1,241.3,129.2z"/>
<path class="st2" d="M286.3,110.3c0,1.1-0.7,2-1.4,2c-0.8,0-1.4-0.9-1.4-2s0.7-2,1.4-2C285.7,108.3,286.3,109.2,286.3,110.3z"/>
<ellipse class="st2" cx="327.8" cy="181.9" rx="1.4" ry="2"/>
<path class="st3" d="M167.6,149.5v-2.8c4.8,0.9,9.9,0,14.2-2.7l4.8-3c7.9-5,17.5-5.3,25.7-1l6.7,3.5c11.5,6,25,5.9,36.4-0.4l2.9-1.6
	c6.3-3.5,13.6-4.1,20.5-1.8s12.3,7.3,15.4,14l19.5,42.4c7.9,17.3,20.7,31.3,36.9,40.6l28.9,16.6v3.2l-30.2-17.3
	c-16.7-9.6-29.8-24-38-41.9l-19.5-42.4c-2.8-6-7.6-10.5-13.8-12.6c-6.2-2.1-12.6-1.5-18.3,1.6l-2.9,1.6c-12.1,6.6-26.6,6.8-38.8,0.4
	l-6.7-3.5c-7.4-3.9-16-3.6-23.1,0.9l-4.8,3C178.4,149.4,172.9,150.4,167.6,149.5z"/>
<linearGradient id="SVGID_2_" gradientUnits="userSpaceOnUse" x1="384.0822" y1="1359.365" x2="157.7179" y2="1359.365" gradientTransform="matrix(1 0 0 1 0 -1168)">
	<stop  offset="0.1499" style="stop-color:#F49719"/>
	<stop  offset="1" style="stop-color:#FCC00E"/>
</linearGradient>
<path class="st4" d="M382.7,251.2c0.5,0,0.9-0.2,1.2-0.7c0.4-0.7,0.1-1.5-0.5-1.9l-30.2-17.4c-16.2-9.3-28.9-23.4-36.9-40.6
	l-19.5-42.4c-3.1-6.7-8.5-11.7-15.4-14s-14.1-1.7-20.5,1.8l-2.9,1.6c-11.3,6.2-24.9,6.4-36.4,0.4l-6.7-3.5c-8.2-4.3-17.8-3.9-25.7,1
	l-4.8,3c-6.4,4-14.3,4.1-20.8,0.2l-3.9-2.3c-0.7-0.4-1.4-0.1-1.8,0.5c-0.4,0.7-0.1,1.5,0.5,1.9l3.9,2.3c7.3,4.3,16.3,4.2,23.5-0.3
	l4.8-3c7.1-4.4,15.7-4.8,23.1-0.9l6.7,3.5c12.2,6.4,26.8,6.2,38.8-0.4l2.9-1.6c5.7-3.1,12.2-3.7,18.3-1.6c6.2,2.1,11,6.5,13.8,12.6
	l19.5,42.4c8.2,17.8,21.3,32.3,38,41.9l30.2,17.4C382.3,251.2,382.5,251.2,382.7,251.2z"/>
<path class="st5" d="M196.6,93.9c0.2-0.2,0.2-0.6,0.2-0.9s-0.1-0.7-0.3-0.9c-0.2-0.3-0.4-0.5-0.6-0.7c-0.5-0.2-0.8,0-1.2,0.6
	l-1.3-1.7c0.3-0.5,0.7-0.9,1-1c0.4-0.1,0.9,0,1.5,0.3s1.2,0.9,1.6,1.7s0.7,1.6,0.8,2.6c0,0.5,0,0.9-0.2,1.3s-0.5,0.8-1,1.2l-1.2,1.1
	l2.8,1.6v2l-5-2.7v-1.7l2-1.8C196.1,94.5,196.4,94.2,196.6,93.9z"/>
<path class="st6" d="M200.6,100.8c0.5,1.2,1.3,2.1,2.2,2.6c1,0.5,1.7,0.5,2.2-0.2s0.7-1.7,0.6-3.3c-0.1-1.6-0.4-2.9-0.9-4.1
	s-1.3-2.1-2.2-2.6c-1-0.5-1.7-0.5-2.1,0.2c-0.5,0.7-0.6,1.7-0.6,3.3C199.8,98.3,200.1,99.6,200.6,100.8z M201.3,97.6
	c0-1,0-1.7,0.2-2.2s0.6-0.6,1-0.3c0.5,0.2,0.8,0.8,1.1,1.5c0.2,0.8,0.4,1.6,0.4,2.6s0,1.7-0.2,2.2s-0.6,0.6-1,0.3
	c-0.5-0.2-0.8-0.8-1.1-1.5C201.5,99.4,201.4,98.5,201.3,97.6z"/>
<path class="st5" d="M206.3,95.5l2.9,1.6l0.3,9.9l-1.5-0.8l-0.3-8l-1.3-0.8L206.3,95.5z"/>
<path class="st6" d="M211.6,98.9c0.5-0.3,1-0.2,1.7,0.2c0.7,0.4,1.3,0.9,1.8,1.7c0.5,0.8,0.7,1.6,0.7,2.3c0,0.8-0.2,1.3-0.6,1.6
	c0.6,0.9,0.9,1.9,1,3c0,0.8-0.2,1.5-0.7,1.8s-1.1,0.3-2-0.2c-0.8-0.4-1.5-1.1-2-2c-0.5-0.8-0.8-1.7-0.8-2.6c0-1,0.2-1.7,0.8-2
	c-0.5-0.8-0.7-1.6-0.7-2.3C211,99.7,211.2,99.2,211.6,98.9z M212.8,106.7c0.2,0.4,0.5,0.6,0.8,0.8c0.3,0.1,0.5,0.2,0.7,0.1
	s0.3-0.3,0.3-0.8c0-0.4-0.1-0.8-0.4-1.2c-0.2-0.3-0.5-0.6-0.8-0.8c-0.3-0.1-0.6-0.2-0.7-0.1c-0.2,0.1-0.3,0.4-0.3,0.8
	C212.5,106,212.6,106.4,212.8,106.7z M213.5,103.2c-0.3-0.1-0.5-0.4-0.7-0.7c-0.2-0.3-0.3-0.7-0.3-0.9c0-0.4,0-0.6,0.2-0.7
	s0.4-0.1,0.7,0s0.5,0.4,0.7,0.7c0.2,0.3,0.3,0.7,0.3,1s-0.1,0.5-0.3,0.7C214,103.3,213.8,103.3,213.5,103.2z"/>
<path class="st5" d="M234.6,111.5c0.2-0.2,0.2-0.6,0.2-0.9s-0.1-0.7-0.3-0.9c-0.2-0.3-0.4-0.5-0.6-0.7c-0.5-0.2-0.8,0-1.2,0.6
	l-1.3-1.7c0.3-0.5,0.7-0.9,1-1c0.4-0.1,0.9,0,1.5,0.3s1.2,0.9,1.6,1.7c0.5,0.8,0.7,1.7,0.8,2.6c0,0.5,0,0.9-0.2,1.3s-0.5,0.8-1,1.2
	l-1.2,1.1l2.8,1.6v2l-5-2.7v-1.6l2-1.8C234.1,112.1,234.4,111.8,234.6,111.5z"/>
<path class="st6" d="M238.6,118.4c0.5,1.2,1.3,2.1,2.2,2.6c1,0.6,1.7,0.5,2.2-0.2s0.7-1.7,0.6-3.3c-0.1-1.6-0.4-2.9-0.9-4.1
	s-1.3-2.1-2.2-2.6c-1-0.5-1.7-0.5-2.1,0.2c-0.5,0.7-0.7,1.7-0.6,3.3C237.8,115.8,238.1,117.2,238.6,118.4z M239.3,115.1
	c0-1,0-1.7,0.2-2.2s0.6-0.6,1-0.3c0.5,0.2,0.8,0.8,1.1,1.5c0.2,0.8,0.4,1.6,0.4,2.6s0,1.7-0.2,2.2s-0.6,0.6-1,0.3
	c-0.5-0.2-0.8-0.8-1.1-1.5C239.5,116.9,239.4,116.1,239.3,115.1z"/>
<path class="st5" d="M244.3,113l2.9,1.6l0.3,9.9l-1.5-0.8l-0.3-8l-1.3-0.8L244.3,113z"/>
<path class="st6" d="M252.2,124.7c-0.2,0.3-0.6,0.3-1,0c-0.2-0.1-0.4-0.3-0.7-0.5c-0.2-0.3-0.4-0.5-0.5-0.6s-0.1-0.2-0.2-0.3
	l-0.7,1.1c0.1,0.1,0.1,0.2,0.2,0.3c0.1,0.2,0.3,0.3,0.3,0.5c0.1,0.2,0.4,0.5,0.7,0.8s0.7,0.5,1,0.7c0.8,0.4,1.5,0.4,2-0.1
	c0.3-0.2,0.5-0.7,0.6-1.3c0.1-0.6,0.2-1.4,0.1-2.3c0-1.4-0.3-2.7-0.7-3.8c-0.2-0.6-0.6-1.1-0.9-1.6c-0.4-0.5-0.8-0.8-1.3-1.1
	c-0.7-0.4-1.3-0.4-1.8,0s-0.7,1-0.7,2s0.3,1.9,0.7,2.8c0.5,0.8,1,1.5,1.7,1.8c0.5,0.3,1,0.3,1.4,0.1
	C252.6,123.9,252.4,124.4,252.2,124.7z M252,121.3c-0.2,0.1-0.5,0.1-0.8,0s-0.6-0.4-0.7-0.8c-0.2-0.4-0.3-0.8-0.3-1.2
	c0-0.4,0-0.7,0.2-0.8c0.2-0.2,0.5-0.2,0.7,0c0.3,0.1,0.6,0.4,0.8,0.8s0.4,0.8,0.4,1.2C252.3,120.9,252.2,121.2,252,121.3z"/>
<path class="st5" d="M279.8,96.6c0.2-0.2,0.2-0.6,0.2-0.9s-0.1-0.7-0.3-0.9c-0.2-0.3-0.4-0.5-0.6-0.7c-0.5-0.2-0.8,0-1.2,0.6
	l-1.3-1.7c0.3-0.5,0.7-0.9,1-1c0.4-0.1,0.9,0,1.5,0.3s1.2,0.9,1.6,1.7s0.8,1.6,0.8,2.6c0,0.5,0,0.9-0.2,1.3s-0.5,0.8-1,1.2l-1.2,1.1
	l2.8,1.6v2l-5.1-2.7v-1.6l2-1.8C279.3,97.2,279.6,96.8,279.8,96.6z"/>
<path class="st6" d="M283.9,103.4c0.5,1.2,1.3,2.1,2.3,2.6c1,0.6,1.7,0.5,2.2-0.2s0.7-1.7,0.6-3.3c-0.1-1.6-0.4-2.9-0.9-4.1
	s-1.3-2.1-2.3-2.6s-1.7-0.5-2.2,0.2s-0.7,1.7-0.6,3.3C283.1,100.9,283.4,102.3,283.9,103.4z M284.6,100.2c0-1,0-1.7,0.2-2.2
	s0.6-0.6,1-0.3c0.5,0.2,0.8,0.8,1.1,1.5c0.2,0.8,0.4,1.6,0.4,2.6s0,1.7-0.2,2.2s-0.6,0.6-1,0.3c-0.5-0.2-0.8-0.8-1.1-1.5
	C284.7,102,284.6,101.2,284.6,100.2z"/>
<path class="st5" d="M293.1,103.8c0.2-0.2,0.2-0.6,0.2-0.9s-0.1-0.7-0.3-0.9c-0.2-0.3-0.4-0.5-0.6-0.7c-0.5-0.2-0.8,0-1.2,0.6
	l-1.3-1.7c0.3-0.5,0.7-0.9,1-1c0.4-0.1,0.9,0,1.5,0.3s1.2,0.9,1.6,1.7c0.5,0.8,0.8,1.7,0.8,2.6c0,0.5,0,0.9-0.2,1.3s-0.5,0.8-1,1.2
	l-1.2,1.1l2.8,1.6v2l-5.1-2.7v-1.7l2-1.8C292.6,104.3,292.9,104,293.1,103.8z"/>
<path class="st6" d="M297.1,110.6c0.6,1.2,1.3,2.1,2.3,2.6c1,0.6,1.7,0.5,2.1-0.2c0.5-0.7,0.7-1.7,0.6-3.3c0-1.6-0.3-2.9-0.8-4.1
	s-1.3-2.1-2.3-2.6s-1.7-0.5-2.2,0.2s-0.7,1.7-0.6,3.3S296.6,109.4,297.1,110.6z M297.9,107.4c0-1,0-1.7,0.2-2.2s0.6-0.6,1-0.3
	c0.5,0.2,0.8,0.8,1.1,1.5c0.2,0.8,0.4,1.6,0.4,2.6s0,1.7-0.2,2.2s-0.6,0.6-1,0.3c-0.5-0.2-0.8-0.8-1.1-1.5
	C298,109.2,297.9,108.3,297.9,107.4z"/>
<path class="st5" d="M322.3,167.1c0.2-0.2,0.2-0.6,0.2-0.9s-0.1-0.7-0.3-0.9c-0.2-0.3-0.4-0.5-0.6-0.7c-0.5-0.2-0.8,0-1.2,0.6
	l-1.3-1.7c0.3-0.5,0.7-0.9,1-1c0.4-0.1,0.9,0,1.5,0.3s1.2,0.9,1.6,1.7c0.5,0.8,0.7,1.6,0.8,2.6c0,0.5,0,0.9-0.2,1.3s-0.5,0.8-1,1.2
	l-1.2,1.1l2.8,1.5v2l-5-2.7v-1.7l2-1.8C321.8,167.6,322.1,167.3,322.3,167.1z"/>
<path class="st6" d="M326.3,174c0.5,1.2,1.3,2.1,2.2,2.6c1,0.5,1.7,0.5,2.2-0.2s0.7-1.7,0.6-3.3s-0.4-2.9-0.9-4.1
	c-0.5-1.2-1.3-2.1-2.2-2.6c-1-0.5-1.7-0.5-2.1,0.2s-0.7,1.7-0.6,3.3C325.5,171.4,325.8,172.8,326.3,174z M327,170.7
	c0-1,0-1.7,0.2-2.2s0.6-0.6,1-0.3c0.5,0.2,0.8,0.8,1.1,1.5c0.2,0.7,0.4,1.6,0.4,2.5c0,1,0,1.7-0.2,2.2s-0.6,0.6-1,0.3
	c-0.5-0.2-0.8-0.8-1.1-1.5C327.2,172.6,327.1,171.7,327,170.7z"/>
<path class="st5" d="M335.4,174.2c0.2-0.2,0.2-0.6,0.2-0.9s-0.1-0.7-0.3-0.9c-0.2-0.3-0.4-0.5-0.6-0.7c-0.5-0.2-0.8,0-1.2,0.6
	l-1.3-1.7c0.3-0.5,0.7-0.9,1-1c0.4-0.1,0.9,0,1.5,0.3s1.2,0.9,1.6,1.7c0.5,0.8,0.7,1.7,0.8,2.6c0,0.5,0,0.9-0.2,1.3
	c-0.2,0.4-0.5,0.8-1,1.2l-1.2,1.1l2.8,1.5v2l-5-2.7V177l2-1.8C335,174.8,335.2,174.5,335.4,174.2z"/>
<path class="st5" d="M338.2,172l2.9,1.6l0.3,9.9l-1.5-0.8l-0.3-8l-1.3-0.8L338.2,172z"/>
</svg>
