<?xml version="1.0" encoding="utf-8"?>
<!-- Generator: Adobe Illustrator 24.0.1, SVG Export Plug-In . SVG Version: 6.00 Build 0)  -->
<svg version="1.1" id="Layer_1" xmlns="http://www.w3.org/2000/svg" xmlns:xlink="http://www.w3.org/1999/xlink" x="0px" y="0px"
	 viewBox="0 0 527 495" style="enable-background:new 0 0 527 495;" xml:space="preserve">
<style type="text/css">
	.st0{fill:#3C5186;}
	.st1{fill:url(#SVGID_1_);}
	.st2{fill:url(#SVGID_2_);}
</style>
<path class="st0" d="M276.4,313c0,4.5-3.1,6.3-6.9,4l-80-48.2c-3.8-2.3-6.9-7.8-6.9-12.3l-0.7-67.1c0-4.5,3-6.3,6.8-4l80.8,48.3
	c3.8,2.2,6.9,7.8,6.9,12.2V313z"/>
<linearGradient id="SVGID_1_" gradientUnits="userSpaceOnUse" x1="196.093" y1="1448.8783" x2="276.425" y2="1448.8783" gradientTransform="matrix(1 0 0 1 0 -1168)">
	<stop  offset="0" style="stop-color:#DAE7F5"/>
	<stop  offset="1" style="stop-color:#92A7BE"/>
</linearGradient>
<path class="st1" d="M276.4,312.4v-47c-0.3-0.9-0.7-1.7-1.3-2.4c-1.8-2.1-4.9-2.6-7.6-2s-5.1,2-7.5,3.2c-3.5,1.8-7.2,3.4-11.1,3.8
	c-3.9,0.4-8-0.6-10.9-3.3c-2.9-2.8-4.4-7.3-8-8.8c-3.3-1.4-7,0.1-10.3,1.2c-7.5,2.4-16.5,2.2-22-3.5c-3.2-3.3-5.2-8.4-9.6-9.6
	c-0.3-0.1-0.5-0.1-0.8-0.1c-1.9-0.2-3.7,0.3-5.4,1.3l0.1,11c0,4.5,3.2,10,7,12.3l6.8,4.1c4.5,2.6,9.1,5.3,13.5,8
	c12.7,7.7,25.3,15.4,38,23l22.1,13.3c0.9,0.6,1.9,0.9,2.7,1c0.3,0,0.6,0,0.9-0.1c1.9-0.5,2.7-2.7,3.1-4.6
	C276.3,313,276.4,312.7,276.4,312.4z"/>
<linearGradient id="SVGID_2_" gradientUnits="userSpaceOnUse" x1="182" y1="1419.2527" x2="276.5" y2="1419.2527" gradientTransform="matrix(1 0 0 1 0 -1168)">
	<stop  offset="0" style="stop-color:#5D7DBE"/>
	<stop  offset="0.9962" style="stop-color:#3C5186"/>
</linearGradient>
<path class="st2" d="M274,314.6v-67c0-4.5-3.1-10-6.9-12.2l-81.5-48.3c-1.3-0.8-2.6-1.1-3.6-0.9c1.1-1.9,3.4-2.3,6.1-0.7l81.5,48.3
	c3.8,2.2,6.9,7.8,6.9,12.2v67.1c0,2.9-1.3,4.6-3.2,4.9C273.7,317.1,274,316,274,314.6z"/>
</svg>
