<?xml version="1.0" encoding="utf-8"?>
<!-- Generator: Adobe Illustrator 24.0.1, SVG Export Plug-In . SVG Version: 6.00 Build 0)  -->
<svg version="1.1" id="Layer_1" xmlns="http://www.w3.org/2000/svg" xmlns:xlink="http://www.w3.org/1999/xlink" x="0px" y="0px"
	 viewBox="0 0 527 495" style="enable-background:new 0 0 527 495;" xml:space="preserve">
<style type="text/css">
	.st0{fill:url(#SVGID_1_);}
	.st1{fill:url(#SVGID_2_);}
</style>
<linearGradient id="SVGID_1_" gradientUnits="userSpaceOnUse" x1="328.9" y1="-450.7757" x2="456.7" y2="-450.7757" gradientTransform="matrix(1 0 0 -1 0 -88)">
	<stop  offset="0" style="stop-color:#FCC00E"/>
	<stop  offset="0.8501" style="stop-color:#F49719"/>
</linearGradient>
<path class="st0" d="M355.7,294.3l0.8-0.6c1.4-1.1,3.3-1.3,4.8-0.3l51.1,30.8c1.1,0.7,2.5,0.7,3.5,0l10.5-6.2c1.4-0.9,3.2-0.8,4.7,0
	l21.4,12.8c2.3,1.4,4.2,4.7,4.2,7.4L431,428.9c-0.1,0.9-0.7,2.9-2.1,3l-8.7,0.9l-87.1-55.2c-2.3-1.4-4.2-4.7-4.2-7.4l25.7-73.6
	C354.6,295.7,355,294.9,355.7,294.3z"/>
<linearGradient id="SVGID_2_" gradientUnits="userSpaceOnUse" x1="321.3" y1="-451.55" x2="447.4001" y2="-451.55" gradientTransform="matrix(1 0 0 -1 0 -88)">
	<stop  offset="0.1499" style="stop-color:#F49719"/>
	<stop  offset="1" style="stop-color:#FCC00E"/>
</linearGradient>
<path class="st1" d="M347,297.5c0-2.7,1.9-3.8,4.2-2.5l51.5,30.5c1.1,0.7,2.5,0.7,3.6,0l10.6-6.2c1.5-0.9,3.2-0.8,4.7,0l21.6,12.8
	c2.3,1.4,4.2,4.7,4.2,7.4l-25.8,90.1c0,2.7-1.9,3.8-4.2,2.5l-91.9-54.3c-2.3-1.4-4.2-4.7-4.2-7.4L347,297.5z"/>
</svg>
