<?xml version="1.0" encoding="utf-8"?>
<!-- Generator: Adobe Illustrator 24.0.1, SVG Export Plug-In . SVG Version: 6.00 Build 0)  -->
<svg version="1.1" id="Layer_1" xmlns="http://www.w3.org/2000/svg" xmlns:xlink="http://www.w3.org/1999/xlink" x="0px" y="0px"
	 viewBox="0 0 527 495" style="enable-background:new 0 0 527 495;" xml:space="preserve">
<style type="text/css">
	.st0{fill:url(#SVGID_1_);}
	.st1{fill:url(#SVGID_2_);}
</style>
<linearGradient id="SVGID_1_" gradientUnits="userSpaceOnUse" x1="308.3" y1="-456.8739" x2="418.1" y2="-456.8739" gradientTransform="matrix(1 0 0 -1 0 -88)">
	<stop  offset="0" style="stop-color:#FCC00E"/>
	<stop  offset="0.8501" style="stop-color:#F49719"/>
</linearGradient>
<path class="st0" d="M316.1,297.6c2.2-0.9,4.7-0.7,6.7,0.6l50.7,30.5c1.1,0.7,3.9-3.4,5-4.1l8.1-2.5c2.2-0.7,4.5-0.4,6.5,0.8
	l20.8,12.4c2.3,1.4,4.2,4.7,4.2,7.5v90.7c0,2.7-1.9,5.1-4.5,5.6l-8.7,1.6l-85.2-56.5c-2.3-1.4-4.2-4.7-4.2-7.4l-7.2-76.1
	L316.1,297.6z"/>
<linearGradient id="SVGID_2_" gradientUnits="userSpaceOnUse" x1="307.5" y1="-458.65" x2="407.9001" y2="-458.65" gradientTransform="matrix(1 0 0 -1 0 -88)">
	<stop  offset="0.1499" style="stop-color:#F49719"/>
	<stop  offset="1" style="stop-color:#FCC00E"/>
</linearGradient>
<path class="st1" d="M307.5,303.7c0-2.7,1.9-3.8,4.2-2.5l51.5,30.5c1.1,0.7,2.5,0.7,3.6,0l10.6-6.2c1.5-0.9,3.2-0.8,4.7,0l21.6,12.8
	c2.3,1.4,4.2,4.7,4.2,7.4v91.9c0,2.7-1.9,3.8-4.2,2.5l-92-54.3c-2.3-1.4-4.2-4.7-4.2-7.4L307.5,303.7L307.5,303.7z"/>
</svg>
