<?xml version="1.0" encoding="utf-8"?>
<!-- Generator: Adobe Illustrator 24.0.1, SVG Export Plug-In . SVG Version: 6.00 Build 0)  -->
<svg version="1.1" id="Layer_1" xmlns="http://www.w3.org/2000/svg" xmlns:xlink="http://www.w3.org/1999/xlink" x="0px" y="0px"
	 viewBox="0 0 527 495" style="enable-background:new 0 0 527 495;" xml:space="preserve">
<style type="text/css">
	.st0{fill:#3C5186;}
	.st1{fill:url(#SVGID_1_);}
	.st2{fill:url(#SVGID_2_);}
</style>
<path class="st0" d="M526.1,376.3c0,5.8-4,8.2-8.8,5.2l-102.8-63c-4.8-3-8.9-10.1-8.9-16l-0.9-87.7c0-5.8,3.9-8.2,8.7-5.2
	l103.9,63.1c4.8,2.9,8.8,10.1,8.8,16L526.1,376.3L526.1,376.3z"/>
<linearGradient id="SVGID_1_" gradientUnits="userSpaceOnUse" x1="405.3" y1="1502.6155" x2="526.1" y2="1502.6155" gradientTransform="matrix(1 0 0 1 0 -1168)">
	<stop  offset="0.1499" style="stop-color:#F49719"/>
	<stop  offset="1" style="stop-color:#FCC00E"/>
</linearGradient>
<path class="st1" d="M526.1,375.5v-61c-0.4-1.1-0.9-2.2-1.7-3.1c-2.3-2.7-6.2-3.3-9.7-2.6c-3.4,0.7-6.5,2.5-9.6,4.2
	c-4.5,2.4-9.2,4.4-14.1,4.9c-5,0.5-10.3-0.8-13.9-4.3c-3.7-3.6-5.6-9.4-10.3-11.4c-4.2-1.8-8.9,0.2-13.2,1.6
	c-9.5,3.1-21.1,2.8-28.1-4.6c-4.1-4.3-6.6-11-12.3-12.4c-0.3-0.1-0.7-0.1-1-0.2c-2.4-0.3-4.7,0.4-6.9,1.7l0.1,14.2
	c0,5.8,4.1,13,8.9,16l8.7,5.3c5.8,3.4,11.6,6.9,17.3,10.4c16.2,10,32.4,20,48.5,29.9l28.2,17.3c1.2,0.7,2.4,1.2,3.4,1.3
	c0.4,0,0.8,0,1.2-0.1c2.4-0.7,3.4-3.5,4-5.9C525.9,376.3,526,375.9,526.1,375.5z"/>
<linearGradient id="SVGID_2_" gradientUnits="userSpaceOnUse" x1="405.7" y1="1463.4927" x2="526.2" y2="1463.4927" gradientTransform="matrix(1 0 0 1 0 -1168)">
	<stop  offset="0" style="stop-color:#5D7DBE"/>
	<stop  offset="0.9962" style="stop-color:#3C5186"/>
</linearGradient>
<path class="st2" d="M523,378.4v-87.6c0-5.8-4-13-8.8-16l-103.9-63.1c-1.7-1.1-3.3-1.4-4.6-1.2c1.4-2.5,4.4-3,7.8-0.9l103.9,63.1
	c4.8,2.9,8.8,10.1,8.8,16v87.6c0,3.8-1.6,6-4.1,6.4C522.6,381.6,523,380.2,523,378.4z"/>
</svg>
