<?xml version="1.0" encoding="utf-8"?>
<!-- Generator: Adobe Illustrator 24.0.1, SVG Export Plug-In . SVG Version: 6.00 Build 0)  -->
<svg version="1.1" id="Layer_1" xmlns="http://www.w3.org/2000/svg" xmlns:xlink="http://www.w3.org/1999/xlink" x="0px" y="0px"
	 viewBox="0 0 527 495" style="enable-background:new 0 0 527 495;" xml:space="preserve">
<style type="text/css">
	.st0{fill:#E4EDF8;}
	.st1{fill:#D1E1F2;}
	.st2{fill:#FFFFFF;}
	.st3{fill:#DAE7F5;}
</style>
<path class="st0" d="M197.3,381.1l36.8-22v-0.5l-53-29.6l-27.9,25.7L197.3,381.1z"/>
<path class="st1" d="M197.3,380.6l36.8-22l-53-30.1l-27.9,25.7L197.3,380.6z"/>
<path class="st2" d="M195.8,380.1l36.8-22l0.3-7l-53.3-23.7l-27.9,25.7L195.8,380.1z"/>
<path class="st0" d="M175.2,315.8l58.9,34.6v0.5l-36.8,22l-58.9-35.1L175.2,315.8z"/>
<path class="st1" d="M175.2,315.3l58.9,35.1l-36.8,22l-58.9-35.1L175.2,315.3z"/>
<path class="st2" d="M182.9,323.5l16.6,9.8L169.8,351l-16.6-9.8L182.9,323.5z"/>
<path class="st0" d="M138.9,337.5v8.5l58.4,35.1l0.5-0.3v-8.2L138.9,337.5z"/>
<path class="st3" d="M138.4,337.2v8.5l58.9,35.4v-8.8L138.4,337.2z"/>
</svg>
