<?xml version="1.0" encoding="utf-8"?>
<!-- Generator: Adobe Illustrator 24.0.1, SVG Export Plug-In . SVG Version: 6.00 Build 0)  -->
<svg version="1.1" id="Layer_1" xmlns="http://www.w3.org/2000/svg" xmlns:xlink="http://www.w3.org/1999/xlink" x="0px" y="0px"
	 viewBox="0 0 527 495" style="enable-background:new 0 0 527 495;" xml:space="preserve">
<style type="text/css">
	.st0{fill:url(#SVGID_1_);}
	.st1{fill:#F4F8FD;}
	.st2{fill:#3C5186;}
	.st3{fill:#FCC00E;}
</style>
<g>
	
		<linearGradient id="SVGID_1_" gradientUnits="userSpaceOnUse" x1="169.2001" y1="54.6703" x2="171.3921" y2="64.5273" gradientTransform="matrix(1 0 0 -1 0 496)">
		<stop  offset="0" style="stop-color:#F49719"/>
		<stop  offset="1" style="stop-color:#FCC00E"/>
	</linearGradient>
	<path class="st0" d="M123,403.8l104.9,59.6l-5,9.4l-99.9-57l-9.3-11.1L123,403.8z"/>
	<path class="st1" d="M123.2,403.8V416l-9.5-11.4L123.2,403.8z"/>
	<path class="st2" d="M116.3,404.7l-1.7,0.2l1.7,2.4V404.7z"/>
	<path class="st3" d="M225.8,463.7c-2.1,1.2-3.9,4.1-3.9,6.4c0,2.4,1.8,3.3,3.9,2.2c2.1-1.2,3.9-4.1,3.9-6.4
		C229.7,463.5,227.9,462.5,225.8,463.7z"/>
	<path class="st1" d="M225.8,463.7c-2.1,1.2-3.9,4.1-3.9,6.4c0,2.4,1.8,3.3,3.9,2.2c2.1-1.2,3.9-4.1,3.9-6.4
		C229.7,463.5,227.9,462.5,225.8,463.7z"/>
	<path class="st2" d="M226.2,466.8c-0.5,0.3-0.9,1.1-0.9,1.8s0.4,0.9,0.9,0.6c0.5-0.3,0.9-1.1,0.9-1.8
		C227.1,466.7,226.7,466.5,226.2,466.8z"/>
</g>
</svg>
