<?xml version="1.0" encoding="utf-8"?>
<!-- Generator: Adobe Illustrator 24.0.1, SVG Export Plug-In . SVG Version: 6.00 Build 0)  -->
<svg version="1.1" id="Layer_1" xmlns="http://www.w3.org/2000/svg" xmlns:xlink="http://www.w3.org/1999/xlink" x="0px" y="0px"
	 viewBox="0 0 155 42" style="enable-background:new 0 0 155 42;" xml:space="preserve">
<style type="text/css">
	.st0{fill-rule:evenodd;clip-rule:evenodd;fill:#4F6893;}
	.st1{fill-rule:evenodd;clip-rule:evenodd;fill:#32466A;}
	.st2{fill-rule:evenodd;clip-rule:evenodd;fill:#88AFE4;}
</style>
<g>
	<path class="st0" d="M35.5,3.7l1,15.3c0,11.7-17,18-17,18s-17-6.2-17-18c0-1.9,0.9-14.6,1-15.3C2.9,3.8,2.2,3.9,1.6,4
		C1.6,4.2,0,18.7,0,20.5C0,32.3,19.5,42,19.5,42S39,32.3,39,20.5c0-1.9-1.6-16.3-1.6-16.6L35.5,3.7z"/>
	<path class="st1" d="M35.5,3.7l1,15.3c0,11.7-17,18-17,18v5c0,0,19.5-9.7,19.5-21.5c0-1.9-1.6-16.3-1.6-16.6L35.5,3.7z"/>
	<path class="st2" d="M35.5,3.7c0.1,0.7,1.4,13.9,1.4,15.8c0,11.7-17.4,22.3-17.4,22.3S2.1,31.2,2.1,19.5c0-1.9,1.3-15,1.4-15.8
		C2.9,3.8,2.2,3.9,1.6,4C1.6,4.2,0,18.7,0,20.5C0,32.3,19.5,42,19.5,42S39,32.3,39,20.5c0-1.9-1.6-16.3-1.6-16.6
		C36.8,3.9,36.1,3.8,35.5,3.7z"/>
	<path class="st1" d="M6.1,2.6l0,4.8c0,0,5.3-2.4,9.3-2.3h8.2c4.4,0.1,9.3,2.3,9.3,2.3l0-4.8c-2.2-0.7-6.1-2-9.2-2.4
		c-0.9-0.1-1.9-0.2-3-0.2c-0.8,0-1.6,0-2.4,0c-1,0-2,0.1-2.9,0.2C12.2,0.6,8.3,1.9,6.1,2.6z"/>
	<path class="st0" d="M15.8,5l3.7,28.4L23.1,5l-2.4-5h-2.4L15.8,5z"/>
	<path class="st2" d="M6.1,2.6l0,4.7c0,0,7.9-6.8,11.9-6.7l1.5,32.8l1.4-32.8c4.4,0.1,12,6.7,12,6.7l0-4.7c-2.2-0.7-6.1-1.9-9.2-2.3
		c-2.4-0.3-5.9-0.3-8.3,0C12.2,0.6,8.3,1.8,6.1,2.6z"/>
</g>
<path class="st0" d="M51.2,9.2H55v26h3.8v-26h9.6V7.5H48.6c-2.4,0-3.6,1.1-3.6,3.4V14h0.9C45.9,10.8,47.6,9.2,51.2,9.2z M74.2,34.8
	c0.5,0.3,1.3,0.4,2.4,0.4h3.8v-0.8h-0.9c-1.2,0-2-0.3-2.4-1c-0.4-0.7-0.6-1.7-0.6-3.2V7.5h-3.8v22.6c0,1.4,0.1,2.5,0.3,3.2
	C73.3,34,73.7,34.5,74.2,34.8z M91.8,9.2h-3.8c-3.5,0-5.3,1.6-5.3,4.8h-0.9v-3.1c0-2.2,1.2-3.4,3.6-3.4h19.8v1.7h-9.6v26h-3.8V9.2z
	 M124.9,34.1c1.3,0.7,2.7,1.1,4,1.1c0.6,0,1.2-0.1,1.7-0.2v-0.8c-1.2-0.1-2-0.5-2.7-1.1c-0.6-0.6-1.3-1.7-2-3.3l-9.3-22.3h-1.3
	L103.5,35h1.9l3.4-7.9h11.8l1.1,2.7C122.5,31.9,123.6,33.3,124.9,34.1z M109.5,25.6h10.4l-5.1-12.2L109.5,25.6z M135.9,35.1V13.1
	l18.3,22.4h0.9v-28h-1.7v20.7L138.4,10c-0.7-0.8-1.5-1.5-2.4-1.9s-2-0.6-3.3-0.6h-2.8v0.8h0.4c1.4,0,2.4,0.4,3,1.1
	c0.6,0.7,0.9,1.8,0.9,3.1v22.6H135.9z"/>
</svg>
