<?xml version="1.0" encoding="utf-8"?>
<!-- Generator: Adobe Illustrator 24.0.1, SVG Export Plug-In . SVG Version: 6.00 Build 0)  -->
<svg version="1.1" id="Layer_1" xmlns="http://www.w3.org/2000/svg" xmlns:xlink="http://www.w3.org/1999/xlink" x="0px" y="0px"
	 viewBox="0 0 422 447" style="enable-background:new 0 0 422 447;" xml:space="preserve">
<style type="text/css">
	.st0{fill:#EDF3FA;}
	.st1{opacity:0.21;}
	.st2{opacity:1.000000e-02;fill:#3C5185;enable-background:new    ;}
	.st3{opacity:1.960000e-02;fill:#3C5185;enable-background:new    ;}
	.st4{opacity:3.920000e-02;fill:#3C5185;enable-background:new    ;}
	.st5{opacity:5.880000e-02;fill:#3C5185;enable-background:new    ;}
	.st6{opacity:7.840000e-02;fill:#3C5185;enable-background:new    ;}
	.st7{opacity:9.800000e-02;fill:#3C5185;enable-background:new    ;}
	.st8{opacity:0.1176;fill:#3C5185;enable-background:new    ;}
	.st9{opacity:0.1373;fill:#3C5185;enable-background:new    ;}
	.st10{opacity:0.1569;fill:#3C5185;enable-background:new    ;}
	.st11{opacity:0.1765;fill:#3C5185;enable-background:new    ;}
	.st12{opacity:0.1961;fill:#3C5185;enable-background:new    ;}
	.st13{opacity:0.2157;fill:#3C5185;enable-background:new    ;}
	.st14{opacity:0.2353;fill:#3C5185;enable-background:new    ;}
	.st15{opacity:0.2549;fill:#3C5185;enable-background:new    ;}
	.st16{opacity:0.2745;fill:#3C5185;enable-background:new    ;}
	.st17{opacity:0.2941;fill:#3C5185;enable-background:new    ;}
	.st18{opacity:0.3137;fill:#3C5185;enable-background:new    ;}
	.st19{opacity:0.3333;fill:#3C5185;enable-background:new    ;}
	.st20{opacity:0.3529;fill:#3C5185;enable-background:new    ;}
	.st21{opacity:0.3725;fill:#3C5185;enable-background:new    ;}
	.st22{opacity:0.3922;fill:#3C5185;enable-background:new    ;}
	.st23{opacity:0.4118;fill:#3C5185;enable-background:new    ;}
	.st24{opacity:0.4314;fill:#3C5185;enable-background:new    ;}
	.st25{opacity:0.451;fill:#3C5185;enable-background:new    ;}
	.st26{opacity:0.4706;fill:#3C5185;enable-background:new    ;}
	.st27{opacity:0.4902;fill:#3C5185;enable-background:new    ;}
	.st28{opacity:0.5098;fill:#3C5185;enable-background:new    ;}
	.st29{opacity:0.5294;fill:#3C5185;enable-background:new    ;}
	.st30{opacity:0.549;fill:#3C5185;enable-background:new    ;}
	.st31{opacity:0.5686;fill:#3C5185;enable-background:new    ;}
	.st32{opacity:0.5882;fill:#3C5185;enable-background:new    ;}
	.st33{opacity:0.6078;fill:#3C5185;enable-background:new    ;}
	.st34{opacity:0.6275;fill:#3C5185;enable-background:new    ;}
	.st35{opacity:0.6471;fill:#3C5185;enable-background:new    ;}
	.st36{opacity:0.6667;fill:#3C5185;enable-background:new    ;}
	.st37{opacity:0.6863;fill:#3C5185;enable-background:new    ;}
	.st38{opacity:0.7059;fill:#3C5185;enable-background:new    ;}
	.st39{opacity:0.7255;fill:#3C5185;enable-background:new    ;}
	.st40{opacity:0.7451;fill:#3C5185;enable-background:new    ;}
	.st41{opacity:0.7647;fill:#3C5185;enable-background:new    ;}
	.st42{opacity:0.7843;fill:#3C5185;enable-background:new    ;}
	.st43{opacity:0.8039;fill:#3C5185;enable-background:new    ;}
	.st44{opacity:0.8235;fill:#3C5185;enable-background:new    ;}
	.st45{opacity:0.8431;fill:#3C5185;enable-background:new    ;}
	.st46{opacity:0.8627;fill:#3C5185;enable-background:new    ;}
	.st47{opacity:0.8824;fill:#3C5185;enable-background:new    ;}
	.st48{opacity:0.902;fill:#3C5185;enable-background:new    ;}
	.st49{opacity:0.9216;fill:#3C5185;enable-background:new    ;}
	.st50{opacity:0.9412;fill:#3C5185;enable-background:new    ;}
	.st51{opacity:0.9608;fill:#3C5185;enable-background:new    ;}
	.st52{opacity:0.9804;fill:#3C5185;enable-background:new    ;}
	.st53{fill:#3C5185;}
	.st54{fill:url(#SVGID_1_);}
	.st55{fill:url(#SVGID_2_);}
	.st56{opacity:0.38;fill:url(#SVGID_3_);enable-background:new    ;}
</style>
<path class="st0" d="M80.9,341.9c-4.7-2.7-12.3-2.7-17,0l-41.1,23.7c-4.7,2.7-4.7,7.1,0,9.8L64,399.1c4.7,2.7,12.3,2.7,17,0
	l41.1-23.7c4.7-2.7,4.7-7.1,0-9.8L80.9,341.9z"/>
<g class="st1">
	<path class="st2" d="M28.8,321.4V371l43,24.8v-49.6L28.8,321.4z"/>
	<path class="st3" d="M28.8,322.3V371l43,24.8v-48.7L28.8,322.3z"/>
	<path class="st4" d="M28.8,323.2V371l43,24.8V348L28.8,323.2z"/>
	<path class="st5" d="M28.8,324v47l43,24.8v-47L28.8,324z"/>
	<path class="st6" d="M28.8,324.9V371l43,24.8v-46.1L28.8,324.9z"/>
	<path class="st7" d="M28.8,325.7V371l43,24.8v-45.2L28.8,325.7z"/>
	<path class="st8" d="M28.8,326.6V371l43,24.8v-44.4L28.8,326.6z"/>
	<path class="st9" d="M28.8,327.5V371l43,24.8v-43.5L28.8,327.5z"/>
	<path class="st10" d="M28.8,328.4V371l43,24.8v-42.6L28.8,328.4z"/>
	<path class="st11" d="M28.8,329.2V371l43,24.8V354L28.8,329.2z"/>
	<path class="st12" d="M28.8,330.1V371l43,24.8v-40.9L28.8,330.1z"/>
	<path class="st13" d="M28.8,331v40l43,24.8v-40L28.8,331z"/>
	<path class="st14" d="M28.8,331.8V371l43,24.8v-39.2L28.8,331.8z"/>
	<path class="st15" d="M28.8,332.7V371l43,24.8v-38.3L28.8,332.7z"/>
	<path class="st16" d="M28.8,333.5V371l43,24.8v-37.5L28.8,333.5z"/>
	<path class="st17" d="M28.8,334.4V371l43,24.8v-36.6L28.8,334.4z"/>
	<path class="st18" d="M28.8,335.3V371l43,24.8v-35.7L28.8,335.3z"/>
	<path class="st19" d="M28.8,336.2V371l43,24.8V361L28.8,336.2z"/>
	<path class="st20" d="M28.8,337v34l43,24.8v-34L28.8,337z"/>
	<path class="st21" d="M28.8,337.9V371l43,24.8v-33.1L28.8,337.9z"/>
	<path class="st22" d="M28.8,338.8V371l43,24.8v-32.2L28.8,338.8z"/>
	<path class="st23" d="M28.8,339.6V371l43,24.8v-31.4L28.8,339.6z"/>
	<path class="st24" d="M28.8,340.5V371l43,24.8v-30.5L28.8,340.5z"/>
	<path class="st25" d="M28.8,341.3V371l43,24.8v-29.6L28.8,341.3z"/>
	<path class="st26" d="M28.8,342.2V371l43,24.8V367L28.8,342.2z"/>
	<path class="st27" d="M28.8,343.1V371l43,24.8v-27.9L28.8,343.1z"/>
	<path class="st28" d="M28.8,344v27l43,24.8v-27L28.8,344z"/>
	<path class="st29" d="M28.8,344.8V371l43,24.8v-26.2L28.8,344.8z"/>
	<path class="st30" d="M28.8,345.7V371l43,24.8v-25.3L28.8,345.7z"/>
	<path class="st31" d="M28.8,346.6V371l43,24.8v-24.4L28.8,346.6z"/>
	<path class="st32" d="M28.8,347.4V371l43,24.8v-23.6L28.8,347.4z"/>
	<path class="st33" d="M28.8,348.3V371l43,24.8v-22.7L28.8,348.3z"/>
	<path class="st34" d="M28.8,349.1V371l43,24.8V374L28.8,349.1z"/>
	<path class="st35" d="M28.8,350v21l43,24.8v-21L28.8,350z"/>
	<path class="st36" d="M28.8,350.9V371l43,24.8v-20.1L28.8,350.9z"/>
	<path class="st37" d="M28.8,351.7V371l43,24.8v-19.2L28.8,351.7z"/>
	<path class="st38" d="M28.8,352.6V371l43,24.8v-18.4L28.8,352.6z"/>
	<path class="st39" d="M28.8,353.5V371l43,24.8v-17.5L28.8,353.5z"/>
	<path class="st40" d="M28.8,354.4V371l43,24.8v-16.6L28.8,354.4z"/>
	<path class="st41" d="M28.8,355.2V371l43,24.8V380L28.8,355.2z"/>
	<path class="st42" d="M28.8,356.1V371l43,24.8v-14.9L28.8,356.1z"/>
	<path class="st43" d="M28.8,357v14l43,24.8v-14L28.8,357z"/>
	<path class="st44" d="M28.8,357.8V371l43,24.8v-13.2L28.8,357.8z"/>
	<path class="st45" d="M28.8,358.7V371l43,24.8v-12.3L28.8,358.7z"/>
	<path class="st46" d="M28.8,359.5V371l43,24.8v-11.4L28.8,359.5z"/>
	<path class="st47" d="M28.8,360.4V371l43,24.8v-10.6L28.8,360.4z"/>
	<path class="st48" d="M28.8,361.3v9.7l43,24.8v-9.7L28.8,361.3z"/>
	<path class="st49" d="M28.8,362.2v8.9l43,24.8V387L28.8,362.2z"/>
	<path class="st50" d="M28.8,363v8l43,24.8v-8L28.8,363z"/>
	<path class="st51" d="M28.8,363.9v7.1l43,24.8v-7.1L28.8,363.9z"/>
	<path class="st52" d="M28.8,364.8v6.3l43,24.8v-6.2L28.8,364.8z"/>
	<path class="st53" d="M28.8,365.6v5.4l43,24.8v-5.4L28.8,365.6z"/>
</g>
<g class="st1">
	<path class="st2" d="M115.3,321.4V371l-43,24.8v-49.6L115.3,321.4z"/>
	<path class="st3" d="M115.3,322.3V371l-43,24.8v-48.7L115.3,322.3z"/>
	<path class="st4" d="M115.3,323.2V371l-43,24.8V348L115.3,323.2z"/>
	<path class="st5" d="M115.3,324v47l-43,24.8v-47L115.3,324z"/>
	<path class="st6" d="M115.3,324.9V371l-43,24.8v-46.1L115.3,324.9z"/>
	<path class="st7" d="M115.3,325.7V371l-43,24.8v-45.2L115.3,325.7z"/>
	<path class="st8" d="M115.3,326.6V371l-43,24.8v-44.4L115.3,326.6z"/>
	<path class="st9" d="M115.3,327.5V371l-43,24.8v-43.5L115.3,327.5z"/>
	<path class="st10" d="M115.3,328.4V371l-43,24.8v-42.6L115.3,328.4z"/>
	<path class="st11" d="M115.3,329.2V371l-43,24.8V354L115.3,329.2z"/>
	<path class="st12" d="M115.3,330.1V371l-43,24.8v-40.9L115.3,330.1z"/>
	<path class="st13" d="M115.3,331v40l-43,24.8v-40L115.3,331z"/>
	<path class="st14" d="M115.3,331.8V371l-43,24.8v-39.2L115.3,331.8z"/>
	<path class="st15" d="M115.3,332.7V371l-43,24.8v-38.3L115.3,332.7z"/>
	<path class="st16" d="M115.3,333.5V371l-43,24.8v-37.5L115.3,333.5z"/>
	<path class="st17" d="M115.3,334.4V371l-43,24.8v-36.6L115.3,334.4z"/>
	<path class="st18" d="M115.3,335.3V371l-43,24.8v-35.7L115.3,335.3z"/>
	<path class="st19" d="M115.3,336.2V371l-43,24.8V361L115.3,336.2z"/>
	<path class="st20" d="M115.3,337v34l-43,24.8v-34L115.3,337z"/>
	<path class="st21" d="M115.3,337.9V371l-43,24.8v-33.1L115.3,337.9z"/>
	<path class="st22" d="M115.3,338.8V371l-43,24.8v-32.2L115.3,338.8z"/>
	<path class="st23" d="M115.3,339.6V371l-43,24.8v-31.4L115.3,339.6z"/>
	<path class="st24" d="M115.3,340.5V371l-43,24.8v-30.5L115.3,340.5z"/>
	<path class="st25" d="M115.3,341.3V371l-43,24.8v-29.6L115.3,341.3z"/>
	<path class="st26" d="M115.3,342.2V371l-43,24.8V367L115.3,342.2z"/>
	<path class="st27" d="M115.3,343.1V371l-43,24.8v-27.9L115.3,343.1z"/>
	<path class="st28" d="M115.3,344v27l-43,24.8v-27L115.3,344z"/>
	<path class="st29" d="M115.3,344.8V371l-43,24.8v-26.2L115.3,344.8z"/>
	<path class="st30" d="M115.3,345.7V371l-43,24.8v-25.3L115.3,345.7z"/>
	<path class="st31" d="M115.3,346.6V371l-43,24.8v-24.4L115.3,346.6z"/>
	<path class="st32" d="M115.3,347.4V371l-43,24.8v-23.6L115.3,347.4z"/>
	<path class="st33" d="M115.3,348.3V371l-43,24.8v-22.7L115.3,348.3z"/>
	<path class="st34" d="M115.3,349.1V371l-43,24.8V374L115.3,349.1z"/>
	<path class="st35" d="M115.3,350v21l-43,24.8v-21L115.3,350z"/>
	<path class="st36" d="M115.3,350.9V371l-43,24.8v-20.1L115.3,350.9z"/>
	<path class="st37" d="M115.3,351.7V371l-43,24.8v-19.2L115.3,351.7z"/>
	<path class="st38" d="M115.3,352.6V371l-43,24.8v-18.4L115.3,352.6z"/>
	<path class="st39" d="M115.3,353.5V371l-43,24.8v-17.5L115.3,353.5z"/>
	<path class="st40" d="M115.3,354.4V371l-43,24.8v-16.6L115.3,354.4z"/>
	<path class="st41" d="M115.3,355.2V371l-43,24.8V380L115.3,355.2z"/>
	<path class="st42" d="M115.3,356.1V371l-43,24.8v-14.9L115.3,356.1z"/>
	<path class="st43" d="M115.3,357v14l-43,24.8v-14L115.3,357z"/>
	<path class="st44" d="M115.3,357.8V371l-43,24.8v-13.2L115.3,357.8z"/>
	<path class="st45" d="M115.3,358.7V371l-43,24.8v-12.3L115.3,358.7z"/>
	<path class="st46" d="M115.3,359.5V371l-43,24.8v-11.4L115.3,359.5z"/>
	<path class="st47" d="M115.3,360.4V371l-43,24.8v-10.6L115.3,360.4z"/>
	<path class="st48" d="M115.3,361.3v9.7l-43,24.8v-9.7L115.3,361.3z"/>
	<path class="st49" d="M115.3,362.2v8.9l-43,24.8V387L115.3,362.2z"/>
	<path class="st50" d="M115.3,363v8l-43,24.8v-8L115.3,363z"/>
	<path class="st51" d="M115.3,363.9v7.1l-43,24.8v-7.1L115.3,363.9z"/>
	<path class="st52" d="M115.3,364.8v6.3l-43,24.8v-6.2L115.3,364.8z"/>
	<path class="st53" d="M115.3,365.6v5.4l-43,24.8v-5.4L115.3,365.6z"/>
</g>
<linearGradient id="SVGID_1_" gradientUnits="userSpaceOnUse" x1="19.3" y1="-521.2" x2="125.6" y2="-521.2" gradientTransform="matrix(1 0 0 -1 0 -184)">
	<stop  offset="0" style="stop-color:#3C5185"/>
	<stop  offset="0.2141" style="stop-color:#455D94"/>
	<stop  offset="0.7172" style="stop-color:#5674B3"/>
	<stop  offset="1" style="stop-color:#5D7DBE"/>
</linearGradient>
<path class="st54" d="M80.9,308.6c-4.7-2.7-12.3-2.7-17,0l-44.6,14.9v10.4c0,3.2,1.7,6.1,4.4,7.8L64,365.8c4.7,2.7,12.3,2.7,17,0
	l40-22.8c2.8-1.6,4.6-4.6,4.6-7.9v-11.6L80.9,308.6z"/>
<path class="st0" d="M80.9,294.9c-4.7-2.7-12.3-2.7-17,0l-41.1,23.7c-4.7,2.7-4.7,7.1,0,9.8L64,352.1c4.7,2.7,12.3,2.7,17,0
	l41.1-23.7c4.7-2.7,4.7-7.1,0-9.8L80.9,294.9z"/>
<linearGradient id="SVGID_2_" gradientUnits="userSpaceOnUse" x1="19.4" y1="-576.6125" x2="125.7" y2="-576.6125" gradientTransform="matrix(1 0 0 -1 0 -184)">
	<stop  offset="0" style="stop-color:#3C5185"/>
	<stop  offset="0.2141" style="stop-color:#455D94"/>
	<stop  offset="0.7172" style="stop-color:#5674B3"/>
	<stop  offset="1" style="stop-color:#5D7DBE"/>
</linearGradient>
<path class="st55" d="M122.1,375.4L81,399.1c-4.7,2.7-12.3,2.7-17,0l-41.1-23.7c-2.3-1.3-3.5-3.1-3.5-4.9v10.4
	c0,3.2,1.7,6.1,4.4,7.8L64,412.8c4.7,2.7,12.3,2.7,17,0l40.1-22.9c2.8-1.6,4.6-4.6,4.6-7.9v-11.6
	C125.6,372.3,124.4,374.1,122.1,375.4z"/>
<linearGradient id="SVGID_3_" gradientUnits="userSpaceOnUse" x1="28.7068" y1="-551.975" x2="115.3068" y2="-551.975" gradientTransform="matrix(1 0 0 -1 0 -184)">
	<stop  offset="0" style="stop-color:#3C5185"/>
	<stop  offset="0.2141" style="stop-color:#455D94"/>
	<stop  offset="0.7172" style="stop-color:#5674B3"/>
	<stop  offset="1" style="stop-color:#5D7DBE"/>
</linearGradient>
<path class="st56" d="M112.5,353.9L79,373.2c-3.8,2.2-10,2.2-13.8,0l-33.5-19.3c-1.9-1.1-2.8-2.5-2.8-4v8.5c0,2.6,1.4,5,3.6,6.3
	l32.8,19.7c3.8,2.2,10,2.2,13.8,0l32.7-18.7c2.3-1.3,3.7-3.8,3.7-6.4V350C115.3,351.4,114.4,352.8,112.5,353.9z"/>
</svg>
