<?xml version="1.0" encoding="utf-8"?>
<!-- Generator: Adobe Illustrator 24.0.1, SVG Export Plug-In . SVG Version: 6.00 Build 0)  -->
<svg version="1.1" id="Layer_1" xmlns="http://www.w3.org/2000/svg" xmlns:xlink="http://www.w3.org/1999/xlink" x="0px" y="0px"
	 viewBox="0 0 422 447" style="enable-background:new 0 0 422 447;" xml:space="preserve">
<style type="text/css">
	.st0{fill:#EDF3FA;}
	.st1{opacity:0.21;}
	.st2{opacity:1.000000e-02;fill:url(#SVGID_1_);enable-background:new    ;}
	.st3{opacity:1.960000e-02;fill:url(#SVGID_2_);enable-background:new    ;}
	.st4{opacity:3.920000e-02;fill:url(#SVGID_3_);enable-background:new    ;}
	.st5{opacity:5.880000e-02;fill:url(#SVGID_4_);enable-background:new    ;}
	.st6{opacity:7.840000e-02;fill:url(#SVGID_5_);enable-background:new    ;}
	.st7{opacity:9.800000e-02;fill:url(#SVGID_6_);enable-background:new    ;}
	.st8{opacity:0.1176;fill:url(#SVGID_7_);enable-background:new    ;}
	.st9{opacity:0.1373;fill:url(#SVGID_8_);enable-background:new    ;}
	.st10{opacity:0.1569;fill:url(#SVGID_9_);enable-background:new    ;}
	.st11{opacity:0.1765;fill:url(#SVGID_10_);enable-background:new    ;}
	.st12{opacity:0.1961;fill:url(#SVGID_11_);enable-background:new    ;}
	.st13{opacity:0.2157;fill:url(#SVGID_12_);enable-background:new    ;}
	.st14{opacity:0.2353;fill:url(#SVGID_13_);enable-background:new    ;}
	.st15{opacity:0.2549;fill:url(#SVGID_14_);enable-background:new    ;}
	.st16{opacity:0.2745;fill:url(#SVGID_15_);enable-background:new    ;}
	.st17{opacity:0.2941;fill:url(#SVGID_16_);enable-background:new    ;}
	.st18{opacity:0.3137;fill:url(#SVGID_17_);enable-background:new    ;}
	.st19{opacity:0.3333;fill:url(#SVGID_18_);enable-background:new    ;}
	.st20{opacity:0.3529;fill:url(#SVGID_19_);enable-background:new    ;}
	.st21{opacity:0.3725;fill:url(#SVGID_20_);enable-background:new    ;}
	.st22{opacity:0.3922;fill:url(#SVGID_21_);enable-background:new    ;}
	.st23{opacity:0.4118;fill:url(#SVGID_22_);enable-background:new    ;}
	.st24{opacity:0.4314;fill:url(#SVGID_23_);enable-background:new    ;}
	.st25{opacity:0.451;fill:url(#SVGID_24_);enable-background:new    ;}
	.st26{opacity:0.4706;fill:url(#SVGID_25_);enable-background:new    ;}
	.st27{opacity:0.4902;fill:url(#SVGID_26_);enable-background:new    ;}
	.st28{opacity:0.5098;fill:url(#SVGID_27_);enable-background:new    ;}
	.st29{opacity:0.5294;fill:url(#SVGID_28_);enable-background:new    ;}
	.st30{opacity:0.549;fill:url(#SVGID_29_);enable-background:new    ;}
	.st31{opacity:0.5686;fill:url(#SVGID_30_);enable-background:new    ;}
	.st32{opacity:0.5882;fill:url(#SVGID_31_);enable-background:new    ;}
	.st33{opacity:0.6078;fill:url(#SVGID_32_);enable-background:new    ;}
	.st34{opacity:0.6275;fill:url(#SVGID_33_);enable-background:new    ;}
	.st35{opacity:0.6471;fill:url(#SVGID_34_);enable-background:new    ;}
	.st36{opacity:0.6667;fill:url(#SVGID_35_);enable-background:new    ;}
	.st37{opacity:0.6863;fill:url(#SVGID_36_);enable-background:new    ;}
	.st38{opacity:0.7059;fill:url(#SVGID_37_);enable-background:new    ;}
	.st39{opacity:0.7255;fill:url(#SVGID_38_);enable-background:new    ;}
	.st40{opacity:0.7451;fill:url(#SVGID_39_);enable-background:new    ;}
	.st41{opacity:0.7647;fill:url(#SVGID_40_);enable-background:new    ;}
	.st42{opacity:0.7843;fill:url(#SVGID_41_);enable-background:new    ;}
	.st43{opacity:0.8039;fill:url(#SVGID_42_);enable-background:new    ;}
	.st44{opacity:0.8235;fill:url(#SVGID_43_);enable-background:new    ;}
	.st45{opacity:0.8431;fill:url(#SVGID_44_);enable-background:new    ;}
	.st46{opacity:0.8627;fill:url(#SVGID_45_);enable-background:new    ;}
	.st47{opacity:0.8824;fill:url(#SVGID_46_);enable-background:new    ;}
	.st48{opacity:0.902;fill:url(#SVGID_47_);enable-background:new    ;}
	.st49{opacity:0.9216;fill:url(#SVGID_48_);enable-background:new    ;}
	.st50{opacity:0.9412;fill:url(#SVGID_49_);enable-background:new    ;}
	.st51{opacity:0.9608;fill:url(#SVGID_50_);enable-background:new    ;}
	.st52{opacity:0.9804;fill:url(#SVGID_51_);enable-background:new    ;}
	.st53{fill:url(#SVGID_52_);}
	.st54{opacity:1.000000e-02;fill:url(#SVGID_53_);enable-background:new    ;}
	.st55{opacity:1.960000e-02;fill:url(#SVGID_54_);enable-background:new    ;}
	.st56{opacity:3.920000e-02;fill:url(#SVGID_55_);enable-background:new    ;}
	.st57{opacity:5.880000e-02;fill:url(#SVGID_56_);enable-background:new    ;}
	.st58{opacity:7.840000e-02;fill:url(#SVGID_57_);enable-background:new    ;}
	.st59{opacity:9.800000e-02;fill:url(#SVGID_58_);enable-background:new    ;}
	.st60{opacity:0.1176;fill:url(#SVGID_59_);enable-background:new    ;}
	.st61{opacity:0.1373;fill:url(#SVGID_60_);enable-background:new    ;}
	.st62{opacity:0.1569;fill:url(#SVGID_61_);enable-background:new    ;}
	.st63{opacity:0.1765;fill:url(#SVGID_62_);enable-background:new    ;}
	.st64{opacity:0.1961;fill:url(#SVGID_63_);enable-background:new    ;}
	.st65{opacity:0.2157;fill:url(#SVGID_64_);enable-background:new    ;}
	.st66{opacity:0.2353;fill:url(#SVGID_65_);enable-background:new    ;}
	.st67{opacity:0.2549;fill:url(#SVGID_66_);enable-background:new    ;}
	.st68{opacity:0.2745;fill:url(#SVGID_67_);enable-background:new    ;}
	.st69{opacity:0.2941;fill:url(#SVGID_68_);enable-background:new    ;}
	.st70{opacity:0.3137;fill:url(#SVGID_69_);enable-background:new    ;}
	.st71{opacity:0.3333;fill:url(#SVGID_70_);enable-background:new    ;}
	.st72{opacity:0.3529;fill:url(#SVGID_71_);enable-background:new    ;}
	.st73{opacity:0.3725;fill:url(#SVGID_72_);enable-background:new    ;}
	.st74{opacity:0.3922;fill:url(#SVGID_73_);enable-background:new    ;}
	.st75{opacity:0.4118;fill:url(#SVGID_74_);enable-background:new    ;}
	.st76{opacity:0.4314;fill:url(#SVGID_75_);enable-background:new    ;}
	.st77{opacity:0.451;fill:url(#SVGID_76_);enable-background:new    ;}
	.st78{opacity:0.4706;fill:url(#SVGID_77_);enable-background:new    ;}
	.st79{opacity:0.4902;fill:url(#SVGID_78_);enable-background:new    ;}
	.st80{opacity:0.5098;fill:url(#SVGID_79_);enable-background:new    ;}
	.st81{opacity:0.5294;fill:url(#SVGID_80_);enable-background:new    ;}
	.st82{opacity:0.549;fill:url(#SVGID_81_);enable-background:new    ;}
	.st83{opacity:0.5686;fill:url(#SVGID_82_);enable-background:new    ;}
	.st84{opacity:0.5882;fill:url(#SVGID_83_);enable-background:new    ;}
	.st85{opacity:0.6078;fill:url(#SVGID_84_);enable-background:new    ;}
	.st86{opacity:0.6275;fill:url(#SVGID_85_);enable-background:new    ;}
	.st87{opacity:0.6471;fill:url(#SVGID_86_);enable-background:new    ;}
	.st88{opacity:0.6667;fill:url(#SVGID_87_);enable-background:new    ;}
	.st89{opacity:0.6863;fill:url(#SVGID_88_);enable-background:new    ;}
	.st90{opacity:0.7059;fill:url(#SVGID_89_);enable-background:new    ;}
	.st91{opacity:0.7255;fill:url(#SVGID_90_);enable-background:new    ;}
	.st92{opacity:0.7451;fill:url(#SVGID_91_);enable-background:new    ;}
	.st93{opacity:0.7647;fill:url(#SVGID_92_);enable-background:new    ;}
	.st94{opacity:0.7843;fill:url(#SVGID_93_);enable-background:new    ;}
	.st95{opacity:0.8039;fill:url(#SVGID_94_);enable-background:new    ;}
	.st96{opacity:0.8235;fill:url(#SVGID_95_);enable-background:new    ;}
	.st97{opacity:0.8431;fill:url(#SVGID_96_);enable-background:new    ;}
	.st98{opacity:0.8627;fill:url(#SVGID_97_);enable-background:new    ;}
	.st99{opacity:0.8824;fill:url(#SVGID_98_);enable-background:new    ;}
	.st100{opacity:0.902;fill:url(#SVGID_99_);enable-background:new    ;}
	.st101{opacity:0.9216;fill:url(#SVGID_100_);enable-background:new    ;}
	.st102{opacity:0.9412;fill:url(#SVGID_101_);enable-background:new    ;}
	.st103{opacity:0.9608;fill:url(#SVGID_102_);enable-background:new    ;}
	.st104{opacity:0.9804;fill:url(#SVGID_103_);enable-background:new    ;}
	.st105{fill:url(#SVGID_104_);}
	.st106{fill:url(#SVGID_105_);}
	.st107{fill:url(#SVGID_106_);}
</style>
<path class="st0" d="M287.2,83.4c-3.7-2.1-9.6-2.1-13.3,0L241.7,102c-3.7,2.1-3.7,5.5,0,7.7l32.2,18.6c3.7,2.1,9.6,2.1,13.3,0
	l32.2-18.6c3.7-2.1,3.7-5.5,0-7.7L287.2,83.4z"/>
<g class="st1">
	
		<linearGradient id="SVGID_1_" gradientUnits="userSpaceOnUse" x1="246.3" y1="-280.4" x2="280" y2="-280.4" gradientTransform="matrix(1 0 0 -1 0 -184)">
		<stop  offset="0.1499" style="stop-color:#FF9800"/>
		<stop  offset="1" style="stop-color:#FFC107"/>
	</linearGradient>
	<path class="st2" d="M246.3,67.3v38.8l33.7,19.4V86.8L246.3,67.3z"/>
	
		<linearGradient id="SVGID_2_" gradientUnits="userSpaceOnUse" x1="246.3" y1="-280.75" x2="280" y2="-280.75" gradientTransform="matrix(1 0 0 -1 0 -184)">
		<stop  offset="0.1499" style="stop-color:#FF9800"/>
		<stop  offset="1" style="stop-color:#FFC107"/>
	</linearGradient>
	<path class="st3" d="M246.3,68v38.1l33.7,19.4V87.4L246.3,68z"/>
	
		<linearGradient id="SVGID_3_" gradientUnits="userSpaceOnUse" x1="246.3" y1="-281.15" x2="280" y2="-281.15" gradientTransform="matrix(1 0 0 -1 0 -184)">
		<stop  offset="0.1499" style="stop-color:#FF9800"/>
		<stop  offset="1" style="stop-color:#FFC107"/>
	</linearGradient>
	<path class="st4" d="M246.3,68.7v37.5l33.7,19.4V88.1L246.3,68.7z"/>
	
		<linearGradient id="SVGID_4_" gradientUnits="userSpaceOnUse" x1="246.3" y1="-281.5" x2="280" y2="-281.5" gradientTransform="matrix(1 0 0 -1 0 -184)">
		<stop  offset="0.1499" style="stop-color:#FF9800"/>
		<stop  offset="1" style="stop-color:#FFC107"/>
	</linearGradient>
	<path class="st5" d="M246.3,69.4v36.8l33.7,19.4V88.8L246.3,69.4z"/>
	
		<linearGradient id="SVGID_5_" gradientUnits="userSpaceOnUse" x1="246.3" y1="-281.85" x2="280" y2="-281.85" gradientTransform="matrix(1 0 0 -1 0 -184)">
		<stop  offset="0.1499" style="stop-color:#FF9800"/>
		<stop  offset="1" style="stop-color:#FFC107"/>
	</linearGradient>
	<path class="st6" d="M246.3,70.1v36.1l33.7,19.4V89.5L246.3,70.1z"/>
	
		<linearGradient id="SVGID_6_" gradientUnits="userSpaceOnUse" x1="246.3" y1="-282.1" x2="280" y2="-282.1" gradientTransform="matrix(1 0 0 -1 0 -184)">
		<stop  offset="0.1499" style="stop-color:#FF9800"/>
		<stop  offset="1" style="stop-color:#FFC107"/>
	</linearGradient>
	<path class="st7" d="M246.3,70.7v35.4l33.7,19.4V90.2L246.3,70.7z"/>
	
		<linearGradient id="SVGID_7_" gradientUnits="userSpaceOnUse" x1="246.3" y1="-282.5" x2="280" y2="-282.5" gradientTransform="matrix(1 0 0 -1 0 -184)">
		<stop  offset="0.1499" style="stop-color:#FF9800"/>
		<stop  offset="1" style="stop-color:#FFC107"/>
	</linearGradient>
	<path class="st8" d="M246.3,71.4v34.8l33.7,19.4V90.8L246.3,71.4z"/>
	
		<linearGradient id="SVGID_8_" gradientUnits="userSpaceOnUse" x1="246.3" y1="-282.85" x2="280" y2="-282.85" gradientTransform="matrix(1 0 0 -1 0 -184)">
		<stop  offset="0.1499" style="stop-color:#FF9800"/>
		<stop  offset="1" style="stop-color:#FFC107"/>
	</linearGradient>
	<path class="st9" d="M246.3,72.1v34.1l33.7,19.4V91.5L246.3,72.1z"/>
	
		<linearGradient id="SVGID_9_" gradientUnits="userSpaceOnUse" x1="246.3" y1="-283.2" x2="280" y2="-283.2" gradientTransform="matrix(1 0 0 -1 0 -184)">
		<stop  offset="0.1499" style="stop-color:#FF9800"/>
		<stop  offset="1" style="stop-color:#FFC107"/>
	</linearGradient>
	<path class="st10" d="M246.3,72.8v33.4l33.7,19.4V92.2L246.3,72.8z"/>
	
		<linearGradient id="SVGID_10_" gradientUnits="userSpaceOnUse" x1="246.3" y1="-283.45" x2="280" y2="-283.45" gradientTransform="matrix(1 0 0 -1 0 -184)">
		<stop  offset="0.1499" style="stop-color:#FF9800"/>
		<stop  offset="1" style="stop-color:#FFC107"/>
	</linearGradient>
	<path class="st11" d="M246.3,73.4v32.7l33.7,19.4V92.9L246.3,73.4z"/>
	
		<linearGradient id="SVGID_11_" gradientUnits="userSpaceOnUse" x1="246.3" y1="-283.8" x2="280" y2="-283.8" gradientTransform="matrix(1 0 0 -1 0 -184)">
		<stop  offset="0.1499" style="stop-color:#FF9800"/>
		<stop  offset="1" style="stop-color:#FFC107"/>
	</linearGradient>
	<path class="st12" d="M246.3,74.1v32l33.7,19.4v-32L246.3,74.1z"/>
	
		<linearGradient id="SVGID_12_" gradientUnits="userSpaceOnUse" x1="246.3" y1="-284.2" x2="280" y2="-284.2" gradientTransform="matrix(1 0 0 -1 0 -184)">
		<stop  offset="0.1499" style="stop-color:#FF9800"/>
		<stop  offset="1" style="stop-color:#FFC107"/>
	</linearGradient>
	<path class="st13" d="M246.3,74.8v31.4l33.7,19.4V94.2L246.3,74.8z"/>
	
		<linearGradient id="SVGID_13_" gradientUnits="userSpaceOnUse" x1="246.3" y1="-284.55" x2="280" y2="-284.55" gradientTransform="matrix(1 0 0 -1 0 -184)">
		<stop  offset="0.1499" style="stop-color:#FF9800"/>
		<stop  offset="1" style="stop-color:#FFC107"/>
	</linearGradient>
	<path class="st14" d="M246.3,75.5v30.7l33.7,19.4V94.9L246.3,75.5z"/>
	
		<linearGradient id="SVGID_14_" gradientUnits="userSpaceOnUse" x1="246.3" y1="-284.9" x2="280" y2="-284.9" gradientTransform="matrix(1 0 0 -1 0 -184)">
		<stop  offset="0.1499" style="stop-color:#FF9800"/>
		<stop  offset="1" style="stop-color:#FFC107"/>
	</linearGradient>
	<path class="st15" d="M246.3,76.2v30l33.7,19.4v-30L246.3,76.2z"/>
	
		<linearGradient id="SVGID_15_" gradientUnits="userSpaceOnUse" x1="246.3" y1="-285.15" x2="280" y2="-285.15" gradientTransform="matrix(1 0 0 -1 0 -184)">
		<stop  offset="0.1499" style="stop-color:#FF9800"/>
		<stop  offset="1" style="stop-color:#FFC107"/>
	</linearGradient>
	<path class="st16" d="M246.3,76.8v29.3l33.7,19.4V96.3L246.3,76.8z"/>
	
		<linearGradient id="SVGID_16_" gradientUnits="userSpaceOnUse" x1="246.3" y1="-285.55" x2="280" y2="-285.55" gradientTransform="matrix(1 0 0 -1 0 -184)">
		<stop  offset="0.1499" style="stop-color:#FF9800"/>
		<stop  offset="1" style="stop-color:#FFC107"/>
	</linearGradient>
	<path class="st17" d="M246.3,77.5v28.7l33.7,19.4V96.9L246.3,77.5z"/>
	
		<linearGradient id="SVGID_17_" gradientUnits="userSpaceOnUse" x1="246.3" y1="-285.9" x2="280" y2="-285.9" gradientTransform="matrix(1 0 0 -1 0 -184)">
		<stop  offset="0.1499" style="stop-color:#FF9800"/>
		<stop  offset="1" style="stop-color:#FFC107"/>
	</linearGradient>
	<path class="st18" d="M246.3,78.2v28l33.7,19.4v-28L246.3,78.2z"/>
	
		<linearGradient id="SVGID_18_" gradientUnits="userSpaceOnUse" x1="246.3" y1="-286.25" x2="280" y2="-286.25" gradientTransform="matrix(1 0 0 -1 0 -184)">
		<stop  offset="0.1499" style="stop-color:#FF9800"/>
		<stop  offset="1" style="stop-color:#FFC107"/>
	</linearGradient>
	<path class="st19" d="M246.3,78.9v27.3l33.7,19.4V98.3L246.3,78.9z"/>
	
		<linearGradient id="SVGID_19_" gradientUnits="userSpaceOnUse" x1="246.3" y1="-286.6" x2="280" y2="-286.6" gradientTransform="matrix(1 0 0 -1 0 -184)">
		<stop  offset="0.1499" style="stop-color:#FF9800"/>
		<stop  offset="1" style="stop-color:#FFC107"/>
	</linearGradient>
	<path class="st20" d="M246.3,79.6v26.6l33.7,19.4V99L246.3,79.6z"/>
	
		<linearGradient id="SVGID_20_" gradientUnits="userSpaceOnUse" x1="246.3" y1="-286.85" x2="280" y2="-286.85" gradientTransform="matrix(1 0 0 -1 0 -184)">
		<stop  offset="0.1499" style="stop-color:#FF9800"/>
		<stop  offset="1" style="stop-color:#FFC107"/>
	</linearGradient>
	<path class="st21" d="M246.3,80.2v25.9l33.7,19.4V99.7L246.3,80.2z"/>
	
		<linearGradient id="SVGID_21_" gradientUnits="userSpaceOnUse" x1="246.3" y1="-287.25" x2="280" y2="-287.25" gradientTransform="matrix(1 0 0 -1 0 -184)">
		<stop  offset="0.1499" style="stop-color:#FF9800"/>
		<stop  offset="1" style="stop-color:#FFC107"/>
	</linearGradient>
	<path class="st22" d="M246.3,80.9v25.3l33.7,19.4v-25.2L246.3,80.9z"/>
	
		<linearGradient id="SVGID_22_" gradientUnits="userSpaceOnUse" x1="246.3" y1="-287.6" x2="280" y2="-287.6" gradientTransform="matrix(1 0 0 -1 0 -184)">
		<stop  offset="0.1499" style="stop-color:#FF9800"/>
		<stop  offset="1" style="stop-color:#FFC107"/>
	</linearGradient>
	<path class="st23" d="M246.3,81.6v24.6l33.7,19.4V101L246.3,81.6z"/>
	
		<linearGradient id="SVGID_23_" gradientUnits="userSpaceOnUse" x1="246.3" y1="-287.95" x2="280" y2="-287.95" gradientTransform="matrix(1 0 0 -1 0 -184)">
		<stop  offset="0.1499" style="stop-color:#FF9800"/>
		<stop  offset="1" style="stop-color:#FFC107"/>
	</linearGradient>
	<path class="st24" d="M246.3,82.3v23.9l33.7,19.4v-23.9L246.3,82.3z"/>
	
		<linearGradient id="SVGID_24_" gradientUnits="userSpaceOnUse" x1="246.3" y1="-288.2" x2="280" y2="-288.2" gradientTransform="matrix(1 0 0 -1 0 -184)">
		<stop  offset="0.1499" style="stop-color:#FF9800"/>
		<stop  offset="1" style="stop-color:#FFC107"/>
	</linearGradient>
	<path class="st25" d="M246.3,82.9v23.2l33.7,19.4v-23.2L246.3,82.9z"/>
	
		<linearGradient id="SVGID_25_" gradientUnits="userSpaceOnUse" x1="246.3" y1="-288.55" x2="280" y2="-288.55" gradientTransform="matrix(1 0 0 -1 0 -184)">
		<stop  offset="0.1499" style="stop-color:#FF9800"/>
		<stop  offset="1" style="stop-color:#FFC107"/>
	</linearGradient>
	<path class="st26" d="M246.3,83.6v22.5l33.7,19.4V103L246.3,83.6z"/>
	
		<linearGradient id="SVGID_26_" gradientUnits="userSpaceOnUse" x1="246.3" y1="-288.95" x2="280" y2="-288.95" gradientTransform="matrix(1 0 0 -1 0 -184)">
		<stop  offset="0.1499" style="stop-color:#FF9800"/>
		<stop  offset="1" style="stop-color:#FFC107"/>
	</linearGradient>
	<path class="st27" d="M246.3,84.3v21.9l33.7,19.4v-21.8L246.3,84.3z"/>
	
		<linearGradient id="SVGID_27_" gradientUnits="userSpaceOnUse" x1="246.3" y1="-289.3" x2="280" y2="-289.3" gradientTransform="matrix(1 0 0 -1 0 -184)">
		<stop  offset="0.1499" style="stop-color:#FF9800"/>
		<stop  offset="1" style="stop-color:#FFC107"/>
	</linearGradient>
	<path class="st28" d="M246.3,85v21.2l33.7,19.4v-21.2L246.3,85z"/>
	
		<linearGradient id="SVGID_28_" gradientUnits="userSpaceOnUse" x1="246.3" y1="-289.65" x2="280" y2="-289.65" gradientTransform="matrix(1 0 0 -1 0 -184)">
		<stop  offset="0.1499" style="stop-color:#FF9800"/>
		<stop  offset="1" style="stop-color:#FFC107"/>
	</linearGradient>
	<path class="st29" d="M246.3,85.7v20.5l33.7,19.4v-20.5L246.3,85.7z"/>
	
		<linearGradient id="SVGID_29_" gradientUnits="userSpaceOnUse" x1="246.3" y1="-289.9" x2="280" y2="-289.9" gradientTransform="matrix(1 0 0 -1 0 -184)">
		<stop  offset="0.1499" style="stop-color:#FF9800"/>
		<stop  offset="1" style="stop-color:#FFC107"/>
	</linearGradient>
	<path class="st30" d="M246.3,86.3v19.8l33.7,19.4v-19.8L246.3,86.3z"/>
	
		<linearGradient id="SVGID_30_" gradientUnits="userSpaceOnUse" x1="246.3" y1="-290.3" x2="280" y2="-290.3" gradientTransform="matrix(1 0 0 -1 0 -184)">
		<stop  offset="0.1499" style="stop-color:#FF9800"/>
		<stop  offset="1" style="stop-color:#FFC107"/>
	</linearGradient>
	<path class="st31" d="M246.3,87v19.2l33.7,19.4v-19.1L246.3,87z"/>
	
		<linearGradient id="SVGID_31_" gradientUnits="userSpaceOnUse" x1="246.3" y1="-290.65" x2="280" y2="-290.65" gradientTransform="matrix(1 0 0 -1 0 -184)">
		<stop  offset="0.1499" style="stop-color:#FF9800"/>
		<stop  offset="1" style="stop-color:#FFC107"/>
	</linearGradient>
	<path class="st32" d="M246.3,87.7v18.5l33.7,19.4v-18.4L246.3,87.7z"/>
	
		<linearGradient id="SVGID_32_" gradientUnits="userSpaceOnUse" x1="246.3" y1="-291" x2="280" y2="-291" gradientTransform="matrix(1 0 0 -1 0 -184)">
		<stop  offset="0.1499" style="stop-color:#FF9800"/>
		<stop  offset="1" style="stop-color:#FFC107"/>
	</linearGradient>
	<path class="st33" d="M246.3,88.4v17.8l33.7,19.4v-17.8L246.3,88.4z"/>
	
		<linearGradient id="SVGID_33_" gradientUnits="userSpaceOnUse" x1="246.3" y1="-291.35" x2="280" y2="-291.35" gradientTransform="matrix(1 0 0 -1 0 -184)">
		<stop  offset="0.1499" style="stop-color:#FF9800"/>
		<stop  offset="1" style="stop-color:#FFC107"/>
	</linearGradient>
	<path class="st34" d="M246.3,89.1v17.1l33.7,19.4v-17.1L246.3,89.1z"/>
	
		<linearGradient id="SVGID_34_" gradientUnits="userSpaceOnUse" x1="246.3" y1="-291.6" x2="280" y2="-291.6" gradientTransform="matrix(1 0 0 -1 0 -184)">
		<stop  offset="0.1499" style="stop-color:#FF9800"/>
		<stop  offset="1" style="stop-color:#FFC107"/>
	</linearGradient>
	<path class="st35" d="M246.3,89.7v16.4l33.7,19.4v-16.4L246.3,89.7z"/>
	
		<linearGradient id="SVGID_35_" gradientUnits="userSpaceOnUse" x1="246.3" y1="-292" x2="280" y2="-292" gradientTransform="matrix(1 0 0 -1 0 -184)">
		<stop  offset="0.1499" style="stop-color:#FF9800"/>
		<stop  offset="1" style="stop-color:#FFC107"/>
	</linearGradient>
	<path class="st36" d="M246.3,90.4v15.8l33.7,19.4v-15.7L246.3,90.4z"/>
	
		<linearGradient id="SVGID_36_" gradientUnits="userSpaceOnUse" x1="246.3" y1="-292.35" x2="280" y2="-292.35" gradientTransform="matrix(1 0 0 -1 0 -184)">
		<stop  offset="0.1499" style="stop-color:#FF9800"/>
		<stop  offset="1" style="stop-color:#FFC107"/>
	</linearGradient>
	<path class="st37" d="M246.3,91.1v15.1l33.7,19.4v-15.1L246.3,91.1z"/>
	
		<linearGradient id="SVGID_37_" gradientUnits="userSpaceOnUse" x1="246.3" y1="-292.7" x2="280" y2="-292.7" gradientTransform="matrix(1 0 0 -1 0 -184)">
		<stop  offset="0.1499" style="stop-color:#FF9800"/>
		<stop  offset="1" style="stop-color:#FFC107"/>
	</linearGradient>
	<path class="st38" d="M246.3,91.8v14.4l33.7,19.4v-14.4L246.3,91.8z"/>
	
		<linearGradient id="SVGID_38_" gradientUnits="userSpaceOnUse" x1="246.3" y1="-292.95" x2="280" y2="-292.95" gradientTransform="matrix(1 0 0 -1 0 -184)">
		<stop  offset="0.1499" style="stop-color:#FF9800"/>
		<stop  offset="1" style="stop-color:#FFC107"/>
	</linearGradient>
	<path class="st39" d="M246.3,92.4v13.7l33.7,19.4v-13.7L246.3,92.4z"/>
	
		<linearGradient id="SVGID_39_" gradientUnits="userSpaceOnUse" x1="246.3" y1="-293.3" x2="280" y2="-293.3" gradientTransform="matrix(1 0 0 -1 0 -184)">
		<stop  offset="0.1499" style="stop-color:#FF9800"/>
		<stop  offset="1" style="stop-color:#FFC107"/>
	</linearGradient>
	<path class="st40" d="M246.3,93.1v13l33.7,19.4v-13L246.3,93.1z"/>
	
		<linearGradient id="SVGID_40_" gradientUnits="userSpaceOnUse" x1="246.3" y1="-293.7" x2="280" y2="-293.7" gradientTransform="matrix(1 0 0 -1 0 -184)">
		<stop  offset="0.1499" style="stop-color:#FF9800"/>
		<stop  offset="1" style="stop-color:#FFC107"/>
	</linearGradient>
	<path class="st41" d="M246.3,93.8v12.4l33.7,19.4v-12.3L246.3,93.8z"/>
	
		<linearGradient id="SVGID_41_" gradientUnits="userSpaceOnUse" x1="246.3" y1="-294.05" x2="280" y2="-294.05" gradientTransform="matrix(1 0 0 -1 0 -184)">
		<stop  offset="0.1499" style="stop-color:#FF9800"/>
		<stop  offset="1" style="stop-color:#FFC107"/>
	</linearGradient>
	<path class="st42" d="M246.3,94.5v11.7l33.7,19.4v-11.7L246.3,94.5z"/>
	
		<linearGradient id="SVGID_42_" gradientUnits="userSpaceOnUse" x1="246.3" y1="-294.4" x2="280" y2="-294.4" gradientTransform="matrix(1 0 0 -1 0 -184)">
		<stop  offset="0.1499" style="stop-color:#FF9800"/>
		<stop  offset="1" style="stop-color:#FFC107"/>
	</linearGradient>
	<path class="st43" d="M246.3,95.2v11l33.7,19.4v-11L246.3,95.2z"/>
	
		<linearGradient id="SVGID_43_" gradientUnits="userSpaceOnUse" x1="246.3" y1="-294.65" x2="280" y2="-294.65" gradientTransform="matrix(1 0 0 -1 0 -184)">
		<stop  offset="0.1499" style="stop-color:#FF9800"/>
		<stop  offset="1" style="stop-color:#FFC107"/>
	</linearGradient>
	<path class="st44" d="M246.3,95.8v10.3l33.7,19.4v-10.3L246.3,95.8z"/>
	
		<linearGradient id="SVGID_44_" gradientUnits="userSpaceOnUse" x1="246.3" y1="-295.05" x2="280" y2="-295.05" gradientTransform="matrix(1 0 0 -1 0 -184)">
		<stop  offset="0.1499" style="stop-color:#FF9800"/>
		<stop  offset="1" style="stop-color:#FFC107"/>
	</linearGradient>
	<path class="st45" d="M246.3,96.5v9.7l33.7,19.4V116L246.3,96.5z"/>
	
		<linearGradient id="SVGID_45_" gradientUnits="userSpaceOnUse" x1="246.3" y1="-295.4" x2="280" y2="-295.4" gradientTransform="matrix(1 0 0 -1 0 -184)">
		<stop  offset="0.1499" style="stop-color:#FF9800"/>
		<stop  offset="1" style="stop-color:#FFC107"/>
	</linearGradient>
	<path class="st46" d="M246.3,97.2v9l33.7,19.4v-8.9L246.3,97.2z"/>
	
		<linearGradient id="SVGID_46_" gradientUnits="userSpaceOnUse" x1="246.3" y1="-295.75" x2="280" y2="-295.75" gradientTransform="matrix(1 0 0 -1 0 -184)">
		<stop  offset="0.1499" style="stop-color:#FF9800"/>
		<stop  offset="1" style="stop-color:#FFC107"/>
	</linearGradient>
	<path class="st47" d="M246.3,97.9v8.3l33.7,19.4v-8.3L246.3,97.9z"/>
	
		<linearGradient id="SVGID_47_" gradientUnits="userSpaceOnUse" x1="246.3" y1="-296.1" x2="280" y2="-296.1" gradientTransform="matrix(1 0 0 -1 0 -184)">
		<stop  offset="0.1499" style="stop-color:#FF9800"/>
		<stop  offset="1" style="stop-color:#FFC107"/>
	</linearGradient>
	<path class="st48" d="M246.3,98.6v7.6l33.7,19.4V118L246.3,98.6z"/>
	
		<linearGradient id="SVGID_48_" gradientUnits="userSpaceOnUse" x1="246.3" y1="-296.35" x2="280" y2="-296.35" gradientTransform="matrix(1 0 0 -1 0 -184)">
		<stop  offset="0.1499" style="stop-color:#FF9800"/>
		<stop  offset="1" style="stop-color:#FFC107"/>
	</linearGradient>
	<path class="st49" d="M246.3,99.2v6.9l33.7,19.4v-6.9L246.3,99.2z"/>
	
		<linearGradient id="SVGID_49_" gradientUnits="userSpaceOnUse" x1="246.3" y1="-296.75" x2="280" y2="-296.75" gradientTransform="matrix(1 0 0 -1 0 -184)">
		<stop  offset="0.1499" style="stop-color:#FF9800"/>
		<stop  offset="1" style="stop-color:#FFC107"/>
	</linearGradient>
	<path class="st50" d="M246.3,99.9v6.3l33.7,19.4v-6.2L246.3,99.9z"/>
	
		<linearGradient id="SVGID_50_" gradientUnits="userSpaceOnUse" x1="246.3" y1="-297.1" x2="280" y2="-297.1" gradientTransform="matrix(1 0 0 -1 0 -184)">
		<stop  offset="0.1499" style="stop-color:#FF9800"/>
		<stop  offset="1" style="stop-color:#FFC107"/>
	</linearGradient>
	<path class="st51" d="M246.3,100.6v5.6l33.7,19.4V120L246.3,100.6z"/>
	
		<linearGradient id="SVGID_51_" gradientUnits="userSpaceOnUse" x1="246.3" y1="-297.45" x2="280" y2="-297.45" gradientTransform="matrix(1 0 0 -1 0 -184)">
		<stop  offset="0.1499" style="stop-color:#FF9800"/>
		<stop  offset="1" style="stop-color:#FFC107"/>
	</linearGradient>
	<path class="st52" d="M246.3,101.3v4.9l33.7,19.4v-4.9L246.3,101.3z"/>
	
		<linearGradient id="SVGID_52_" gradientUnits="userSpaceOnUse" x1="246.3" y1="-297.7" x2="280" y2="-297.7" gradientTransform="matrix(1 0 0 -1 0 -184)">
		<stop  offset="0.1499" style="stop-color:#FF9800"/>
		<stop  offset="1" style="stop-color:#FFC107"/>
	</linearGradient>
	<path class="st53" d="M246.3,101.9v4.2l33.7,19.4v-4.2L246.3,101.9z"/>
</g>
<g class="st1">
	
		<linearGradient id="SVGID_53_" gradientUnits="userSpaceOnUse" x1="280.4" y1="-280.4" x2="314.1" y2="-280.4" gradientTransform="matrix(1 0 0 -1 0 -184)">
		<stop  offset="0.1499" style="stop-color:#FF9800"/>
		<stop  offset="1" style="stop-color:#FFC107"/>
	</linearGradient>
	<path class="st54" d="M314.1,67.3v38.8l-33.7,19.4V86.8L314.1,67.3z"/>
	
		<linearGradient id="SVGID_54_" gradientUnits="userSpaceOnUse" x1="280.4" y1="-280.75" x2="314.1" y2="-280.75" gradientTransform="matrix(1 0 0 -1 0 -184)">
		<stop  offset="0.1499" style="stop-color:#FF9800"/>
		<stop  offset="1" style="stop-color:#FFC107"/>
	</linearGradient>
	<path class="st55" d="M314.1,68v38.1l-33.7,19.4V87.4L314.1,68z"/>
	
		<linearGradient id="SVGID_55_" gradientUnits="userSpaceOnUse" x1="280.4" y1="-281.15" x2="314.1" y2="-281.15" gradientTransform="matrix(1 0 0 -1 0 -184)">
		<stop  offset="0.1499" style="stop-color:#FF9800"/>
		<stop  offset="1" style="stop-color:#FFC107"/>
	</linearGradient>
	<path class="st56" d="M314.1,68.7v37.5l-33.7,19.4V88.1L314.1,68.7z"/>
	
		<linearGradient id="SVGID_56_" gradientUnits="userSpaceOnUse" x1="280.4" y1="-281.5" x2="314.1" y2="-281.5" gradientTransform="matrix(1 0 0 -1 0 -184)">
		<stop  offset="0.1499" style="stop-color:#FF9800"/>
		<stop  offset="1" style="stop-color:#FFC107"/>
	</linearGradient>
	<path class="st57" d="M314.1,69.4v36.8l-33.7,19.4V88.8L314.1,69.4z"/>
	
		<linearGradient id="SVGID_57_" gradientUnits="userSpaceOnUse" x1="280.4" y1="-281.85" x2="314.1" y2="-281.85" gradientTransform="matrix(1 0 0 -1 0 -184)">
		<stop  offset="0.1499" style="stop-color:#FF9800"/>
		<stop  offset="1" style="stop-color:#FFC107"/>
	</linearGradient>
	<path class="st58" d="M314.1,70.1v36.1l-33.7,19.4V89.5L314.1,70.1z"/>
	
		<linearGradient id="SVGID_58_" gradientUnits="userSpaceOnUse" x1="280.4" y1="-282.1" x2="314.1" y2="-282.1" gradientTransform="matrix(1 0 0 -1 0 -184)">
		<stop  offset="0.1499" style="stop-color:#FF9800"/>
		<stop  offset="1" style="stop-color:#FFC107"/>
	</linearGradient>
	<path class="st59" d="M314.1,70.7v35.4l-33.7,19.4V90.2L314.1,70.7z"/>
	
		<linearGradient id="SVGID_59_" gradientUnits="userSpaceOnUse" x1="280.4" y1="-282.5" x2="314.1" y2="-282.5" gradientTransform="matrix(1 0 0 -1 0 -184)">
		<stop  offset="0.1499" style="stop-color:#FF9800"/>
		<stop  offset="1" style="stop-color:#FFC107"/>
	</linearGradient>
	<path class="st60" d="M314.1,71.4v34.8l-33.7,19.4V90.8L314.1,71.4z"/>
	
		<linearGradient id="SVGID_60_" gradientUnits="userSpaceOnUse" x1="280.4" y1="-282.85" x2="314.1" y2="-282.85" gradientTransform="matrix(1 0 0 -1 0 -184)">
		<stop  offset="0.1499" style="stop-color:#FF9800"/>
		<stop  offset="1" style="stop-color:#FFC107"/>
	</linearGradient>
	<path class="st61" d="M314.1,72.1v34.1l-33.7,19.4V91.5L314.1,72.1z"/>
	
		<linearGradient id="SVGID_61_" gradientUnits="userSpaceOnUse" x1="280.4" y1="-283.2" x2="314.1" y2="-283.2" gradientTransform="matrix(1 0 0 -1 0 -184)">
		<stop  offset="0.1499" style="stop-color:#FF9800"/>
		<stop  offset="1" style="stop-color:#FFC107"/>
	</linearGradient>
	<path class="st62" d="M314.1,72.8v33.4l-33.7,19.4V92.2L314.1,72.8z"/>
	
		<linearGradient id="SVGID_62_" gradientUnits="userSpaceOnUse" x1="280.4" y1="-283.45" x2="314.1" y2="-283.45" gradientTransform="matrix(1 0 0 -1 0 -184)">
		<stop  offset="0.1499" style="stop-color:#FF9800"/>
		<stop  offset="1" style="stop-color:#FFC107"/>
	</linearGradient>
	<path class="st63" d="M314.1,73.4v32.7l-33.7,19.4V92.9L314.1,73.4z"/>
	
		<linearGradient id="SVGID_63_" gradientUnits="userSpaceOnUse" x1="280.4" y1="-283.8" x2="314.1" y2="-283.8" gradientTransform="matrix(1 0 0 -1 0 -184)">
		<stop  offset="0.1499" style="stop-color:#FF9800"/>
		<stop  offset="1" style="stop-color:#FFC107"/>
	</linearGradient>
	<path class="st64" d="M314.1,74.1v32l-33.7,19.4v-32L314.1,74.1z"/>
	
		<linearGradient id="SVGID_64_" gradientUnits="userSpaceOnUse" x1="280.4" y1="-284.2" x2="314.1" y2="-284.2" gradientTransform="matrix(1 0 0 -1 0 -184)">
		<stop  offset="0.1499" style="stop-color:#FF9800"/>
		<stop  offset="1" style="stop-color:#FFC107"/>
	</linearGradient>
	<path class="st65" d="M314.1,74.8v31.4l-33.7,19.4V94.2L314.1,74.8z"/>
	
		<linearGradient id="SVGID_65_" gradientUnits="userSpaceOnUse" x1="280.4" y1="-284.55" x2="314.1" y2="-284.55" gradientTransform="matrix(1 0 0 -1 0 -184)">
		<stop  offset="0.1499" style="stop-color:#FF9800"/>
		<stop  offset="1" style="stop-color:#FFC107"/>
	</linearGradient>
	<path class="st66" d="M314.1,75.5v30.7l-33.7,19.4V94.9L314.1,75.5z"/>
	
		<linearGradient id="SVGID_66_" gradientUnits="userSpaceOnUse" x1="280.4" y1="-284.9" x2="314.1" y2="-284.9" gradientTransform="matrix(1 0 0 -1 0 -184)">
		<stop  offset="0.1499" style="stop-color:#FF9800"/>
		<stop  offset="1" style="stop-color:#FFC107"/>
	</linearGradient>
	<path class="st67" d="M314.1,76.2v30l-33.7,19.4v-30L314.1,76.2z"/>
	
		<linearGradient id="SVGID_67_" gradientUnits="userSpaceOnUse" x1="280.4" y1="-285.15" x2="314.1" y2="-285.15" gradientTransform="matrix(1 0 0 -1 0 -184)">
		<stop  offset="0.1499" style="stop-color:#FF9800"/>
		<stop  offset="1" style="stop-color:#FFC107"/>
	</linearGradient>
	<path class="st68" d="M314.1,76.8v29.3l-33.7,19.4V96.3L314.1,76.8z"/>
	
		<linearGradient id="SVGID_68_" gradientUnits="userSpaceOnUse" x1="280.4" y1="-285.55" x2="314.1" y2="-285.55" gradientTransform="matrix(1 0 0 -1 0 -184)">
		<stop  offset="0.1499" style="stop-color:#FF9800"/>
		<stop  offset="1" style="stop-color:#FFC107"/>
	</linearGradient>
	<path class="st69" d="M314.1,77.5v28.7l-33.7,19.4V96.9L314.1,77.5z"/>
	
		<linearGradient id="SVGID_69_" gradientUnits="userSpaceOnUse" x1="280.4" y1="-285.9" x2="314.1" y2="-285.9" gradientTransform="matrix(1 0 0 -1 0 -184)">
		<stop  offset="0.1499" style="stop-color:#FF9800"/>
		<stop  offset="1" style="stop-color:#FFC107"/>
	</linearGradient>
	<path class="st70" d="M314.1,78.2v28l-33.7,19.4v-28L314.1,78.2z"/>
	
		<linearGradient id="SVGID_70_" gradientUnits="userSpaceOnUse" x1="280.4" y1="-286.25" x2="314.1" y2="-286.25" gradientTransform="matrix(1 0 0 -1 0 -184)">
		<stop  offset="0.1499" style="stop-color:#FF9800"/>
		<stop  offset="1" style="stop-color:#FFC107"/>
	</linearGradient>
	<path class="st71" d="M314.1,78.9v27.3l-33.7,19.4V98.3L314.1,78.9z"/>
	
		<linearGradient id="SVGID_71_" gradientUnits="userSpaceOnUse" x1="280.4" y1="-286.6" x2="314.1" y2="-286.6" gradientTransform="matrix(1 0 0 -1 0 -184)">
		<stop  offset="0.1499" style="stop-color:#FF9800"/>
		<stop  offset="1" style="stop-color:#FFC107"/>
	</linearGradient>
	<path class="st72" d="M314.1,79.6v26.6l-33.7,19.4V99L314.1,79.6z"/>
	
		<linearGradient id="SVGID_72_" gradientUnits="userSpaceOnUse" x1="280.4" y1="-286.85" x2="314.1" y2="-286.85" gradientTransform="matrix(1 0 0 -1 0 -184)">
		<stop  offset="0.1499" style="stop-color:#FF9800"/>
		<stop  offset="1" style="stop-color:#FFC107"/>
	</linearGradient>
	<path class="st73" d="M314.1,80.2v25.9l-33.7,19.4V99.7L314.1,80.2z"/>
	
		<linearGradient id="SVGID_73_" gradientUnits="userSpaceOnUse" x1="280.4" y1="-287.25" x2="314.1" y2="-287.25" gradientTransform="matrix(1 0 0 -1 0 -184)">
		<stop  offset="0.1499" style="stop-color:#FF9800"/>
		<stop  offset="1" style="stop-color:#FFC107"/>
	</linearGradient>
	<path class="st74" d="M314.1,80.9v25.3l-33.7,19.4v-25.2L314.1,80.9z"/>
	
		<linearGradient id="SVGID_74_" gradientUnits="userSpaceOnUse" x1="280.4" y1="-287.6" x2="314.1" y2="-287.6" gradientTransform="matrix(1 0 0 -1 0 -184)">
		<stop  offset="0.1499" style="stop-color:#FF9800"/>
		<stop  offset="1" style="stop-color:#FFC107"/>
	</linearGradient>
	<path class="st75" d="M314.1,81.6v24.6l-33.7,19.4V101L314.1,81.6z"/>
	
		<linearGradient id="SVGID_75_" gradientUnits="userSpaceOnUse" x1="280.4" y1="-287.95" x2="314.1" y2="-287.95" gradientTransform="matrix(1 0 0 -1 0 -184)">
		<stop  offset="0.1499" style="stop-color:#FF9800"/>
		<stop  offset="1" style="stop-color:#FFC107"/>
	</linearGradient>
	<path class="st76" d="M314.1,82.3v23.9l-33.7,19.4v-23.9L314.1,82.3z"/>
	
		<linearGradient id="SVGID_76_" gradientUnits="userSpaceOnUse" x1="280.4" y1="-288.2" x2="314.1" y2="-288.2" gradientTransform="matrix(1 0 0 -1 0 -184)">
		<stop  offset="0.1499" style="stop-color:#FF9800"/>
		<stop  offset="1" style="stop-color:#FFC107"/>
	</linearGradient>
	<path class="st77" d="M314.1,82.9v23.2l-33.7,19.4v-23.2L314.1,82.9z"/>
	
		<linearGradient id="SVGID_77_" gradientUnits="userSpaceOnUse" x1="280.4" y1="-288.55" x2="314.1" y2="-288.55" gradientTransform="matrix(1 0 0 -1 0 -184)">
		<stop  offset="0.1499" style="stop-color:#FF9800"/>
		<stop  offset="1" style="stop-color:#FFC107"/>
	</linearGradient>
	<path class="st78" d="M314.1,83.6v22.5l-33.7,19.4V103L314.1,83.6z"/>
	
		<linearGradient id="SVGID_78_" gradientUnits="userSpaceOnUse" x1="280.4" y1="-288.95" x2="314.1" y2="-288.95" gradientTransform="matrix(1 0 0 -1 0 -184)">
		<stop  offset="0.1499" style="stop-color:#FF9800"/>
		<stop  offset="1" style="stop-color:#FFC107"/>
	</linearGradient>
	<path class="st79" d="M314.1,84.3v21.9l-33.7,19.4v-21.8L314.1,84.3z"/>
	
		<linearGradient id="SVGID_79_" gradientUnits="userSpaceOnUse" x1="280.4" y1="-289.3" x2="314.1" y2="-289.3" gradientTransform="matrix(1 0 0 -1 0 -184)">
		<stop  offset="0.1499" style="stop-color:#FF9800"/>
		<stop  offset="1" style="stop-color:#FFC107"/>
	</linearGradient>
	<path class="st80" d="M314.1,85v21.2l-33.7,19.4v-21.2L314.1,85z"/>
	
		<linearGradient id="SVGID_80_" gradientUnits="userSpaceOnUse" x1="280.4" y1="-289.65" x2="314.1" y2="-289.65" gradientTransform="matrix(1 0 0 -1 0 -184)">
		<stop  offset="0.1499" style="stop-color:#FF9800"/>
		<stop  offset="1" style="stop-color:#FFC107"/>
	</linearGradient>
	<path class="st81" d="M314.1,85.7v20.5l-33.7,19.4v-20.5L314.1,85.7z"/>
	
		<linearGradient id="SVGID_81_" gradientUnits="userSpaceOnUse" x1="280.4" y1="-289.9" x2="314.1" y2="-289.9" gradientTransform="matrix(1 0 0 -1 0 -184)">
		<stop  offset="0.1499" style="stop-color:#FF9800"/>
		<stop  offset="1" style="stop-color:#FFC107"/>
	</linearGradient>
	<path class="st82" d="M314.1,86.3v19.8l-33.7,19.4v-19.8L314.1,86.3z"/>
	
		<linearGradient id="SVGID_82_" gradientUnits="userSpaceOnUse" x1="280.4" y1="-290.3" x2="314.1" y2="-290.3" gradientTransform="matrix(1 0 0 -1 0 -184)">
		<stop  offset="0.1499" style="stop-color:#FF9800"/>
		<stop  offset="1" style="stop-color:#FFC107"/>
	</linearGradient>
	<path class="st83" d="M314.1,87v19.2l-33.7,19.4v-19.1L314.1,87z"/>
	
		<linearGradient id="SVGID_83_" gradientUnits="userSpaceOnUse" x1="280.4" y1="-290.65" x2="314.1" y2="-290.65" gradientTransform="matrix(1 0 0 -1 0 -184)">
		<stop  offset="0.1499" style="stop-color:#FF9800"/>
		<stop  offset="1" style="stop-color:#FFC107"/>
	</linearGradient>
	<path class="st84" d="M314.1,87.7v18.5l-33.7,19.4v-18.4L314.1,87.7z"/>
	
		<linearGradient id="SVGID_84_" gradientUnits="userSpaceOnUse" x1="280.4" y1="-291" x2="314.1" y2="-291" gradientTransform="matrix(1 0 0 -1 0 -184)">
		<stop  offset="0.1499" style="stop-color:#FF9800"/>
		<stop  offset="1" style="stop-color:#FFC107"/>
	</linearGradient>
	<path class="st85" d="M314.1,88.4v17.8l-33.7,19.4v-17.8L314.1,88.4z"/>
	
		<linearGradient id="SVGID_85_" gradientUnits="userSpaceOnUse" x1="280.4" y1="-291.35" x2="314.1" y2="-291.35" gradientTransform="matrix(1 0 0 -1 0 -184)">
		<stop  offset="0.1499" style="stop-color:#FF9800"/>
		<stop  offset="1" style="stop-color:#FFC107"/>
	</linearGradient>
	<path class="st86" d="M314.1,89.1v17.1l-33.7,19.4v-17.1L314.1,89.1z"/>
	
		<linearGradient id="SVGID_86_" gradientUnits="userSpaceOnUse" x1="280.4" y1="-291.6" x2="314.1" y2="-291.6" gradientTransform="matrix(1 0 0 -1 0 -184)">
		<stop  offset="0.1499" style="stop-color:#FF9800"/>
		<stop  offset="1" style="stop-color:#FFC107"/>
	</linearGradient>
	<path class="st87" d="M314.1,89.7v16.4l-33.7,19.4v-16.4L314.1,89.7z"/>
	
		<linearGradient id="SVGID_87_" gradientUnits="userSpaceOnUse" x1="280.4" y1="-292" x2="314.1" y2="-292" gradientTransform="matrix(1 0 0 -1 0 -184)">
		<stop  offset="0.1499" style="stop-color:#FF9800"/>
		<stop  offset="1" style="stop-color:#FFC107"/>
	</linearGradient>
	<path class="st88" d="M314.1,90.4v15.8l-33.7,19.4v-15.7L314.1,90.4z"/>
	
		<linearGradient id="SVGID_88_" gradientUnits="userSpaceOnUse" x1="280.4" y1="-292.35" x2="314.1" y2="-292.35" gradientTransform="matrix(1 0 0 -1 0 -184)">
		<stop  offset="0.1499" style="stop-color:#FF9800"/>
		<stop  offset="1" style="stop-color:#FFC107"/>
	</linearGradient>
	<path class="st89" d="M314.1,91.1v15.1l-33.7,19.4v-15.1L314.1,91.1z"/>
	
		<linearGradient id="SVGID_89_" gradientUnits="userSpaceOnUse" x1="280.4" y1="-292.7" x2="314.1" y2="-292.7" gradientTransform="matrix(1 0 0 -1 0 -184)">
		<stop  offset="0.1499" style="stop-color:#FF9800"/>
		<stop  offset="1" style="stop-color:#FFC107"/>
	</linearGradient>
	<path class="st90" d="M314.1,91.8v14.4l-33.7,19.4v-14.4L314.1,91.8z"/>
	
		<linearGradient id="SVGID_90_" gradientUnits="userSpaceOnUse" x1="280.4" y1="-292.95" x2="314.1" y2="-292.95" gradientTransform="matrix(1 0 0 -1 0 -184)">
		<stop  offset="0.1499" style="stop-color:#FF9800"/>
		<stop  offset="1" style="stop-color:#FFC107"/>
	</linearGradient>
	<path class="st91" d="M314.1,92.4v13.7l-33.7,19.4v-13.7L314.1,92.4z"/>
	
		<linearGradient id="SVGID_91_" gradientUnits="userSpaceOnUse" x1="280.4" y1="-293.3" x2="314.1" y2="-293.3" gradientTransform="matrix(1 0 0 -1 0 -184)">
		<stop  offset="0.1499" style="stop-color:#FF9800"/>
		<stop  offset="1" style="stop-color:#FFC107"/>
	</linearGradient>
	<path class="st92" d="M314.1,93.1v13l-33.7,19.4v-13L314.1,93.1z"/>
	
		<linearGradient id="SVGID_92_" gradientUnits="userSpaceOnUse" x1="280.4" y1="-293.7" x2="314.1" y2="-293.7" gradientTransform="matrix(1 0 0 -1 0 -184)">
		<stop  offset="0.1499" style="stop-color:#FF9800"/>
		<stop  offset="1" style="stop-color:#FFC107"/>
	</linearGradient>
	<path class="st93" d="M314.1,93.8v12.4l-33.7,19.4v-12.3L314.1,93.8z"/>
	
		<linearGradient id="SVGID_93_" gradientUnits="userSpaceOnUse" x1="280.4" y1="-294.05" x2="314.1" y2="-294.05" gradientTransform="matrix(1 0 0 -1 0 -184)">
		<stop  offset="0.1499" style="stop-color:#FF9800"/>
		<stop  offset="1" style="stop-color:#FFC107"/>
	</linearGradient>
	<path class="st94" d="M314.1,94.5v11.7l-33.7,19.4v-11.7L314.1,94.5z"/>
	
		<linearGradient id="SVGID_94_" gradientUnits="userSpaceOnUse" x1="280.4" y1="-294.4" x2="314.1" y2="-294.4" gradientTransform="matrix(1 0 0 -1 0 -184)">
		<stop  offset="0.1499" style="stop-color:#FF9800"/>
		<stop  offset="1" style="stop-color:#FFC107"/>
	</linearGradient>
	<path class="st95" d="M314.1,95.2v11l-33.7,19.4v-11L314.1,95.2z"/>
	
		<linearGradient id="SVGID_95_" gradientUnits="userSpaceOnUse" x1="280.4" y1="-294.65" x2="314.1" y2="-294.65" gradientTransform="matrix(1 0 0 -1 0 -184)">
		<stop  offset="0.1499" style="stop-color:#FF9800"/>
		<stop  offset="1" style="stop-color:#FFC107"/>
	</linearGradient>
	<path class="st96" d="M314.1,95.8v10.3l-33.7,19.4v-10.3L314.1,95.8z"/>
	
		<linearGradient id="SVGID_96_" gradientUnits="userSpaceOnUse" x1="280.4" y1="-295.05" x2="314.1" y2="-295.05" gradientTransform="matrix(1 0 0 -1 0 -184)">
		<stop  offset="0.1499" style="stop-color:#FF9800"/>
		<stop  offset="1" style="stop-color:#FFC107"/>
	</linearGradient>
	<path class="st97" d="M314.1,96.5v9.7l-33.7,19.4V116L314.1,96.5z"/>
	
		<linearGradient id="SVGID_97_" gradientUnits="userSpaceOnUse" x1="280.4" y1="-295.4" x2="314.1" y2="-295.4" gradientTransform="matrix(1 0 0 -1 0 -184)">
		<stop  offset="0.1499" style="stop-color:#FF9800"/>
		<stop  offset="1" style="stop-color:#FFC107"/>
	</linearGradient>
	<path class="st98" d="M314.1,97.2v9l-33.7,19.4v-8.9L314.1,97.2z"/>
	
		<linearGradient id="SVGID_98_" gradientUnits="userSpaceOnUse" x1="280.4" y1="-295.75" x2="314.1" y2="-295.75" gradientTransform="matrix(1 0 0 -1 0 -184)">
		<stop  offset="0.1499" style="stop-color:#FF9800"/>
		<stop  offset="1" style="stop-color:#FFC107"/>
	</linearGradient>
	<path class="st99" d="M314.1,97.9v8.3l-33.7,19.4v-8.3L314.1,97.9z"/>
	
		<linearGradient id="SVGID_99_" gradientUnits="userSpaceOnUse" x1="280.4" y1="-296.1" x2="314.1" y2="-296.1" gradientTransform="matrix(1 0 0 -1 0 -184)">
		<stop  offset="0.1499" style="stop-color:#FF9800"/>
		<stop  offset="1" style="stop-color:#FFC107"/>
	</linearGradient>
	<path class="st100" d="M314.1,98.6v7.6l-33.7,19.4V118L314.1,98.6z"/>
	
		<linearGradient id="SVGID_100_" gradientUnits="userSpaceOnUse" x1="280.4" y1="-296.35" x2="314.1" y2="-296.35" gradientTransform="matrix(1 0 0 -1 0 -184)">
		<stop  offset="0.1499" style="stop-color:#FF9800"/>
		<stop  offset="1" style="stop-color:#FFC107"/>
	</linearGradient>
	<path class="st101" d="M314.1,99.2v6.9l-33.7,19.4v-6.9L314.1,99.2z"/>
	
		<linearGradient id="SVGID_101_" gradientUnits="userSpaceOnUse" x1="280.4" y1="-296.75" x2="314.1" y2="-296.75" gradientTransform="matrix(1 0 0 -1 0 -184)">
		<stop  offset="0.1499" style="stop-color:#FF9800"/>
		<stop  offset="1" style="stop-color:#FFC107"/>
	</linearGradient>
	<path class="st102" d="M314.1,99.9v6.3l-33.7,19.4v-6.2L314.1,99.9z"/>
	
		<linearGradient id="SVGID_102_" gradientUnits="userSpaceOnUse" x1="280.4" y1="-297.1" x2="314.1" y2="-297.1" gradientTransform="matrix(1 0 0 -1 0 -184)">
		<stop  offset="0.1499" style="stop-color:#FF9800"/>
		<stop  offset="1" style="stop-color:#FFC107"/>
	</linearGradient>
	<path class="st103" d="M314.1,100.6v5.6l-33.7,19.4V120L314.1,100.6z"/>
	
		<linearGradient id="SVGID_103_" gradientUnits="userSpaceOnUse" x1="280.4" y1="-297.45" x2="314.1" y2="-297.45" gradientTransform="matrix(1 0 0 -1 0 -184)">
		<stop  offset="0.1499" style="stop-color:#FF9800"/>
		<stop  offset="1" style="stop-color:#FFC107"/>
	</linearGradient>
	<path class="st104" d="M314.1,101.3v4.9l-33.7,19.4v-4.9L314.1,101.3z"/>
	
		<linearGradient id="SVGID_104_" gradientUnits="userSpaceOnUse" x1="280.4" y1="-297.7" x2="314.1" y2="-297.7" gradientTransform="matrix(1 0 0 -1 0 -184)">
		<stop  offset="0.1499" style="stop-color:#FF9800"/>
		<stop  offset="1" style="stop-color:#FFC107"/>
	</linearGradient>
	<path class="st105" d="M314.1,101.9v4.2l-33.7,19.4v-4.2L314.1,101.9z"/>
</g>
<linearGradient id="SVGID_105_" gradientUnits="userSpaceOnUse" x1="238.9" y1="-263.7" x2="322.1" y2="-263.7" gradientTransform="matrix(1 0 0 -1 0 -184)">
	<stop  offset="0" style="stop-color:#3C5185"/>
	<stop  offset="0.2141" style="stop-color:#455D94"/>
	<stop  offset="0.7172" style="stop-color:#5674B3"/>
	<stop  offset="1" style="stop-color:#5D7DBE"/>
</linearGradient>
<path class="st106" d="M287.2,57.3c-3.7-2.1-9.6-2.1-13.3,0l-35,11.7v8.1c0,2.5,1.3,4.8,3.4,6.1l31.5,18.9c3.7,2.1,9.6,2.1,13.3,0
	l31.4-17.9c2.2-1.3,3.6-3.6,3.6-6.2v-9L287.2,57.3z"/>
<path class="st0" d="M287.2,46.6c-3.7-2.1-9.6-2.1-13.3,0l-32.2,18.6c-3.7,2.1-3.7,5.5,0,7.7l32.2,18.6c3.7,2.1,9.6,2.1,13.3,0
	l32.2-18.6c3.7-2.1,3.7-5.5,0-7.7L287.2,46.6z"/>
<linearGradient id="SVGID_106_" gradientUnits="userSpaceOnUse" x1="239" y1="-307.0875" x2="322.2" y2="-307.0875" gradientTransform="matrix(1 0 0 -1 0 -184)">
	<stop  offset="0" style="stop-color:#3C5185"/>
	<stop  offset="0.2141" style="stop-color:#455D94"/>
	<stop  offset="0.7172" style="stop-color:#5674B3"/>
	<stop  offset="1" style="stop-color:#5D7DBE"/>
</linearGradient>
<path class="st107" d="M319.4,109.6l-32.2,18.6c-3.7,2.1-9.6,2.1-13.3,0l-32.2-18.6c-1.8-1.1-2.7-2.5-2.7-3.8v8.1
	c0,2.5,1.3,4.8,3.4,6.1l31.5,18.9c3.7,2.1,9.6,2.1,13.3,0l31.4-17.9c2.2-1.3,3.6-3.6,3.6-6.2v-9.1
	C322.1,107.1,321.2,108.5,319.4,109.6z"/>
</svg>
