<?xml version="1.0" encoding="utf-8"?>
<!-- Generator: Adobe Illustrator 24.0.1, SVG Export Plug-In . SVG Version: 6.00 Build 0)  -->
<svg version="1.1" id="Layer_1" xmlns="http://www.w3.org/2000/svg" xmlns:xlink="http://www.w3.org/1999/xlink" x="0px" y="0px"
	 viewBox="0 0 422 447" style="enable-background:new 0 0 422 447;" xml:space="preserve">
<style type="text/css">
	.st0{fill:#DBEAF9;}
	.st1{opacity:0.5366;fill:#7EA7DF;enable-background:new    ;}
	.st2{fill:#FFFFFF;}
	.st3{fill:#3C5185;}
</style>
<path class="st0" d="M347.6,229c-0.5,0-0.9-0.4-0.9-0.9V223c0-0.5,0.4-0.9,0.9-0.9s0.9,0.4,0.9,0.9v5.2
	C348.5,228.6,348,229,347.6,229z"/>
<path class="st0" d="M345.3,227.7c-0.3,0-0.6-0.2-0.8-0.4c-0.3-0.4-0.1-1,0.3-1.2l4.4-2.5c0.4-0.3,1-0.1,1.2,0.3
	c0.3,0.4,0.1,1-0.3,1.2l-4.4,2.5C345.6,227.7,345.5,227.7,345.3,227.7z"/>
<path class="st1" d="M388.8,198.5l-20.4-11.8c-1.7-1-3.1-0.2-3.1,1.8v23c0,2,1.4,4.4,3.1,5.4l20.5,12.2c1.7,1,3.1,0.2,3.1-1.8v-23.5
	C391.9,202,390.5,199.5,388.8,198.5z"/>
<path class="st1" d="M382.6,203.5l-24.8-14.3c-2.1-1.2-3.8-0.2-3.8,2.2v28c0,2.4,1.7,5.4,3.8,6.6l24.9,14.8c2.1,1.2,3.8,0.3,3.8-2.1
	V210C386.4,207.6,384.7,204.7,382.6,203.5z"/>
<path class="st2" d="M344.2,199.7c0-2.4,1.7-3.4,3.8-2.2l24.8,14.3c2.1,1.2,3.8,4.2,3.8,6.5V247c0,2.4-1.7,3.4-3.8,2.1L348,234.3
	c-2.1-1.2-3.8-4.2-3.8-6.6V199.7L344.2,199.7z"/>
<path class="st3" d="M346.8,201.5c0-0.4,0.3-0.5,0.6-0.3l3.9,2.2c0.3,0.2,0.6,0.6,0.6,1v4.5c0,0.4-0.3,0.5-0.6,0.3l-3.9-2.3
	c-0.3-0.2-0.6-0.6-0.6-1V201.5z"/>
<path class="st3" d="M368.8,238.3c0-0.4,0.3-0.5,0.6-0.3l3.9,2.2c0.3,0.2,0.6,0.6,0.6,1v4.5c0,0.4-0.3,0.5-0.6,0.3l-3.9-2.3
	c-0.3-0.2-0.6-0.6-0.6-1V238.3z"/>
<path class="st3" d="M368.8,215.1c0-0.4,0.3-0.5,0.6-0.3l3.9,2.2c0.3,0.2,0.6,0.6,0.6,1v4.5c0,0.4-0.3,0.5-0.6,0.3l-3.9-2.3
	c-0.3-0.2-0.6-0.6-0.6-1V215.1z"/>
<path class="st3" d="M346.8,225.2c0-0.4,0.3-0.5,0.6-0.3l3.9,2.2c0.3,0.2,0.6,0.6,0.6,1v4.5c0,0.4-0.3,0.5-0.6,0.3l-3.9-2.3
	c-0.3-0.2-0.6-0.6-0.6-1V225.2z"/>
<path class="st3" d="M367.5,215.6l-14.5-8.4v-1.8l14.5,8.3V215.6z"/>
<path class="st3" d="M362.9,214.8l-9.9-5.7v-1.9l9.9,5.8V214.8z"/>
<path class="st3" d="M374,225.9l-16-9.2v-1.8l16,9.2V225.9z"/>
<path class="st3" d="M357.4,216.4l-10.8-6.2v-1.9l10.8,6.2V216.4z"/>
<path class="st3" d="M352.6,215.6l-1.9-1.1v-1.9l1.9,1.1V215.6z"/>
<path class="st3" d="M354.6,216.8l-1.6-1v-1.9l1.6,0.9V216.8z"/>
<path class="st3" d="M366,225.2l-19.4-11.1v-1.9l19.4,11.1V225.2z"/>
<path class="st3" d="M374,231.9l-5.4-3.1v-1.9l5.4,3.1V231.9z"/>
<path class="st3" d="M368.2,228.5l-12.8-7.4v-1.9l12.8,7.4V228.5z"/>
<path class="st3" d="M364.3,228.3L346.6,218v-1.9l17.7,10.2L364.3,228.3L364.3,228.3z"/>
<path class="st3" d="M362.2,229l-2.5-1.5v-1.8l2.5,1.4V229z"/>
<path class="st3" d="M374,235.8l-11.4-6.6v-1.8l11.4,6.5V235.8z"/>
<path class="st3" d="M374,237.8L351.8,225v-1.9l22.2,12.7V237.8z"/>
<path class="st3" d="M374,239.8l-17.5-10V228l17.5,9.9V239.8z"/>
<path class="st3" d="M356.1,229.4l-9.5-5.5V222l9.5,5.4V229.4z"/>
<path class="st3" d="M363.3,235.5l-9-5.1v-1.9l9,5.1V235.5z"/>
<path class="st3" d="M367.9,240.2l-9.5-5.4v-1.9l9.5,5.4V240.2z"/>
<path class="st3" d="M362.6,239.2l-9.2-5.3V232l9.2,5.2V239.2z"/>
</svg>
