<?xml version="1.0" encoding="utf-8"?>
<!-- Generator: Adobe Illustrator 24.0.1, SVG Export Plug-In . SVG Version: 6.00 Build 0)  -->
<svg version="1.1" id="Layer_1" xmlns="http://www.w3.org/2000/svg" xmlns:xlink="http://www.w3.org/1999/xlink" x="0px" y="0px"
	 viewBox="0 0 422 447" style="enable-background:new 0 0 422 447;" xml:space="preserve">
<style type="text/css">
	.st0{fill:url(#SVGID_1_);}
	.st1{fill:#FFC166;}
	.st2{fill:url(#SVGID_2_);}
	.st3{fill:#FFAD33;}
	.st4{fill:url(#SVGID_3_);}
	.st5{fill-rule:evenodd;clip-rule:evenodd;fill:#BF7200;}
</style>
<linearGradient id="SVGID_1_" gradientUnits="userSpaceOnUse" x1="178.991" y1="-375.9388" x2="240.516" y2="-375.9388" gradientTransform="matrix(1 0 0 -1 0 -184)">
	<stop  offset="0" style="stop-color:#FFC107"/>
	<stop  offset="0.8501" style="stop-color:#FF9800"/>
</linearGradient>
<path class="st0" d="M240.5,208.9c0-19.5-13.8-43.4-30.7-53.2c-6.6-3.8-12.8-4.9-17.8-3.6l0,0l-7.7,1.9l0.9,2
	c-3.8,3.7-6.1,9.7-6.1,17.5c0,19.5,13.8,43.4,30.7,53.2c3.2,1.8,6.2,3,9,3.6l0.9,2l6.5-1.7c1.1-0.2,2.2-0.4,3.2-0.8h0.1l0,0
	C236.2,227,240.5,219.7,240.5,208.9z"/>
<path class="st1" d="M205.5,153.6c-1.7-0.7-3.4-1.3-5.1-1.6l-20,11.7c-0.5,1.6-0.9,3.3-1.1,5.2L205.5,153.6z"/>
<path class="st1" d="M213.1,157.8c-1.1-0.8-2.2-1.5-3.3-2.1c-0.1-0.1-0.3-0.1-0.4-0.2l-23.9,14l0.1,4.5L213.1,157.8z"/>
<path class="st1" d="M192.4,178.6l26.8-15.7c-1-0.9-2-1.9-3.1-2.7l-23.9,14L192.4,178.6z"/>
<path class="st1" d="M226.7,171.3l-20.6,12.1l0.1,4.5l22.8-13.4C228.2,173.4,227.5,172.4,226.7,171.3z"/>
<path class="st1" d="M239.9,215.3l-24.3,14c1.1,0.4,2.1,0.7,3.1,0.9l0.6,1.4l18.8-10.9C239,219.1,239.5,217.3,239.9,215.3z"/>
<path class="st1" d="M193.9,151.7c-0.7,0.1-1.3,0.2-2,0.4l0,0l-7.7,1.9l0.9,2c-0.6,0.6-1.1,1.3-1.7,1.9L193.9,151.7z"/>
<path class="st1" d="M218.7,202.3l0.1,4.5l19.7-11.6c-0.4-1.3-0.8-2.6-1.2-3.8L218.7,202.3z"/>
<path class="st1" d="M217.7,211.2l0.1,4.5l22.2-13c-0.2-1.4-0.4-2.7-0.7-4.1L217.7,211.2z"/>
<path class="st1" d="M221.8,165.5l-22.7,13.3l0.1,4.5l25.2-14.8C223.6,167.5,222.7,166.5,221.8,165.5z"/>
<path class="st1" d="M219.8,192.7l0.1,4.5l16.1-9.4c-0.5-1.2-1-2.4-1.6-3.6L219.8,192.7z"/>
<path class="st1" d="M214.9,226l25.5-14.9c0.1-0.7,0.1-1.5,0.1-2.2c0-0.8-0.1-1.5-0.1-2.3l-25.6,14.9L214.9,226z"/>
<path class="st1" d="M232.8,181c-0.6-1.1-1.3-2.3-1.9-3.4L213,188.1l0.1,4.5L232.8,181z"/>
<linearGradient id="SVGID_2_" gradientUnits="userSpaceOnUse" x1="171.7" y1="-376.95" x2="233.197" y2="-376.95" gradientTransform="matrix(1 0 0 -1 0 -184)">
	<stop  offset="0.1499" style="stop-color:#FF9800"/>
	<stop  offset="1" style="stop-color:#FFC107"/>
</linearGradient>
<path class="st2" d="M202.4,157.5c-16.9-9.8-30.7-1.8-30.7,17.7s13.8,43.4,30.7,53.2c16.9,9.8,30.7,1.8,30.7-17.7
	S219.3,167.3,202.4,157.5z"/>
<path class="st3" d="M202.4,161.7c-14.9-8.6-27.1-1.6-27.1,15.7c0,17.2,12.2,38.3,27.1,47c14.9,8.6,27.1,1.6,27.1-15.7
	S217.4,170.3,202.4,161.7z"/>
<linearGradient id="SVGID_3_" gradientUnits="userSpaceOnUse" x1="177.4" y1="-376.95" x2="227.457" y2="-376.95" gradientTransform="matrix(1 0 0 -1 0 -184)">
	<stop  offset="0.1499" style="stop-color:#FF9800"/>
	<stop  offset="1" style="stop-color:#FFC107"/>
</linearGradient>
<path class="st4" d="M202.4,164.1c-13.8-7.9-25-1.4-25,14.4c0,15.9,11.3,35.4,25,43.3c13.8,7.9,25,1.4,25-14.4
	S216.2,172,202.4,164.1z"/>
<path class="st5" d="M209.5,197.6l-1.4-0.8c0.9-0.9,1.3-2.1,1.3-3.4v-4.8c0-2.8-1.5-5.4-4-6.8l-2.2-1.3V176l-3.9-2.2v4.5l-1.6-0.9
	v-4.3l-3.9-2.4v4.3l-2.5-1.4v4.7l2.4,1.4v8.9l-2.5-1.4v4.5l2.5,1.4v8.8l-2.5-1.4v4.7l2.5,1.4v3.5l3.9,2.2v-3.5l1.6,0.9v3.3l3.9,2.3
	V212l2.7,1.6c0.8,0.4,1.6,0.7,2.5,0.7s1.7-0.2,2.5-0.7c1.6-0.9,2.5-2.5,2.5-4.3v-4.8C213.5,201.6,211.9,199,209.5,197.6z
	 M197.8,181.9l5.7,3.3c1.2,0.7,2,2,2,3.4v4.8c0,0.5-0.4,0.8-0.5,0.9c-0.2,0.1-0.6,0.3-1,0l-6.2-3.6V181.9z M209,210.1
	c0.2-0.1,0.5-0.4,0.5-0.9v-4.9c0-1.4-0.8-2.7-2-3.3l-9.8-5.5v8.6l10.2,6C208.5,210.4,208.8,210.2,209,210.1z"/>
</svg>
