<?xml version="1.0" encoding="utf-8"?>
<!-- Generator: Adobe Illustrator 24.0.1, SVG Export Plug-In . SVG Version: 6.00 Build 0)  -->
<svg version="1.1" id="Layer_1" xmlns="http://www.w3.org/2000/svg" xmlns:xlink="http://www.w3.org/1999/xlink" x="0px" y="0px"
	 viewBox="0 0 422 447" style="enable-background:new 0 0 422 447;" xml:space="preserve">
<style type="text/css">
	.st0{opacity:0.7;}
	.st1{opacity:1.000000e-02;fill:#3C5185;enable-background:new    ;}
	.st2{opacity:2.440000e-02;fill:#3C5185;enable-background:new    ;}
	.st3{opacity:4.880000e-02;fill:#3C5185;enable-background:new    ;}
	.st4{opacity:7.320000e-02;fill:#3C5185;enable-background:new    ;}
	.st5{opacity:9.760000e-02;fill:#3C5185;enable-background:new    ;}
	.st6{opacity:0.122;fill:#3C5185;enable-background:new    ;}
	.st7{opacity:0.1463;fill:#3C5185;enable-background:new    ;}
	.st8{opacity:0.1707;fill:#3C5185;enable-background:new    ;}
	.st9{opacity:0.1951;fill:#3C5185;enable-background:new    ;}
	.st10{opacity:0.2195;fill:#3C5185;enable-background:new    ;}
	.st11{opacity:0.2439;fill:#3C5185;enable-background:new    ;}
	.st12{opacity:0.2683;fill:#3C5185;enable-background:new    ;}
	.st13{opacity:0.2927;fill:#3C5185;enable-background:new    ;}
	.st14{opacity:0.3171;fill:#3C5185;enable-background:new    ;}
	.st15{opacity:0.3415;fill:#3C5185;enable-background:new    ;}
	.st16{opacity:0.3659;fill:#3C5185;enable-background:new    ;}
	.st17{opacity:0.3902;fill:#3C5185;enable-background:new    ;}
	.st18{opacity:0.4146;fill:#3C5185;enable-background:new    ;}
	.st19{opacity:0.439;fill:#3C5185;enable-background:new    ;}
	.st20{opacity:0.4634;fill:#3C5185;enable-background:new    ;}
	.st21{opacity:0.4878;fill:#3C5185;enable-background:new    ;}
	.st22{opacity:0.5122;fill:#3C5185;enable-background:new    ;}
	.st23{opacity:0.5366;fill:#3C5185;enable-background:new    ;}
	.st24{opacity:0.561;fill:#3C5185;enable-background:new    ;}
	.st25{opacity:0.5854;fill:#3C5185;enable-background:new    ;}
	.st26{opacity:0.6098;fill:#3C5185;enable-background:new    ;}
	.st27{opacity:0.6341;fill:#3C5185;enable-background:new    ;}
	.st28{opacity:0.6585;fill:#3C5185;enable-background:new    ;}
	.st29{opacity:0.6829;fill:#3C5185;enable-background:new    ;}
	.st30{opacity:0.7073;fill:#3C5185;enable-background:new    ;}
	.st31{opacity:0.7317;fill:#3C5185;enable-background:new    ;}
	.st32{opacity:0.7561;fill:#3C5185;enable-background:new    ;}
	.st33{opacity:0.7805;fill:#3C5185;enable-background:new    ;}
	.st34{opacity:0.8049;fill:#3C5185;enable-background:new    ;}
	.st35{opacity:0.8293;fill:#3C5185;enable-background:new    ;}
	.st36{opacity:0.8537;fill:#3C5185;enable-background:new    ;}
	.st37{opacity:0.878;fill:#3C5185;enable-background:new    ;}
	.st38{opacity:0.9024;fill:#3C5185;enable-background:new    ;}
	.st39{opacity:0.9268;fill:#3C5185;enable-background:new    ;}
	.st40{opacity:0.9512;fill:#3C5185;enable-background:new    ;}
	.st41{opacity:0.9756;fill:#3C5185;enable-background:new    ;}
	.st42{fill:#3C5185;}
	.st43{fill:url(#SVGID_1_);}
	.st44{fill:#EDF3FA;}
	.st45{fill:url(#SVGID_2_);}
	.st46{fill:#FFFFFF;}
	.st47{fill:#D1E1F2;}
	.st48{opacity:0.3;fill-rule:evenodd;clip-rule:evenodd;fill:#3C5185;enable-background:new    ;}
	.st49{fill-rule:evenodd;clip-rule:evenodd;fill:url(#SVGID_3_);}
	.st50{fill-rule:evenodd;clip-rule:evenodd;fill:url(#SVGID_4_);}
	.st51{fill-rule:evenodd;clip-rule:evenodd;fill:url(#SVGID_5_);}
</style>
<g class="st0">
	<path class="st1" d="M59.8,297.2l-35.4,20.2c-0.8,0.4-0.8,1.5,0,2l55.1,31.7c1.4,0.8,3.1,0.8,4.5,0l35.4-20.2c0.8-0.4,0.8-1.5,0-2
		l-55.1-31.7C63,296.5,61.2,296.4,59.8,297.2z"/>
	<path class="st2" d="M59.9,297.3l-35.2,20.1c-0.8,0.4-0.8,1.5,0,2L79.5,351c1.4,0.8,3.1,0.8,4.5,0l35.2-20.1c0.8-0.4,0.8-1.5,0-2
		l-54.9-31.7C63,296.5,61.3,296.5,59.9,297.3z"/>
	<path class="st3" d="M59.9,297.3l-35.2,20.1c-0.8,0.4-0.8,1.5,0,2l54.7,31.5c1.4,0.8,3.1,0.8,4.5,0l35.2-20.1c0.8-0.4,0.8-1.5,0-2
		l-54.7-31.5C63,296.5,61.3,296.5,59.9,297.3z"/>
	<path class="st4" d="M60,297.3l-35,20c-0.8,0.4-0.8,1.5,0,2l54.5,31.5c1.4,0.8,3.1,0.8,4.5,0l35-20c0.8-0.4,0.8-1.5,0-2l-54.5-31.5
		C63.1,296.5,61.4,296.5,60,297.3z"/>
	<path class="st5" d="M60,297.4l-34.9,20c-0.8,0.4-0.8,1.5,0,2l54.4,31.4c1.4,0.8,3.1,0.8,4.5,0l34.9-20c0.8-0.4,0.8-1.5,0-2
		l-54.4-31.3C63.1,296.6,61.4,296.6,60,297.4z"/>
	<path class="st6" d="M60,297.4l-34.8,19.9c-0.8,0.4-0.8,1.5,0,2l54.2,31.3c1.4,0.8,3.1,0.8,4.5,0l34.8-19.9c0.8-0.4,0.8-1.5,0-2
		l-54.2-31.3C63.1,296.6,61.4,296.6,60,297.4z"/>
	<path class="st7" d="M60.1,297.4l-34.7,19.8c-0.8,0.4-0.8,1.5,0,2l54,31.2c1.4,0.8,3.1,0.8,4.5,0l34.7-19.8c0.8-0.4,0.8-1.5,0-2
		l-54-31.2C63.1,296.6,61.4,296.6,60.1,297.4z"/>
	<path class="st8" d="M60.1,297.5l-34.6,19.8c-0.8,0.4-0.8,1.5,0,2l53.9,31.1c1.4,0.8,3.1,0.8,4.4,0l34.6-19.8
		c0.8-0.4,0.8-1.5,0-1.9l-53.9-31.1C63.2,296.7,61.5,296.7,60.1,297.5z"/>
	<path class="st9" d="M60.1,297.5l-34.5,19.7c-0.8,0.4-0.8,1.5,0,2l53.7,31c1.4,0.8,3.1,0.8,4.4,0l34.5-19.7c0.8-0.4,0.8-1.5,0-2
		l-53.7-31C63.2,296.7,61.5,296.7,60.1,297.5z"/>
	<path class="st10" d="M60.2,297.5l-34.4,19.6c-0.8,0.4-0.8,1.5,0,1.9l53.5,31c1.4,0.8,3,0.8,4.4,0l34.4-19.6c0.8-0.4,0.8-1.5,0-1.9
		l-53.5-30.9C63.2,296.8,61.5,296.8,60.2,297.5z"/>
	<path class="st11" d="M60.2,297.6l-34.3,19.6c-0.8,0.4-0.8,1.5,0,1.9l53.4,30.8c1.4,0.8,3,0.8,4.4,0l34.3-19.6
		c0.8-0.4,0.8-1.5,0-1.9l-53.4-30.8C63.2,296.8,61.6,296.8,60.2,297.6z"/>
	<path class="st12" d="M60.2,297.6L26,317.1c-0.8,0.4-0.8,1.5,0,1.9l53.2,30.7c1.4,0.8,3,0.8,4.4,0l34.2-19.5c0.8-0.4,0.8-1.5,0-1.9
		l-53.2-30.7C63.3,296.8,61.6,296.8,60.2,297.6z"/>
	<path class="st13" d="M60.3,297.6L26.2,317c-0.8,0.4-0.8,1.5,0,1.9l53,30.6c1.4,0.8,3,0.8,4.4,0l34.1-19.5c0.8-0.4,0.8-1.5,0-1.9
		l-53-30.6C63.3,296.9,61.6,296.9,60.3,297.6z"/>
	<path class="st14" d="M60.3,297.7l-34,19.4c-0.7,0.4-0.8,1.5,0,1.9l52.9,30.5c1.3,0.8,3,0.8,4.4,0l34-19.4c0.7-0.4,0.8-1.5,0-1.9
		l-52.9-30.5C63.3,296.9,61.7,296.9,60.3,297.7z"/>
	<path class="st15" d="M60.3,297.7L26.5,317c-0.7,0.4-0.7,1.5,0,1.9l52.7,30.4c1.3,0.8,3,0.8,4.4,0l33.8-19.3c0.7-0.4,0.7-1.5,0-1.9
		l-52.7-30.4C63.4,296.9,61.7,296.9,60.3,297.7z"/>
	<path class="st16" d="M60.4,297.7L26.6,317c-0.7,0.4-0.7,1.5,0,1.9l52.5,30.3c1.3,0.8,3,0.8,4.3,0l33.7-19.3c0.7-0.4,0.7-1.5,0-1.9
		l-52.5-30.3C63.4,297,61.7,297,60.4,297.7z"/>
	<path class="st17" d="M60.4,297.8L26.8,317c-0.7,0.4-0.7,1.5,0,1.9l52.4,30.2c1.3,0.8,3,0.8,4.3,0l33.7-19.2c0.7-0.4,0.7-1.5,0-1.9
		l-52.4-30.2C63.4,297,61.8,297,60.4,297.8z"/>
	<path class="st18" d="M60.5,297.8L27,316.9c-0.7,0.4-0.7,1.5,0,1.9l52.2,30.1c1.3,0.8,3,0.8,4.3,0l33.5-19.1c0.7-0.4,0.7-1.5,0-1.9
		l-52.2-30.1C63.4,297,61.8,297,60.5,297.8z"/>
	<path class="st19" d="M60.5,297.8l-33.4,19.1c-0.7,0.4-0.7,1.4,0,1.9l52,30c1.3,0.8,3,0.8,4.3,0l33.4-19.1c0.7-0.4,0.7-1.4,0-1.9
		l-52-30C63.5,297.1,61.8,297.1,60.5,297.8z"/>
	<path class="st20" d="M60.5,297.9l-33.3,19c-0.7,0.4-0.7,1.4,0,1.9l51.9,29.9c1.3,0.8,3,0.8,4.3,0l33.3-19c0.7-0.4,0.7-1.4,0-1.9
		l-51.9-29.9C63.5,297.1,61.9,297.1,60.5,297.9z"/>
	<path class="st21" d="M60.6,297.9l-33.2,18.9c-0.7,0.4-0.7,1.4,0,1.9l51.7,29.8c1.3,0.8,3,0.8,4.3,0l33.2-18.9
		c0.7-0.4,0.7-1.4,0-1.9l-51.7-29.8C63.5,297.2,61.9,297.2,60.6,297.9z"/>
	<path class="st22" d="M60.6,297.9l-33.1,18.9c-0.7,0.4-0.7,1.4,0,1.9L79,348.4c1.3,0.8,2.9,0.8,4.2,0l33.1-18.9
		c0.7-0.4,0.7-1.4,0-1.9l-51.5-29.7C63.6,297.2,61.9,297.2,60.6,297.9z"/>
	<path class="st23" d="M60.7,298l-33,18.8c-0.7,0.4-0.7,1.4,0,1.9L79,348.3c1.3,0.8,2.9,0.8,4.2,0l33-18.8c0.7-0.4,0.7-1.4,0-1.9
		L64.9,298C63.6,297.2,62,297.2,60.7,298z"/>
	<path class="st24" d="M60.7,298l-32.9,18.8c-0.7,0.4-0.7,1.4,0,1.8L79,348.1c1.3,0.8,2.9,0.8,4.2,0l32.9-18.8
		c0.7-0.4,0.7-1.4,0-1.8L64.9,298C63.6,297.3,62,297.2,60.7,298z"/>
	<path class="st25" d="M60.7,298l-32.8,18.7c-0.7,0.4-0.7,1.4,0,1.8L79,348c1.3,0.8,2.9,0.8,4.2,0l32.8-18.7c0.7-0.4,0.7-1.4,0-1.8
		l-51-29.4C63.6,297.3,62,297.3,60.7,298z"/>
	<path class="st26" d="M60.8,298.1l-32.7,18.6c-0.7,0.4-0.7,1.4,0,1.8L79,347.9c1.3,0.8,2.9,0.8,4.2,0l32.7-18.6
		c0.7-0.4,0.7-1.4,0-1.8L65,298.1C63.7,297.3,62,297.3,60.8,298.1z"/>
	<path class="st27" d="M60.8,298.1l-32.6,18.6c-0.7,0.4-0.7,1.4,0,1.8l50.7,29.2c1.3,0.8,2.9,0.8,4.2,0l32.6-18.6
		c0.7-0.4,0.7-1.4,0-1.8L65,298.1C63.7,297.3,62.1,297.3,60.8,298.1z"/>
	<path class="st28" d="M60.8,298.1l-32.5,18.5c-0.7,0.4-0.7,1.4,0,1.8l50.5,29.1c1.3,0.8,2.9,0.8,4.2,0l32.4-18.5
		c0.7-0.4,0.7-1.4,0-1.8L65,298.1C63.7,297.4,62.1,297.4,60.8,298.1z"/>
	<path class="st29" d="M60.9,298.2l-32.3,18.5c-0.7,0.4-0.7,1.4,0,1.8l50.4,29c1.3,0.8,2.9,0.8,4.2,0l32.3-18.5
		c0.7-0.4,0.7-1.4,0-1.8l-50.4-29C63.8,297.4,62.2,297.4,60.9,298.2z"/>
	<path class="st30" d="M60.9,298.2l-32.2,18.4c-0.7,0.4-0.7,1.4,0,1.8l50.2,29c1.3,0.8,2.8,0.8,4.2,0l32.2-18.4
		c0.7-0.4,0.7-1.4,0-1.8l-50.2-29C63.8,297.5,62.2,297.5,60.9,298.2z"/>
	<path class="st31" d="M60.9,298.2l-32.1,18.3c-0.7,0.4-0.7,1.4,0,1.8l50,28.8c1.3,0.7,2.8,0.8,4.1,0l32.1-18.3
		c0.7-0.4,0.7-1.4,0-1.8l-50-28.8C63.8,297.5,62.2,297.5,60.9,298.2z"/>
	<path class="st32" d="M61,298.3l-32,18.3c-0.7,0.4-0.7,1.4,0,1.8l49.9,28.8c1.3,0.7,2.8,0.7,4.1,0l32-18.3c0.7-0.4,0.7-1.4,0-1.8
		l-49.9-28.8C63.8,297.5,62.2,297.5,61,298.3z"/>
	<path class="st33" d="M61,298.3l-31.9,18.2c-0.7,0.4-0.7,1.4,0,1.8l49.7,28.6c1.3,0.7,2.8,0.7,4.1,0l31.9-18.2
		c0.7-0.4,0.7-1.4,0-1.8l-49.7-28.6C63.8,297.6,62.3,297.6,61,298.3z"/>
	<path class="st34" d="M61,298.3l-31.8,18.2c-0.7,0.4-0.7,1.4,0,1.8l49.5,28.6c1.3,0.7,2.8,0.7,4.1,0l31.8-18.2
		c0.7-0.4,0.7-1.4,0-1.8l-49.5-28.6C63.9,297.6,62.3,297.6,61,298.3z"/>
	<path class="st35" d="M61.1,298.4l-31.7,18.1c-0.7,0.4-0.7,1.4,0,1.8l49.4,28.5c1.3,0.7,2.8,0.7,4.1,0l31.7-18.1
		c0.7-0.4,0.7-1.4,0-1.8l-49.4-28.5C63.9,297.7,62.4,297.6,61.1,298.4z"/>
	<path class="st36" d="M61.1,298.4l-31.6,18c-0.7,0.4-0.7,1.4,0,1.8l49.2,28.4c1.3,0.7,2.8,0.7,4.1,0l31.6-18c0.7-0.4,0.7-1.4,0-1.8
		l-49.2-28.4C63.9,297.7,62.4,297.7,61.1,298.4z"/>
	<path class="st37" d="M61.2,298.4l-31.5,18c-0.7,0.4-0.7,1.4,0,1.8l49,28.3c1.3,0.7,2.8,0.7,4,0l31.5-18c0.7-0.4,0.7-1.4,0-1.8
		l-49-28.3C63.9,297.7,62.4,297.7,61.2,298.4z"/>
	<path class="st38" d="M61.2,298.5l-31.4,17.9c-0.7,0.4-0.7,1.4,0,1.8l48.9,28.2c1.3,0.7,2.8,0.7,4,0l31.4-17.9
		c0.7-0.4,0.7-1.4,0-1.8l-48.9-28.2C64,297.7,62.4,297.7,61.2,298.5z"/>
	<path class="st39" d="M61.2,298.5L30,316.4c-0.7,0.4-0.7,1.4,0,1.8l48.7,28.1c1.3,0.7,2.8,0.7,4,0l31.3-17.9c0.7-0.4,0.7-1.4,0-1.8
		l-48.7-28.1C64,297.8,62.5,297.8,61.2,298.5z"/>
	<path class="st40" d="M61.3,298.5l-31.2,17.8c-0.7,0.4-0.7,1.4,0,1.8l48.5,28c1.2,0.7,2.8,0.7,4,0l31.2-17.8c0.7-0.4,0.7-1.4,0-1.8
		l-48.5-28C64,297.8,62.5,297.8,61.3,298.5z"/>
	<path class="st41" d="M61.3,298.5l-31.1,17.7c-0.7,0.4-0.7,1.4,0,1.8l48.4,27.9c1.2,0.7,2.8,0.7,4,0l31.1-17.7
		c0.7-0.4,0.7-1.4,0-1.8l-48.4-27.9C64.1,297.8,62.6,297.8,61.3,298.5z"/>
	<path class="st42" d="M61.4,298.6l-30.9,17.7c-0.7,0.4-0.7,1.4,0,1.7l48.2,27.8c1.2,0.7,2.7,0.7,4,0l30.9-17.7
		c0.7-0.4,0.7-1.4,0-1.7l-48.2-27.8C64.1,297.9,62.6,297.9,61.4,298.6z"/>
</g>
<linearGradient id="SVGID_1_" gradientUnits="userSpaceOnUse" x1="60.8" y1="1551.25" x2="117" y2="1551.25" gradientTransform="matrix(1 0 0 1 0 -1264)">
	<stop  offset="0" style="stop-color:#FFFFFF"/>
	<stop  offset="0.3956" style="stop-color:#D5E7F8"/>
	<stop  offset="0.7864" style="stop-color:#B2D3F1"/>
	<stop  offset="0.9962" style="stop-color:#A5CBEF"/>
</linearGradient>
<path class="st43" d="M115.8,281.1l-53.4-30.8c-0.7-0.4-1.6,0.1-1.6,0.9v40.2c0,0.8,0.4,1.6,1.2,2l53.4,30.8
	c0.7,0.4,1.6-0.1,1.6-0.9v-40.2C117,282.3,116.5,281.5,115.8,281.1z"/>
<path class="st42" d="M115.1,281.5l-53.4-30.8c-0.7-0.4-1.6,0.1-1.6,0.9v40.2c0,0.8,0.4,1.6,1.2,2l53.4,30.8
	c0.7,0.4,1.6-0.1,1.6-0.9v-40.2C116.3,282.7,115.8,282,115.1,281.5z"/>
<path class="st44" d="M113.1,284.1L62.8,255v36.8l50.3,29.1V284.1z"/>
<linearGradient id="SVGID_2_" gradientUnits="userSpaceOnUse" x1="23.6736" y1="1585.55" x2="115.4276" y2="1585.55" gradientTransform="matrix(1 0 0 1 0 -1264)">
	<stop  offset="3.802050e-03" style="stop-color:#A5CBEF"/>
	<stop  offset="0.2136" style="stop-color:#B2D3F1"/>
	<stop  offset="0.6044" style="stop-color:#D5E7F8"/>
	<stop  offset="1" style="stop-color:#FFFFFF"/>
</linearGradient>
<path class="st45" d="M57.9,295.9l-34.2,18c0,0-0.2,2.7,0.5,3.1l52.4,30.2c1.3,0.8,3,0.8,4.3,0l33.7-19.2c1.4-0.9,0.6-3.1,0.6-3.1
	l-52.9-29C60.9,295.1,59.3,295.1,57.9,295.9z"/>
<path class="st46" d="M57.9,293.8L24.3,313c-0.7,0.4-0.7,1.5,0,1.9l52.4,30.2c1.3,0.8,3,0.8,4.3,0l33.7-19.2c0.7-0.4,0.7-1.5,0-1.9
	l-52.4-30.2C60.9,293,59.3,293,57.9,293.8z"/>
<path class="st47" d="M54.9,318.7l-8.9,5.1c-0.2,0.1-0.2,0.4,0,0.5l13.8,8c0.4,0.2,0.8,0.2,1.1,0l8.9-5.1c0.2-0.1,0.2-0.4,0-0.5
	l-13.8-8C55.7,318.5,55.3,318.5,54.9,318.7z"/>
<path class="st47" d="M61.6,296.7l2.9,1.7c0.1,0.1,0.1,0.2,0,0.3l-1.5,0.8c-0.1,0.1-0.3,0.1-0.4,0l-2.9-1.7c-0.1-0.1-0.1-0.2,0-0.3
	l1.5-0.8C61.4,296.6,61.5,296.6,61.6,296.7z"/>
<path class="st47" d="M65.9,299.2l2.9,1.7c0.1,0.1,0.1,0.2,0,0.3l-1.5,0.8c-0.1,0.1-0.3,0.1-0.4,0l-2.9-1.7c-0.1-0.1-0.1-0.2,0-0.3
	l1.5-0.8C65.6,299.2,65.8,299.2,65.9,299.2z"/>
<path class="st47" d="M70.1,301.6l2.9,1.7c0.1,0.1,0.1,0.2,0,0.3l-1.5,0.8c-0.1,0.1-0.3,0.1-0.4,0l-2.9-1.7c-0.1-0.1-0.1-0.2,0-0.3
	l1.5-0.8C69.9,301.6,70,301.6,70.1,301.6z"/>
<path class="st47" d="M74.5,304.1l2.9,1.7c0.1,0.1,0.1,0.2,0,0.3l-1.5,0.8c-0.1,0.1-0.3,0.1-0.4,0l-2.9-1.7c-0.1-0.1-0.1-0.2,0-0.3
	l1.5-0.8C74.3,304.1,74.4,304.1,74.5,304.1z"/>
<path class="st47" d="M78.8,306.5l2.9,1.7c0.1,0.1,0.1,0.2,0,0.3l-1.5,0.8c-0.1,0.1-0.3,0.1-0.4,0l-2.9-1.7c-0.1-0.1-0.1-0.2,0-0.3
	l1.5-0.8C78.5,306.4,78.6,306.4,78.8,306.5z"/>
<path class="st47" d="M82.9,309l2.9,1.7c0.1,0.1,0.1,0.2,0,0.3l-1.5,0.8c-0.1,0.1-0.3,0.1-0.4,0l-2.9-1.7c-0.1-0.1-0.1-0.2,0-0.3
	l1.5-0.8C82.6,308.9,82.7,308.9,82.9,309z"/>
<path class="st47" d="M87.1,311.4L90,313c0.1,0.1,0.1,0.2,0,0.3l-1.5,0.8c-0.1,0.1-0.3,0.1-0.4,0l-2.9-1.7c-0.1-0.1-0.1-0.2,0-0.3
	l1.5-0.8C86.9,311.3,87,311.3,87.1,311.4z"/>
<path class="st47" d="M91.4,313.9l2.9,1.7c0.1,0.1,0.1,0.2,0,0.3l-1.5,0.8c-0.1,0.1-0.3,0.1-0.4,0l-2.9-1.7c-0.1-0.1-0.1-0.2,0-0.3
	l1.5-0.8C91.1,313.8,91.3,313.8,91.4,313.9z"/>
<path class="st47" d="M95.5,316.3l2.9,1.7c0.1,0.1,0.1,0.2,0,0.3l-1.5,0.8c-0.1,0.1-0.3,0.1-0.4,0l-2.9-1.7c-0.1-0.1-0.1-0.2,0-0.3
	l1.5-0.8C95.3,316.3,95.4,316.3,95.5,316.3z"/>
<path class="st47" d="M99.9,318.9l2.9,1.7c0.1,0.1,0.1,0.2,0,0.3l-1.5,0.8c-0.1,0.1-0.3,0.1-0.4,0L98,320c-0.1-0.1-0.1-0.2,0-0.3
	l1.5-0.8C99.7,318.8,99.8,318.8,99.9,318.9z"/>
<path class="st47" d="M104.2,321.2l2.9,1.7c0.1,0.1,0.1,0.2,0,0.3l-1.5,0.8c-0.1,0.1-0.3,0.1-0.4,0l-2.9-1.7c-0.1-0.1-0.1-0.2,0-0.3
	l1.5-0.8C103.9,321.2,104.1,321.2,104.2,321.2z"/>
<path class="st47" d="M55.7,299.9l2-1.1c0.3-0.1,0.6-0.1,0.8,0l1.9,1.1c0.3,0.2,0.3,0.5,0,0.7l-1.9,1.2c-0.3,0.2-0.6,0.2-0.8,0
	l-2-1.1C55.5,300.4,55.5,300,55.7,299.9z"/>
<path class="st47" d="M60.1,302.4l2-1.1c0.3-0.1,0.6-0.1,0.8,0l1.9,1.1c0.3,0.2,0.3,0.5,0,0.7l-1.9,1.2c-0.3,0.2-0.6,0.2-0.8,0
	l-2-1.1C59.8,302.9,59.8,302.6,60.1,302.4z"/>
<path class="st47" d="M64.4,304.8l2-1.1c0.3-0.1,0.6-0.1,0.8,0l1.9,1.1c0.3,0.2,0.3,0.5,0,0.7l-1.9,1.2c-0.3,0.2-0.6,0.2-0.8,0
	l-2-1.1C64.1,305.3,64.1,305,64.4,304.8z"/>
<path class="st47" d="M68.9,307.3l2-1.1c0.3-0.1,0.6-0.1,0.8,0l1.9,1.1c0.3,0.2,0.3,0.5,0,0.7l-1.9,1.2c-0.3,0.2-0.6,0.2-0.8,0
	l-2-1.1C68.7,307.8,68.7,307.4,68.9,307.3z"/>
<path class="st47" d="M72.9,309.6l2-1.1c0.3-0.1,0.6-0.1,0.8,0l1.9,1.1c0.3,0.2,0.3,0.5,0,0.7l-1.9,1.2c-0.3,0.2-0.6,0.2-0.8,0
	l-2-1.1C72.7,310.2,72.7,309.8,72.9,309.6z"/>
<path class="st47" d="M77,312.1l2-1.1c0.3-0.1,0.6-0.1,0.8,0l1.9,1.1c0.3,0.2,0.3,0.5,0,0.7l-1.9,1.2c-0.3,0.2-0.6,0.2-0.8,0l-2-1.1
	C76.7,312.7,76.7,312.3,77,312.1z"/>
<path class="st47" d="M81.4,314.5l2-1.1c0.3-0.1,0.6-0.1,0.8,0l1.9,1.1c0.3,0.2,0.3,0.5,0,0.7l-1.9,1.2c-0.3,0.2-0.6,0.2-0.8,0
	l-2-1.1C81.1,315.1,81.1,314.7,81.4,314.5z"/>
<path class="st47" d="M85.6,316.9l2-1.1c0.3-0.1,0.6-0.1,0.8,0l1.9,1.1c0.3,0.2,0.3,0.5,0,0.7l-1.9,1.2c-0.3,0.2-0.6,0.2-0.8,0
	l-2-1.1C85.3,317.5,85.3,317.1,85.6,316.9z"/>
<path class="st47" d="M89.8,319.5l2-1.1c0.3-0.1,0.6-0.1,0.8,0l1.9,1.1c0.3,0.2,0.3,0.5,0,0.7l-1.9,1.2c-0.3,0.2-0.6,0.2-0.8,0
	l-2-1.1C89.5,320,89.5,319.6,89.8,319.5z"/>
<path class="st47" d="M94.3,322.1l2-1.1c0.3-0.1,0.6-0.1,0.8,0l1.9,1.1c0.3,0.2,0.3,0.5,0,0.7l-1.9,1.2c-0.3,0.2-0.6,0.2-0.8,0
	l-2-1.1C94.1,322.7,94.1,322.3,94.3,322.1z"/>
<path class="st47" d="M98.5,324.4l2-1.1c0.3-0.1,0.6-0.1,0.8,0l1.9,1.1c0.3,0.2,0.3,0.5,0,0.7l-1.9,1.2c-0.3,0.2-0.6,0.2-0.8,0
	l-2-1.1C98.2,324.9,98.2,324.5,98.5,324.4z"/>
<path class="st47" d="M51.4,302.3l2-1.1c0.3-0.1,0.6-0.1,0.8,0l1.9,1.1c0.3,0.2,0.3,0.5,0,0.7l-1.9,1.2c-0.3,0.2-0.6,0.2-0.8,0
	l-2-1.1C51.1,302.8,51.1,302.4,51.4,302.3z"/>
<path class="st47" d="M55.7,304.8l2-1.1c0.3-0.1,0.6-0.1,0.8,0l1.9,1.1c0.3,0.2,0.3,0.5,0,0.7l-1.9,1.2c-0.3,0.2-0.6,0.2-0.8,0
	l-2-1.1C55.5,305.3,55.5,304.9,55.7,304.8z"/>
<path class="st47" d="M60,307.2l2-1.1c0.3-0.1,0.6-0.1,0.8,0l1.9,1.1c0.3,0.2,0.3,0.5,0,0.7l-1.9,1.2c-0.3,0.2-0.6,0.2-0.8,0l-2-1.1
	C59.8,307.7,59.8,307.3,60,307.2z"/>
<path class="st47" d="M64.6,309.6l2-1.1c0.3-0.1,0.6-0.1,0.8,0l1.9,1.1c0.3,0.2,0.3,0.5,0,0.7l-1.9,1.2c-0.3,0.2-0.6,0.2-0.8,0
	l-2-1.1C64.3,310.2,64.3,309.8,64.6,309.6z"/>
<path class="st47" d="M68.6,312l2-1.1c0.3-0.1,0.6-0.1,0.8,0l1.9,1.1c0.3,0.2,0.3,0.5,0,0.7l-1.9,1.2c-0.3,0.2-0.6,0.2-0.8,0l-2-1.1
	C68.3,312.5,68.3,312.1,68.6,312z"/>
<path class="st47" d="M72.6,314.5l2-1.1c0.3-0.1,0.6-0.1,0.8,0l1.9,1.1c0.3,0.2,0.3,0.5,0,0.7l-1.9,1.2c-0.3,0.2-0.6,0.2-0.8,0
	l-2-1.1C72.4,315.1,72.4,314.7,72.6,314.5z"/>
<path class="st47" d="M77,316.9l2-1.1c0.3-0.1,0.6-0.1,0.8,0l1.9,1.1c0.3,0.2,0.3,0.5,0,0.7l-1.9,1.2c-0.3,0.2-0.6,0.2-0.8,0l-2-1.1
	C76.7,317.4,76.7,317,77,316.9z"/>
<path class="st47" d="M81.2,319.3l2-1.1c0.3-0.1,0.6-0.1,0.8,0l1.9,1.1c0.3,0.2,0.3,0.5,0,0.7l-1.9,1.2c-0.3,0.2-0.6,0.2-0.8,0
	l-2-1.1C81,319.8,81,319.4,81.2,319.3z"/>
<path class="st47" d="M85.4,321.8l2-1.1c0.3-0.1,0.6-0.1,0.8,0l1.9,1.1c0.3,0.2,0.3,0.5,0,0.7l-1.9,1.2c-0.3,0.2-0.6,0.2-0.8,0
	l-2-1.1C85.2,322.4,85.1,322,85.4,321.8z"/>
<path class="st47" d="M90,324.5l2-1.1c0.3-0.1,0.6-0.1,0.8,0l1.9,1.1c0.3,0.2,0.3,0.5,0,0.7l-1.9,1.2c-0.3,0.2-0.6,0.2-0.8,0l-2-1.1
	C89.7,325.1,89.7,324.7,90,324.5z"/>
<path class="st47" d="M94.1,326.8l2-1.1c0.3-0.1,0.6-0.1,0.8,0l1.9,1.1c0.3,0.2,0.3,0.5,0,0.7l-1.9,1.2c-0.3,0.2-0.6,0.2-0.8,0
	l-2-1.1C93.8,327.3,93.8,326.9,94.1,326.8z"/>
<path class="st47" d="M47,304.6l2-1.1c0.3-0.1,0.6-0.1,0.8,0l1.9,1.1c0.3,0.2,0.3,0.5,0,0.7l-1.9,1.2c-0.3,0.2-0.6,0.2-0.8,0l-2-1.1
	C46.7,305.2,46.7,304.8,47,304.6z"/>
<path class="st47" d="M51.4,307.2l2-1.1c0.3-0.1,0.6-0.1,0.8,0l1.9,1.1c0.3,0.2,0.3,0.5,0,0.7l-1.9,1.2c-0.3,0.2-0.6,0.2-0.8,0
	l-2-1.1C51.1,307.7,51.1,307.3,51.4,307.2z"/>
<path class="st47" d="M55.6,309.6l2-1.1c0.3-0.1,0.6-0.1,0.8,0l1.9,1.1c0.3,0.2,0.3,0.5,0,0.7l-1.9,1.2c-0.3,0.2-0.6,0.2-0.8,0
	l-2-1.1C55.4,310.1,55.4,309.7,55.6,309.6z"/>
<path class="st47" d="M60.2,312l2-1.1c0.3-0.1,0.6-0.1,0.8,0l1.9,1.1c0.3,0.2,0.3,0.5,0,0.7l-1.9,1.2c-0.3,0.2-0.6,0.2-0.8,0l-2-1.1
	C59.9,312.6,59.9,312.2,60.2,312z"/>
<path class="st47" d="M64.2,314.4l2-1.1c0.3-0.1,0.6-0.1,0.8,0l1.9,1.1c0.3,0.2,0.3,0.5,0,0.7l-1.9,1.2c-0.3,0.2-0.6,0.2-0.8,0
	l-2-1.1C63.9,314.9,63.9,314.5,64.2,314.4z"/>
<path class="st47" d="M68.2,316.9l2-1.1c0.3-0.1,0.6-0.1,0.8,0l1.9,1.1c0.3,0.2,0.3,0.5,0,0.7l-1.9,1.2c-0.3,0.2-0.6,0.2-0.8,0
	l-2-1.1C68,317.4,68,317,68.2,316.9z"/>
<path class="st47" d="M72.6,319.3l2-1.1c0.3-0.1,0.6-0.1,0.8,0l1.9,1.1c0.3,0.2,0.3,0.5,0,0.7l-1.9,1.2c-0.3,0.2-0.6,0.2-0.8,0
	l-2-1.1C72.3,319.8,72.3,319.4,72.6,319.3z"/>
<path class="st47" d="M76.8,321.7l2-1.1c0.3-0.1,0.6-0.1,0.8,0l1.9,1.1c0.3,0.2,0.3,0.5,0,0.7l-1.9,1.2c-0.3,0.2-0.6,0.2-0.8,0
	l-2-1.1C76.6,322.2,76.6,321.8,76.8,321.7z"/>
<path class="st47" d="M81,324.2l2-1.1c0.3-0.1,0.6-0.1,0.8,0l1.9,1.1c0.3,0.2,0.3,0.5,0,0.7l-1.9,1.2c-0.3,0.2-0.6,0.2-0.8,0l-2-1.1
	C80.8,324.8,80.8,324.4,81,324.2z"/>
<path class="st47" d="M85.6,326.9l2-1.1c0.3-0.1,0.6-0.1,0.8,0l1.9,1.1c0.3,0.2,0.3,0.5,0,0.7l-1.9,1.2c-0.3,0.2-0.6,0.2-0.8,0
	l-2-1.1C85.3,327.5,85.3,327.1,85.6,326.9z"/>
<path class="st47" d="M89.7,329.1l2-1.1c0.3-0.1,0.6-0.1,0.8,0l1.9,1.1c0.3,0.2,0.3,0.5,0,0.7l-1.9,1.2c-0.3,0.2-0.6,0.2-0.8,0
	l-2-1.1C89.4,329.7,89.4,329.3,89.7,329.1z"/>
<path class="st47" d="M42.6,307l2-1.1c0.3-0.1,0.6-0.1,0.8,0l1.9,1.1c0.3,0.2,0.3,0.5,0,0.7l-1.9,1.2c-0.3,0.2-0.6,0.2-0.8,0l-2-1.1
	C42.3,307.5,42.3,307.2,42.6,307z"/>
<path class="st47" d="M47,309.5l2-1.1c0.3-0.1,0.6-0.1,0.8,0l1.9,1.1c0.3,0.2,0.3,0.5,0,0.7l-1.9,1.2c-0.3,0.2-0.6,0.2-0.8,0l-2-1.1
	C46.7,310.1,46.7,309.7,47,309.5z"/>
<path class="st47" d="M51.3,311.9l2-1.1c0.3-0.1,0.6-0.1,0.8,0l1.9,1.1c0.3,0.2,0.3,0.5,0,0.7l-1.9,1.2c-0.3,0.2-0.6,0.2-0.8,0
	l-2-1.1C51,312.5,51,312.1,51.3,311.9z"/>
<path class="st47" d="M55.8,314.4l2-1.1c0.3-0.1,0.6-0.1,0.8,0l1.9,1.1c0.3,0.2,0.3,0.5,0,0.7l-1.9,1.2c-0.3,0.2-0.6,0.2-0.8,0
	l-2-1.1C55.5,315,55.5,314.6,55.8,314.4z"/>
<path class="st47" d="M60.2,317l2-1.1c0.3-0.1,0.6-0.1,0.8,0l10,5.8c0.3,0.2,0.3,0.5,0,0.7l-1.9,1.2c-0.3,0.2-0.6,0.2-0.8,0l-10-5.8
	C59.9,317.5,59.9,317.2,60.2,317z"/>
<path class="st47" d="M72.5,324l2-1.1c0.3-0.1,0.6-0.1,0.8,0l1.9,1.1c0.3,0.2,0.3,0.5,0,0.7l-1.9,1.2c-0.3,0.2-0.6,0.2-0.8,0l-2-1.1
	C72.2,324.6,72.2,324.2,72.5,324z"/>
<path class="st47" d="M76.6,326.6l2-1.1c0.3-0.1,0.6-0.1,0.8,0l1.9,1.1c0.3,0.2,0.3,0.5,0,0.7l-1.9,1.2c-0.3,0.2-0.6,0.2-0.8,0
	l-2-1.1C76.4,327.2,76.4,326.8,76.6,326.6z"/>
<path class="st47" d="M81.2,329.3l2-1.1c0.3-0.1,0.6-0.1,0.8,0l1.9,1.1c0.3,0.2,0.3,0.5,0,0.7l-1.9,1.2c-0.3,0.2-0.6,0.2-0.8,0
	l-2-1.1C80.9,329.8,80.9,329.4,81.2,329.3z"/>
<path class="st47" d="M85.3,331.5l2-1.1c0.3-0.1,0.6-0.1,0.8,0l1.9,1.1c0.3,0.2,0.3,0.5,0,0.7l-1.9,1.2c-0.3,0.2-0.6,0.2-0.8,0
	l-2-1.1C85.1,332.1,85.1,331.7,85.3,331.5z"/>
<path class="st48" d="M94.1,294.8l2.4,1.6c0.6,0.4,1.1,1.3,1,2l-0.2,4.7c0,0.4-0.5,0.8-0.5,0.8c-0.8,0.6-2.7,1.8-2.7,1.8l0,0
	c-0.1,0.2-0.4,0.3-0.7,0.2l0.8,1.6c0.4,0.8,0.4,1.7-0.1,1.9l-2.8,1.8c-0.1,0.1-0.1,0.2-0.2,0.3l-2.9,1.5c-0.5,0.3-1.2-0.2-1.6-1
	l-1.2-2.3c-0.1,0.2-0.2,0.3-0.4,0.4l-2.8,1.9l0,0c-0.2,0.2-0.5,0.2-0.9-0.1l-3.9-2.5c-0.6-0.4-1.1-1.3-1.1-2.1l0.1-2.8
	c0-0.5-0.2-1-0.6-1.4c-0.1-0.1-0.2-0.3-0.3-0.4c-0.1-0.1-0.2-0.3-0.3-0.4c-0.3-0.4-0.8-0.6-1.1-0.5l-1.8,0.9c-0.5,0.3-1.2-0.2-1.6-1
	l-2.6-5.1c-0.4-0.8-0.4-1.7,0.1-1.9l1.8-0.9c0.3-0.1,0.4-0.6,0.3-1.1c0-0.1,0-0.1-0.1-0.2c-0.1-0.3-0.2-0.6-0.2-0.9
	c-0.1-0.5-0.4-1-0.8-1.3l-2.4-1.6c-0.6-0.4-1.1-1.3-1.1-2.1l0.2-4.7c0-0.3,0.1-0.4,0.2-0.6l0,0l0.1-0.4c0.2-1,1.1-1.8,2.1-1.8h1.2
	c0,0,0.1,0,0.2,0.1c0,0,0.1,0,0.1,0.1l-0.9-1.7c-0.3-0.5-0.3-1.1-0.2-1.5l0,0V276c0.1-0.1,0.1-0.2,0.2-0.3l2-3.1
	c0.3-0.3,0.6-0.6,1.1-0.6h3.3c0.4,0,0.9,0.4,1.3,1.1l1.2,2.3l0,0c0,0,0-0.1,0.1-0.2l0,0l0.1-0.1c0.1-0.1,0.1-0.1,0.2-0.1l3.2-2
	c0.1,0,0.3,0.1,0.5,0.2l3.9,2.6c0.6,0.4,1.1,1.3,1.1,2.1l-0.1,2.8c0,0.5,0.2,1,0.6,1.4c0.1,0.1,0.2,0.3,0.3,0.4
	c0.1,0.1,0.2,0.3,0.3,0.4c0.1,0.1,0.2,0.3,0.3,0.3l2.5-0.8c0.1-0.1,0.3-0.1,0.5,0c0.4,0.1,0.8,0.5,1.1,1l2.6,5.1
	c0.4,0.8,0.4,1.7-0.1,1.9l-2.3,1.2c0,0.1,0.3,1.1,0.5,1.9C93.4,294.1,93.7,294.6,94.1,294.8z M78.6,292.2c1.4,3.5,4.2,6.4,6.7,6.7
	h0.1c0,0,0,0,0.1,0c0.6-1.5,0.5-3.8-0.4-6.2c-1.4-3.5-4.2-6.4-6.7-6.7h-0.1C77.5,287.5,77.6,289.7,78.6,292.2z"/>
<linearGradient id="SVGID_3_" gradientUnits="userSpaceOnUse" x1="94.8" y1="1557.2999" x2="63.5171" y2="1557.2999" gradientTransform="matrix(1 0 0 1 0 -1264)">
	<stop  offset="0" style="stop-color:#FF9800"/>
	<stop  offset="0.6264" style="stop-color:#FFB004"/>
	<stop  offset="1" style="stop-color:#FFC107"/>
</linearGradient>
<path class="st49" d="M91.3,296.2l2.4,1.6c0.6,0.4,1.1,1.3,1.1,2l-0.2,4.7c0,0.4-0.5,0.8-0.5,0.8c-0.8,0.6-2.7,1.8-2.7,1.8l-0.4-3.5
	c-0.4-0.3-0.7-0.2-0.9,0.2c-0.1,0.2-0.2,0.4-0.3,0.6l0,0c-0.2,0.3-0.2,0.9,0.1,1.4l1.6,3.1c0.4,0.8,0.4,1.7-0.1,1.9l-2.8,1.8
	c0,0-0.1,0-0.2-0.1c-0.1,0-0.1-0.1-0.2-0.1H85v-2.6h1.2l-0.9-1.7c-0.3-0.5-0.6-0.8-1-0.9c-0.3,0-0.5-0.1-0.8-0.1
	c-0.3-0.1-0.6,0.2-0.6,0.6l-0.1,2.9c0,0.4-0.2,0.6-0.5,0.8l-2.8,1.9l-0.2-3.6l-1.6-1c-0.6-0.4-1.1-1.3-1.1-2.1l0.1-2.9
	c0-0.5-0.2-1-0.6-1.4c-0.1-0.1-0.2-0.3-0.3-0.4c-0.1-0.1-0.2-0.3-0.3-0.4c-0.3-0.4-0.8-0.6-1.1-0.5l-6-5.2c-0.4-0.8-0.4-1.7,0.1-1.9
	l1.8-0.9c0.3-0.1,0.4-0.6,0.3-1.1c0-0.1,0-0.1-0.1-0.2c-0.1-0.3-0.2-0.6-0.2-0.9c-0.1-0.5-0.4-1-0.8-1.3l-2.4-1.6
	c-0.6-0.4-1.1-1.3-1.1-2.1l0.1-1.9l-2.7-1.4l0.1-0.4c0.2-1,1.1-1.8,2.1-1.8h1.2c0.2,0,0.4,0,0.6,0.2l2.4,1.6
	c0.4,0.3,0.7,0.2,0.9-0.2c0.1-0.2,0.2-0.4,0.3-0.6c0.2-0.3,0.1-0.8-0.1-1.4l-1.6-3.1c-0.4-0.8-3.3,0.5-3.3,0.5l2.2-3.4
	c0.3-0.3,0.6-0.6,1.1-0.6h3.3c0.4,0,0.9,0.4,1.3,1.1l1.6,3.1l-0.3-1l3.5-2.2c0.1,0,0.3,0.1,0.5,0.2l3.9,2.6c0.6,0.4,1.1,1.3,1.1,2.1
	l-0.1,2.8c0,0.5,0.2,1,0.6,1.4c0.1,0.1,0.2,0.3,0.3,0.4c0.1,0.1,0.2,0.3,0.3,0.4c0.1,0.1,0.2,0.3,0.3,0.3l2.5-0.8
	c0.1-0.1,0.3-0.1,0.5,0c0.4,0.1,0.8,0.5,1.1,1l2.6,5.1c0.4,0.8,0.4,1.7-0.1,1.9L90,293c0,0.1,0.3,1.1,0.5,1.9
	C90.6,295.5,90.9,296,91.3,296.2z M75.6,277.7L75.6,277.7c0.3,0.5,0.7,0.9,1,0.9s0.5,0.1,0.8,0.1c0.3,0.1,0.6-0.2,0.6-0.6v-0.3
	L75.6,277.7z M75.8,293.6c1.4,3.5,4.2,6.4,6.7,6.7c3.2,0.4,4.5-3.5,2.7-8.2c-1.4-3.5-4.2-6.4-6.7-6.7C75.3,285,74,288.9,75.8,293.6z
	"/>
<linearGradient id="SVGID_4_" gradientUnits="userSpaceOnUse" x1="63.5009" y1="1557.2999" x2="94.7838" y2="1557.2999" gradientTransform="matrix(1 0 0 1 0 -1264)">
	<stop  offset="0" style="stop-color:#3C5185"/>
	<stop  offset="0.468" style="stop-color:#4A649D"/>
	<stop  offset="1" style="stop-color:#5D7DBE"/>
</linearGradient>
<path class="st50" d="M91.3,296.2l2.4,1.6c0.6,0.4,1.1,1.3,1.1,2l-0.2,4.7c0,0.4-0.5,0.8-0.5,0.8c-0.8,0.6-2.7,1.8-2.7,1.8l-0.4-3.5
	c-0.4-0.3-0.7-0.2-0.9,0.2c-0.1,0.2-0.2,0.4-0.3,0.6l0,0c-0.2,0.3-0.2,0.9,0.1,1.4l1.6,3.1c0.4,0.8,0.4,1.7-0.1,1.9l-2.8,1.8
	c0,0-0.1,0-0.2-0.1c-0.1,0-0.1-0.1-0.2-0.1H85v-2.6h1.2l-0.9-1.7c-0.3-0.5-0.6-0.8-1-0.9c-0.3,0-0.5-0.1-0.8-0.1
	c-0.3-0.1-0.6,0.2-0.6,0.6l-0.1,2.9c0,0.4-0.2,0.6-0.5,0.8l-2.8,1.9l-0.2-3.6l-1.6-1c-0.6-0.4-1.1-1.3-1.1-2.1l0.1-2.9
	c0-0.5-0.2-1-0.6-1.4c-0.1-0.1-0.2-0.3-0.3-0.4c-0.1-0.1-0.2-0.3-0.3-0.4c-0.3-0.4-0.8-0.6-1.1-0.5l-6-5.2c-0.4-0.8-0.4-1.7,0.1-1.9
	l1.8-0.9c0.3-0.1,0.4-0.6,0.3-1.1c0-0.1,0-0.1-0.1-0.2c-0.1-0.3-0.2-0.6-0.2-0.9c-0.1-0.5-0.4-1-0.8-1.3l-2.4-1.6
	c-0.6-0.4-1.1-1.3-1.1-2.1l0.1-1.9l-2.7-1.4l0.1-0.4c0.2-1,1.1-1.8,2.1-1.8h1.2c0.2,0,0.4,0,0.6,0.2l2.4,1.6
	c0.4,0.3,0.7,0.2,0.9-0.2c0.1-0.2,0.2-0.4,0.3-0.6c0.2-0.3,0.1-0.8-0.1-1.4l-1.6-3.1c-0.4-0.8-3.3,0.5-3.3,0.5l2.2-3.4
	c0.3-0.3,0.6-0.6,1.1-0.6h3.3c0.4,0,0.9,0.4,1.3,1.1l1.6,3.1l-0.3-1l3.5-2.2c0.1,0,0.3,0.1,0.5,0.2l3.9,2.6c0.6,0.4,1.1,1.3,1.1,2.1
	l-0.1,2.8c0,0.5,0.2,1,0.6,1.4c0.1,0.1,0.2,0.3,0.3,0.4c0.1,0.1,0.2,0.3,0.3,0.4c0.1,0.1,0.2,0.3,0.3,0.3l2.5-0.8
	c0.1-0.1,0.3-0.1,0.5,0c0.4,0.1,0.8,0.5,1.1,1l2.6,5.1c0.4,0.8,0.4,1.7-0.1,1.9L90,293c0,0.1,0.3,1.1,0.5,1.9
	C90.6,295.5,90.9,296,91.3,296.2z M75.6,277.7L75.6,277.7c0.3,0.5,0.7,0.9,1,0.9s0.5,0.1,0.8,0.1c0.3,0.1,0.6-0.2,0.6-0.6v-0.3
	L75.6,277.7z M75.8,293.6c1.4,3.5,4.2,6.4,6.7,6.7c3.2,0.4,4.5-3.5,2.7-8.2c-1.4-3.5-4.2-6.4-6.7-6.7C75.3,285,74,288.9,75.8,293.6z
	"/>
<linearGradient id="SVGID_5_" gradientUnits="userSpaceOnUse" x1="91.7739" y1="1558.85" x2="63.1376" y2="1558.85" gradientTransform="matrix(1 0 0 1 0 -1264)">
	<stop  offset="0" style="stop-color:#3C5185"/>
	<stop  offset="0.468" style="stop-color:#4A649D"/>
	<stop  offset="1" style="stop-color:#5D7DBE"/>
</linearGradient>
<path class="st51" d="M89.2,293.9L87,295c0,0.1,0.3,1.1,0.4,1.8c0.1,0.5,0.4,1,0.8,1.3l2.4,1.6c0.6,0.4,1.1,1.3,1.1,2.1l-0.2,4.7
	c0,0.8-0.6,1-1.2,0.6l-2.4-1.6c-0.4-0.3-0.7-0.2-0.9,0.2c-0.1,0.2-0.2,0.4-0.3,0.6c-0.2,0.3-0.2,0.9,0.1,1.4l1.6,3.1
	c0.4,0.8,0.4,1.7-0.1,1.9l-2.9,1.5c-0.5,0.3-1.2-0.2-1.6-1l-1.6-3.1c-0.3-0.5-0.6-0.8-1-0.9l0,0c-0.3,0-0.5-0.1-0.8-0.1
	c-0.3-0.1-0.6,0.2-0.6,0.6l-0.1,2.9c0,0.8-0.6,1-1.2,0.6l-3.9-2.5c-0.6-0.4-1.1-1.3-1.1-2.1l0.1-2.8c0-0.5-0.2-1-0.6-1.4
	c-0.1-0.1-0.2-0.3-0.3-0.4c-0.1-0.1-0.2-0.3-0.3-0.4c-0.3-0.4-0.8-0.6-1.1-0.5l-1.8,0.9c-0.5,0.3-1.2-0.2-1.6-1l-2.6-5.1
	c-0.4-0.8-0.4-1.7,0.1-1.9l1.8-0.9c0.3-0.1,0.4-0.6,0.3-1.1c0-0.1,0-0.1-0.1-0.2c-0.1-0.3-0.2-0.6-0.2-0.9c-0.1-0.5-0.4-1-0.8-1.3
	L64,290c-0.6-0.4-1.1-1.3-1.1-2.1l0.2-4.7c0-0.8,0.6-1,1.2-0.6l2.4,1.6c0.4,0.3,0.7,0.2,0.9-0.2c0.1-0.2,0.2-0.4,0.3-0.6
	c0.2-0.3,0.1-0.8-0.1-1.4l-1.6-3.1c-0.4-0.8-0.4-1.7,0.1-1.9l2.9-1.5c0.5-0.3,1.2,0.2,1.6,1l1.6,3.1c0.3,0.5,0.6,0.8,1,0.9
	c0.3,0,0.5,0.1,0.8,0.1c0.3,0.1,0.6-0.2,0.6-0.6l0.1-2.9c0-0.8,0.6-1,1.2-0.6l3.9,2.6c0.6,0.4,1.1,1.3,1.1,2.1L81,284
	c0,0.5,0.2,1,0.6,1.4c0.1,0.1,0.2,0.3,0.3,0.4c0.1,0.1,0.2,0.3,0.3,0.4c0.3,0.4,0.8,0.6,1.1,0.5l1.8-0.9c0.5-0.3,1.2,0.2,1.6,1
	l2.6,5.1C89.7,292.8,89.7,293.6,89.2,293.9z M75.5,287.4c-3.2-0.4-4.5,3.5-2.7,8.2c1.4,3.5,4.2,6.4,6.7,6.7c3.2,0.4,4.5-3.5,2.7-8.2
	C80.8,290.5,77.9,287.7,75.5,287.4z"/>
</svg>
