<?xml version="1.0" encoding="utf-8"?>
<!-- Generator: Adobe Illustrator 24.0.1, SVG Export Plug-In . SVG Version: 6.00 Build 0)  -->
<svg version="1.1" id="Layer_1" xmlns="http://www.w3.org/2000/svg" xmlns:xlink="http://www.w3.org/1999/xlink" x="0px" y="0px"
	 viewBox="0 0 422 447" style="enable-background:new 0 0 422 447;" xml:space="preserve">
<style type="text/css">
	.st0{fill:#EDF3FA;}
	.st1{opacity:0.21;}
	.st2{opacity:1.000000e-02;fill:#3C5185;enable-background:new    ;}
	.st3{opacity:1.960000e-02;fill:#3C5185;enable-background:new    ;}
	.st4{opacity:3.920000e-02;fill:#3C5185;enable-background:new    ;}
	.st5{opacity:5.880000e-02;fill:#3C5185;enable-background:new    ;}
	.st6{opacity:7.840000e-02;fill:#3C5185;enable-background:new    ;}
	.st7{opacity:9.800000e-02;fill:#3C5185;enable-background:new    ;}
	.st8{opacity:0.1176;fill:#3C5185;enable-background:new    ;}
	.st9{opacity:0.1373;fill:#3C5185;enable-background:new    ;}
	.st10{opacity:0.1569;fill:#3C5185;enable-background:new    ;}
	.st11{opacity:0.1765;fill:#3C5185;enable-background:new    ;}
	.st12{opacity:0.1961;fill:#3C5185;enable-background:new    ;}
	.st13{opacity:0.2157;fill:#3C5185;enable-background:new    ;}
	.st14{opacity:0.2353;fill:#3C5185;enable-background:new    ;}
	.st15{opacity:0.2549;fill:#3C5185;enable-background:new    ;}
	.st16{opacity:0.2745;fill:#3C5185;enable-background:new    ;}
	.st17{opacity:0.2941;fill:#3C5185;enable-background:new    ;}
	.st18{opacity:0.3137;fill:#3C5185;enable-background:new    ;}
	.st19{opacity:0.3333;fill:#3C5185;enable-background:new    ;}
	.st20{opacity:0.3529;fill:#3C5185;enable-background:new    ;}
	.st21{opacity:0.3725;fill:#3C5185;enable-background:new    ;}
	.st22{opacity:0.3922;fill:#3C5185;enable-background:new    ;}
	.st23{opacity:0.4118;fill:#3C5185;enable-background:new    ;}
	.st24{opacity:0.4314;fill:#3C5185;enable-background:new    ;}
	.st25{opacity:0.451;fill:#3C5185;enable-background:new    ;}
	.st26{opacity:0.4706;fill:#3C5185;enable-background:new    ;}
	.st27{opacity:0.4902;fill:#3C5185;enable-background:new    ;}
	.st28{opacity:0.5098;fill:#3C5185;enable-background:new    ;}
	.st29{opacity:0.5294;fill:#3C5185;enable-background:new    ;}
	.st30{opacity:0.549;fill:#3C5185;enable-background:new    ;}
	.st31{opacity:0.5686;fill:#3C5185;enable-background:new    ;}
	.st32{opacity:0.5882;fill:#3C5185;enable-background:new    ;}
	.st33{opacity:0.6078;fill:#3C5185;enable-background:new    ;}
	.st34{opacity:0.6275;fill:#3C5185;enable-background:new    ;}
	.st35{opacity:0.6471;fill:#3C5185;enable-background:new    ;}
	.st36{opacity:0.6667;fill:#3C5185;enable-background:new    ;}
	.st37{opacity:0.6863;fill:#3C5185;enable-background:new    ;}
	.st38{opacity:0.7059;fill:#3C5185;enable-background:new    ;}
	.st39{opacity:0.7255;fill:#3C5185;enable-background:new    ;}
	.st40{opacity:0.7451;fill:#3C5185;enable-background:new    ;}
	.st41{opacity:0.7647;fill:#3C5185;enable-background:new    ;}
	.st42{opacity:0.7843;fill:#3C5185;enable-background:new    ;}
	.st43{opacity:0.8039;fill:#3C5185;enable-background:new    ;}
	.st44{opacity:0.8235;fill:#3C5185;enable-background:new    ;}
	.st45{opacity:0.8431;fill:#3C5185;enable-background:new    ;}
	.st46{opacity:0.8627;fill:#3C5185;enable-background:new    ;}
	.st47{opacity:0.8824;fill:#3C5185;enable-background:new    ;}
	.st48{opacity:0.902;fill:#3C5185;enable-background:new    ;}
	.st49{opacity:0.9216;fill:#3C5185;enable-background:new    ;}
	.st50{opacity:0.9412;fill:#3C5185;enable-background:new    ;}
	.st51{opacity:0.9608;fill:#3C5185;enable-background:new    ;}
	.st52{opacity:0.9804;fill:#3C5185;enable-background:new    ;}
	.st53{fill:#3C5185;}
	.st54{fill:url(#SVGID_1_);}
	.st55{fill:#FFFFFF;}
	.st56{fill:url(#SVGID_2_);}
	.st57{opacity:0.38;fill:url(#SVGID_3_);enable-background:new    ;}
	.st58{fill:url(#SVGID_4_);}
</style>
<path class="st0" d="M249.4,403.3c-2.8-1.6-7.3-1.6-10,0l-24.4,14c-2.8,1.6-2.8,4.2,0,5.8l24.4,14c2.8,1.6,7.3,1.6,10,0l24.4-14
	c2.8-1.6,2.8-4.2,0-5.8L249.4,403.3z"/>
<g class="st1">
	<path class="st2" d="M218.5,391.1v29.4l25.5,14.7v-29.4L218.5,391.1z"/>
	<path class="st3" d="M218.5,391.6v28.9l25.5,14.7v-28.8L218.5,391.6z"/>
	<path class="st4" d="M218.5,392.1v28.4l25.5,14.7v-28.3L218.5,392.1z"/>
	<path class="st5" d="M218.5,392.7v27.8l25.5,14.7v-27.8L218.5,392.7z"/>
	<path class="st6" d="M218.5,393.2v27.3l25.5,14.7v-27.3L218.5,393.2z"/>
	<path class="st7" d="M218.5,393.7v26.8l25.5,14.7v-26.8L218.5,393.7z"/>
	<path class="st8" d="M218.5,394.2v26.3l25.5,14.7v-26.3L218.5,394.2z"/>
	<path class="st9" d="M218.5,394.7v25.8l25.5,14.7v-25.8L218.5,394.7z"/>
	<path class="st10" d="M218.5,395.2v25.3l25.5,14.7V410L218.5,395.2z"/>
	<path class="st11" d="M218.5,395.7v24.8l25.5,14.7v-24.7L218.5,395.7z"/>
	<path class="st12" d="M218.5,396.3v24.2l25.5,14.7V411L218.5,396.3z"/>
	<path class="st13" d="M218.5,396.8v23.7l25.5,14.7v-23.7L218.5,396.8z"/>
	<path class="st14" d="M218.5,397.3v23.2l25.5,14.7V412L218.5,397.3z"/>
	<path class="st15" d="M218.5,397.8v22.7l25.5,14.7v-22.7L218.5,397.8z"/>
	<path class="st16" d="M218.5,398.3v22.2l25.5,14.7V413L218.5,398.3z"/>
	<path class="st17" d="M218.5,398.8v21.7l25.5,14.7v-21.7L218.5,398.8z"/>
	<path class="st18" d="M218.5,399.3v21.2l25.5,14.7V414L218.5,399.3z"/>
	<path class="st19" d="M218.5,399.9v20.6l25.5,14.7v-20.6L218.5,399.9z"/>
	<path class="st20" d="M218.5,400.4v20.1l25.5,14.7v-20.1L218.5,400.4z"/>
	<path class="st21" d="M218.5,400.9v19.6l25.5,14.7v-19.6L218.5,400.9z"/>
	<path class="st22" d="M218.5,401.4v19.1l25.5,14.7v-19.1L218.5,401.4z"/>
	<path class="st23" d="M218.5,401.9v18.6l25.5,14.7v-18.6L218.5,401.9z"/>
	<path class="st24" d="M218.5,402.4v18.1l25.5,14.7v-18.1L218.5,402.4z"/>
	<path class="st25" d="M218.5,402.9v17.6l25.5,14.7v-17.6L218.5,402.9z"/>
	<path class="st26" d="M218.5,403.5v17.1l25.5,14.7v-17L218.5,403.5z"/>
	<path class="st27" d="M218.5,404v16.6l25.5,14.7v-16.5L218.5,404z"/>
	<path class="st28" d="M218.5,404.5v16l25.5,14.7v-16L218.5,404.5z"/>
	<path class="st29" d="M218.5,405v15.5l25.5,14.7v-15.5L218.5,405z"/>
	<path class="st30" d="M218.5,405.5v15l25.5,14.7v-15L218.5,405.5z"/>
	<path class="st31" d="M218.5,406v14.5l25.5,14.7v-14.5L218.5,406z"/>
	<path class="st32" d="M218.5,406.5v14l25.5,14.7v-14L218.5,406.5z"/>
	<path class="st33" d="M218.5,407v13.5l25.5,14.7v-13.4L218.5,407z"/>
	<path class="st34" d="M218.5,407.5v13l25.5,14.7v-12.9L218.5,407.5z"/>
	<path class="st35" d="M218.5,408.1v12.4l25.5,14.7v-12.4L218.5,408.1z"/>
	<path class="st36" d="M218.5,408.6v11.9l25.5,14.7v-11.9L218.5,408.6z"/>
	<path class="st37" d="M218.5,409.1v11.4l25.5,14.7v-11.4L218.5,409.1z"/>
	<path class="st38" d="M218.5,409.6v10.9l25.5,14.7v-10.9L218.5,409.6z"/>
	<path class="st39" d="M218.5,410.1v10.4l25.5,14.7v-10.4L218.5,410.1z"/>
	<path class="st40" d="M218.5,410.6v9.9l25.5,14.7v-9.8L218.5,410.6z"/>
	<path class="st41" d="M218.5,411.1v9.4l25.5,14.7v-9.3L218.5,411.1z"/>
	<path class="st42" d="M218.5,411.7v8.8l25.5,14.7v-8.8L218.5,411.7z"/>
	<path class="st43" d="M218.5,412.2v8.3l25.5,14.7v-8.3L218.5,412.2z"/>
	<path class="st44" d="M218.5,412.7v7.8l25.5,14.7v-7.8L218.5,412.7z"/>
	<path class="st45" d="M218.5,413.2v7.3l25.5,14.7v-7.3L218.5,413.2z"/>
	<path class="st46" d="M218.5,413.7v6.8l25.5,14.7v-6.8L218.5,413.7z"/>
	<path class="st47" d="M218.5,414.2v6.3l25.5,14.7V429L218.5,414.2z"/>
	<path class="st48" d="M218.5,414.7v5.8l25.5,14.7v-5.7L218.5,414.7z"/>
	<path class="st49" d="M218.5,415.3v5.2l25.5,14.7V430L218.5,415.3z"/>
	<path class="st50" d="M218.5,415.8v4.7l25.5,14.7v-4.7L218.5,415.8z"/>
	<path class="st51" d="M218.5,416.3v4.2l25.5,14.7V431L218.5,416.3z"/>
	<path class="st52" d="M218.5,416.8v3.7l25.5,14.7v-3.7L218.5,416.8z"/>
	<path class="st53" d="M218.5,417.3v3.2l25.5,14.7V432L218.5,417.3z"/>
</g>
<g class="st1">
	<path class="st2" d="M269.8,391.1v29.4l-25.5,14.7v-29.4L269.8,391.1z"/>
	<path class="st3" d="M269.8,391.6v28.9l-25.5,14.7v-28.8L269.8,391.6z"/>
	<path class="st4" d="M269.8,392.1v28.4l-25.5,14.7v-28.3L269.8,392.1z"/>
	<path class="st5" d="M269.8,392.7v27.8l-25.5,14.7v-27.8L269.8,392.7z"/>
	<path class="st6" d="M269.8,393.2v27.3l-25.5,14.7v-27.3L269.8,393.2z"/>
	<path class="st7" d="M269.8,393.7v26.8l-25.5,14.7v-26.8L269.8,393.7z"/>
	<path class="st8" d="M269.8,394.2v26.3l-25.5,14.7v-26.3L269.8,394.2z"/>
	<path class="st9" d="M269.8,394.7v25.8l-25.5,14.7v-25.8L269.8,394.7z"/>
	<path class="st10" d="M269.8,395.2v25.3l-25.5,14.7V410L269.8,395.2z"/>
	<path class="st11" d="M269.8,395.7v24.8l-25.5,14.7v-24.7L269.8,395.7z"/>
	<path class="st12" d="M269.8,396.3v24.2l-25.5,14.7V411L269.8,396.3z"/>
	<path class="st13" d="M269.8,396.8v23.7l-25.5,14.7v-23.7L269.8,396.8z"/>
	<path class="st14" d="M269.8,397.3v23.2l-25.5,14.7V412L269.8,397.3z"/>
	<path class="st15" d="M269.8,397.8v22.7l-25.5,14.7v-22.7L269.8,397.8z"/>
	<path class="st16" d="M269.8,398.3v22.2l-25.5,14.7V413L269.8,398.3z"/>
	<path class="st17" d="M269.8,398.8v21.7l-25.5,14.7v-21.7L269.8,398.8z"/>
	<path class="st18" d="M269.8,399.3v21.2l-25.5,14.7V414L269.8,399.3z"/>
	<path class="st19" d="M269.8,399.9v20.6l-25.5,14.7v-20.6L269.8,399.9z"/>
	<path class="st20" d="M269.8,400.4v20.1l-25.5,14.7v-20.1L269.8,400.4z"/>
	<path class="st21" d="M269.8,400.9v19.6l-25.5,14.7v-19.6L269.8,400.9z"/>
	<path class="st22" d="M269.8,401.4v19.1l-25.5,14.7v-19.1L269.8,401.4z"/>
	<path class="st23" d="M269.8,401.9v18.6l-25.5,14.7v-18.6L269.8,401.9z"/>
	<path class="st24" d="M269.8,402.4v18.1l-25.5,14.7v-18.1L269.8,402.4z"/>
	<path class="st25" d="M269.8,402.9v17.6l-25.5,14.7v-17.6L269.8,402.9z"/>
	<path class="st26" d="M269.8,403.5v17.1l-25.5,14.7v-17L269.8,403.5z"/>
	<path class="st27" d="M269.8,404v16.6l-25.5,14.7v-16.5L269.8,404z"/>
	<path class="st28" d="M269.8,404.5v16l-25.5,14.7v-16L269.8,404.5z"/>
	<path class="st29" d="M269.8,405v15.5l-25.5,14.7v-15.5L269.8,405z"/>
	<path class="st30" d="M269.8,405.5v15l-25.5,14.7v-15L269.8,405.5z"/>
	<path class="st31" d="M269.8,406v14.5l-25.5,14.7v-14.5L269.8,406z"/>
	<path class="st32" d="M269.8,406.5v14l-25.5,14.7v-14L269.8,406.5z"/>
	<path class="st33" d="M269.8,407v13.5l-25.5,14.7v-13.4L269.8,407z"/>
	<path class="st34" d="M269.8,407.5v13l-25.5,14.7v-12.9L269.8,407.5z"/>
	<path class="st35" d="M269.8,408.1v12.4l-25.5,14.7v-12.4L269.8,408.1z"/>
	<path class="st36" d="M269.8,408.6v11.9l-25.5,14.7v-11.9L269.8,408.6z"/>
	<path class="st37" d="M269.8,409.1v11.4l-25.5,14.7v-11.4L269.8,409.1z"/>
	<path class="st38" d="M269.8,409.6v10.9l-25.5,14.7v-10.9L269.8,409.6z"/>
	<path class="st39" d="M269.8,410.1v10.4l-25.5,14.7v-10.4L269.8,410.1z"/>
	<path class="st40" d="M269.8,410.6v9.9l-25.5,14.7v-9.8L269.8,410.6z"/>
	<path class="st41" d="M269.8,411.1v9.4l-25.5,14.7v-9.3L269.8,411.1z"/>
	<path class="st42" d="M269.8,411.7v8.8l-25.5,14.7v-8.8L269.8,411.7z"/>
	<path class="st43" d="M269.8,412.2v8.3l-25.5,14.7v-8.3L269.8,412.2z"/>
	<path class="st44" d="M269.8,412.7v7.8l-25.5,14.7v-7.8L269.8,412.7z"/>
	<path class="st45" d="M269.8,413.2v7.3l-25.5,14.7v-7.3L269.8,413.2z"/>
	<path class="st46" d="M269.8,413.7v6.8l-25.5,14.7v-6.8L269.8,413.7z"/>
	<path class="st47" d="M269.8,414.2v6.3l-25.5,14.7V429L269.8,414.2z"/>
	<path class="st48" d="M269.8,414.7v5.8l-25.5,14.7v-5.7L269.8,414.7z"/>
	<path class="st49" d="M269.8,415.3v5.2l-25.5,14.7V430L269.8,415.3z"/>
	<path class="st50" d="M269.8,415.8v4.7l-25.5,14.7v-4.7L269.8,415.8z"/>
	<path class="st51" d="M269.8,416.3v4.2l-25.5,14.7V431L269.8,416.3z"/>
	<path class="st52" d="M269.8,416.8v3.7l-25.5,14.7v-3.7L269.8,416.8z"/>
	<path class="st53" d="M269.8,417.3v3.2l-25.5,14.7V432L269.8,417.3z"/>
</g>
<linearGradient id="SVGID_1_" gradientUnits="userSpaceOnUse" x1="212.927" y1="1032.45" x2="275.819" y2="1032.45" gradientTransform="matrix(1 0 0 1 0 -632)">
	<stop  offset="0" style="stop-color:#3C5185"/>
	<stop  offset="0.2141" style="stop-color:#455D94"/>
	<stop  offset="0.7172" style="stop-color:#5674B3"/>
	<stop  offset="1" style="stop-color:#5D7DBE"/>
</linearGradient>
<path class="st54" d="M249.4,383.5c-2.8-1.6-7.3-1.6-10,0l-26.4,8.8v6.2c0,1.9,1,3.6,2.6,4.6l23.8,14.3c2.8,1.6,7.3,1.6,10,0
	l23.7-13.6c1.7-0.9,2.7-2.7,2.7-4.7v-6.9L249.4,383.5z"/>
<path class="st0" d="M249.4,375.4c-2.8-1.6-7.3-1.6-10,0l-24.4,14c-2.8,1.6-2.8,4.2,0,5.8l24.4,14c2.8,1.6,7.3,1.6,10,0l24.4-14
	c2.8-1.6,2.8-4.2,0-5.8L249.4,375.4z"/>
<path class="st53" d="M246.1,386.6c-0.9-0.5-2.5-0.5-3.4,0l-8.3,4.8c-0.9,0.5-0.9,1.4,0,2l8.3,4.8c0.9,0.5,2.5,0.5,3.4,0l8.3-4.8
	c0.9-0.5,0.9-1.4,0-2L246.1,386.6z"/>
<path class="st55" d="M234.4,393.4l0.3,0.2l8-4.6c0.9-0.5,2.5-0.5,3.4,0l8,4.6l0.3-0.2c0.9-0.5,0.9-1.4,0-2l-8.3-4.8
	c-0.9-0.5-2.5-0.5-3.4,0l-8.3,4.8C233.5,391.9,233.5,392.8,234.4,393.4z"/>
<linearGradient id="SVGID_2_" gradientUnits="userSpaceOnUse" x1="212.9" y1="1065.3" x2="275.7928" y2="1065.3" gradientTransform="matrix(1 0 0 1 0 -632)">
	<stop  offset="0" style="stop-color:#3C5185"/>
	<stop  offset="0.2141" style="stop-color:#455D94"/>
	<stop  offset="0.7172" style="stop-color:#5674B3"/>
	<stop  offset="1" style="stop-color:#5D7DBE"/>
</linearGradient>
<path class="st56" d="M273.8,423.1l-24.4,14c-2.8,1.6-7.3,1.6-10,0l-24.4-14c-1.4-0.8-2.1-1.8-2.1-2.9v6.2c0,1.9,1,3.6,2.6,4.6
	l23.8,14.3c2.8,1.6,7.3,1.6,10,0l23.7-13.6c1.7-0.9,2.7-2.7,2.7-4.7v-6.9C275.8,421.3,275.1,422.3,273.8,423.1z"/>
<linearGradient id="SVGID_3_" gradientUnits="userSpaceOnUse" x1="218.48" y1="1050.8375" x2="270.294" y2="1050.8375" gradientTransform="matrix(1 0 0 1 0 -632)">
	<stop  offset="0" style="stop-color:#3C5185"/>
	<stop  offset="0.2141" style="stop-color:#455D94"/>
	<stop  offset="0.7172" style="stop-color:#5674B3"/>
	<stop  offset="1" style="stop-color:#5D7DBE"/>
</linearGradient>
<path class="st57" d="M268.6,410.4L248.5,422c-2.3,1.3-6,1.3-8.3,0l-20.1-11.6c-1.1-0.7-1.7-1.5-1.7-2.4v5.1c0,1.6,0.8,3,2.1,3.8
	l19.6,11.8c2.3,1.3,6,1.3,8.3,0l19.5-11.2c1.4-0.8,2.2-2.3,2.2-3.8V408C270.3,408.9,269.7,409.8,268.6,410.4z"/>
<linearGradient id="SVGID_4_" gradientUnits="userSpaceOnUse" x1="232.459" y1="1018.9" x2="256.259" y2="1018.9" gradientTransform="matrix(1 0 0 1 0 -632)">
	<stop  offset="0" style="stop-color:#3C5185"/>
	<stop  offset="0.2141" style="stop-color:#455D94"/>
	<stop  offset="0.7172" style="stop-color:#5674B3"/>
	<stop  offset="1" style="stop-color:#5D7DBE"/>
</linearGradient>
<path class="st58" d="M246.3,380.5c-1.1-0.6-2.8-0.6-3.8,0l-10,3.3v2.3c0,0.7,0.4,1.4,1,1.8l9,5.4c1.1,0.6,2.8,0.6,3.8,0l9-5.1
	c0.6-0.4,1-1,1-1.8v-2.6L246.3,380.5z"/>
<path class="st55" d="M246.3,377.5c-1.1-0.6-2.8-0.6-3.8,0l-9.2,5.3c-1.1,0.6-1.1,1.6,0,2.2l9.2,5.3c1.1,0.6,2.8,0.6,3.8,0l9.2-5.3
	c1.1-0.6,1.1-1.6,0-2.2L246.3,377.5z"/>
</svg>
