<?xml version="1.0" encoding="utf-8"?>
<!-- Generator: Adobe Illustrator 24.0.1, SVG Export Plug-In . SVG Version: 6.00 Build 0)  -->
<svg version="1.1" id="Layer_1" xmlns="http://www.w3.org/2000/svg" xmlns:xlink="http://www.w3.org/1999/xlink" x="0px" y="0px"
	 viewBox="0 0 422 447" style="enable-background:new 0 0 422 447;" xml:space="preserve">
<style type="text/css">
	.st0{fill:#EDF3FA;}
	.st1{opacity:0.21;}
	.st2{opacity:1.000000e-02;fill:#3C5185;enable-background:new    ;}
	.st3{opacity:1.960000e-02;fill:#3C5185;enable-background:new    ;}
	.st4{opacity:3.920000e-02;fill:#3C5185;enable-background:new    ;}
	.st5{opacity:5.880000e-02;fill:#3C5185;enable-background:new    ;}
	.st6{opacity:7.840000e-02;fill:#3C5185;enable-background:new    ;}
	.st7{opacity:9.800000e-02;fill:#3C5185;enable-background:new    ;}
	.st8{opacity:0.1176;fill:#3C5185;enable-background:new    ;}
	.st9{opacity:0.1373;fill:#3C5185;enable-background:new    ;}
	.st10{opacity:0.1569;fill:#3C5185;enable-background:new    ;}
	.st11{opacity:0.1765;fill:#3C5185;enable-background:new    ;}
	.st12{opacity:0.1961;fill:#3C5185;enable-background:new    ;}
	.st13{opacity:0.2157;fill:#3C5185;enable-background:new    ;}
	.st14{opacity:0.2353;fill:#3C5185;enable-background:new    ;}
	.st15{opacity:0.2549;fill:#3C5185;enable-background:new    ;}
	.st16{opacity:0.2745;fill:#3C5185;enable-background:new    ;}
	.st17{opacity:0.2941;fill:#3C5185;enable-background:new    ;}
	.st18{opacity:0.3137;fill:#3C5185;enable-background:new    ;}
	.st19{opacity:0.3333;fill:#3C5185;enable-background:new    ;}
	.st20{opacity:0.3529;fill:#3C5185;enable-background:new    ;}
	.st21{opacity:0.3725;fill:#3C5185;enable-background:new    ;}
	.st22{opacity:0.3922;fill:#3C5185;enable-background:new    ;}
	.st23{opacity:0.4118;fill:#3C5185;enable-background:new    ;}
	.st24{opacity:0.4314;fill:#3C5185;enable-background:new    ;}
	.st25{opacity:0.451;fill:#3C5185;enable-background:new    ;}
	.st26{opacity:0.4706;fill:#3C5185;enable-background:new    ;}
	.st27{opacity:0.4902;fill:#3C5185;enable-background:new    ;}
	.st28{opacity:0.5098;fill:#3C5185;enable-background:new    ;}
	.st29{opacity:0.5294;fill:#3C5185;enable-background:new    ;}
	.st30{opacity:0.549;fill:#3C5185;enable-background:new    ;}
	.st31{opacity:0.5686;fill:#3C5185;enable-background:new    ;}
	.st32{opacity:0.5882;fill:#3C5185;enable-background:new    ;}
	.st33{opacity:0.6078;fill:#3C5185;enable-background:new    ;}
	.st34{opacity:0.6275;fill:#3C5185;enable-background:new    ;}
	.st35{opacity:0.6471;fill:#3C5185;enable-background:new    ;}
	.st36{opacity:0.6667;fill:#3C5185;enable-background:new    ;}
	.st37{opacity:0.6863;fill:#3C5185;enable-background:new    ;}
	.st38{opacity:0.7059;fill:#3C5185;enable-background:new    ;}
	.st39{opacity:0.7255;fill:#3C5185;enable-background:new    ;}
	.st40{opacity:0.7451;fill:#3C5185;enable-background:new    ;}
	.st41{opacity:0.7647;fill:#3C5185;enable-background:new    ;}
	.st42{opacity:0.7843;fill:#3C5185;enable-background:new    ;}
	.st43{opacity:0.8039;fill:#3C5185;enable-background:new    ;}
	.st44{opacity:0.8235;fill:#3C5185;enable-background:new    ;}
	.st45{opacity:0.8431;fill:#3C5185;enable-background:new    ;}
	.st46{opacity:0.8627;fill:#3C5185;enable-background:new    ;}
	.st47{opacity:0.8824;fill:#3C5185;enable-background:new    ;}
	.st48{opacity:0.902;fill:#3C5185;enable-background:new    ;}
	.st49{opacity:0.9216;fill:#3C5185;enable-background:new    ;}
	.st50{opacity:0.9412;fill:#3C5185;enable-background:new    ;}
	.st51{opacity:0.9608;fill:#3C5185;enable-background:new    ;}
	.st52{opacity:0.9804;fill:#3C5185;enable-background:new    ;}
	.st53{fill:#3C5185;}
	.st54{fill:url(#SVGID_1_);}
	.st55{fill:url(#SVGID_2_);}
	.st56{opacity:0.38;fill:url(#SVGID_3_);enable-background:new    ;}
</style>
<path class="st0" d="M379.7,291.7c-4.4-2.5-11.5-2.5-15.9,0l-38.5,22.2c-4.4,2.5-4.4,6.6,0,9.2l38.5,22.2c4.4,2.5,11.5,2.5,15.9,0
	l38.5-22.2c4.4-2.5,4.4-6.6,0-9.2L379.7,291.7z"/>
<g class="st1">
	<path class="st2" d="M331,272.5v46.4l40.2,23.2v-46.4L331,272.5z"/>
	<path class="st3" d="M331,273.3v45.6l40.2,23.2v-45.6L331,273.3z"/>
	<path class="st4" d="M331,274.1v44.8l40.2,23.2v-44.8L331,274.1z"/>
	<path class="st5" d="M331,274.9v44l40.2,23.2v-43.9L331,274.9z"/>
	<path class="st6" d="M331,275.8V319l40.2,23.2V299L331,275.8z"/>
	<path class="st7" d="M331,276.6V319l40.2,23.2v-42.3L331,276.6z"/>
	<path class="st8" d="M331,277.4v41.5l40.2,23.2v-41.5L331,277.4z"/>
	<path class="st9" d="M331,278.2v40.7l40.2,23.2v-40.7L331,278.2z"/>
	<path class="st10" d="M331,279v39.9l40.2,23.2v-39.9L331,279z"/>
	<path class="st11" d="M331,279.8v39.1l40.2,23.2V303L331,279.8z"/>
	<path class="st12" d="M331,280.6v38.3l40.2,23.2v-38.3L331,280.6z"/>
	<path class="st13" d="M331,281.4v37.5l40.2,23.2v-37.5L331,281.4z"/>
	<path class="st14" d="M331,282.2v36.7l40.2,23.2v-36.6L331,282.2z"/>
	<path class="st15" d="M331,283.1V319l40.2,23.2v-35.8L331,283.1z"/>
	<path class="st16" d="M331,283.9V319l40.2,23.2v-35L331,283.9z"/>
	<path class="st17" d="M331,284.7v34.2l40.2,23.2v-34.2L331,284.7z"/>
	<path class="st18" d="M331,285.5v33.4l40.2,23.2v-33.4L331,285.5z"/>
	<path class="st19" d="M331,286.3v32.6l40.2,23.2v-32.6L331,286.3z"/>
	<path class="st20" d="M331,287.1v31.8l40.2,23.2v-31.8L331,287.1z"/>
	<path class="st21" d="M331,287.9v31l40.2,23.2v-31L331,287.9z"/>
	<path class="st22" d="M331,288.7v30.2l40.2,23.2V312L331,288.7z"/>
	<path class="st23" d="M331,289.5v29.4l40.2,23.2v-29.3L331,289.5z"/>
	<path class="st24" d="M331,290.4V319l40.2,23.2v-28.5L331,290.4z"/>
	<path class="st25" d="M331,291.2V319l40.2,23.2v-27.7L331,291.2z"/>
	<path class="st26" d="M331,292v26.9l40.2,23.2v-26.9L331,292z"/>
	<path class="st27" d="M331,292.8v26.1l40.2,23.2V316L331,292.8z"/>
	<path class="st28" d="M331,293.6v25.3l40.2,23.2v-25.3L331,293.6z"/>
	<path class="st29" d="M331,294.4v24.5l40.2,23.2v-24.5L331,294.4z"/>
	<path class="st30" d="M331,295.2v23.7l40.2,23.2v-23.7L331,295.2z"/>
	<path class="st31" d="M331,296v22.9l40.2,23.2v-22.9L331,296z"/>
	<path class="st32" d="M331,296.8v22.1l40.2,23.2v-22L331,296.8z"/>
	<path class="st33" d="M331,297.7V319l40.2,23.2V321L331,297.7z"/>
	<path class="st34" d="M331,298.5V319l40.2,23.2v-20.4L331,298.5z"/>
	<path class="st35" d="M331,299.3v19.6l40.2,23.2v-19.6L331,299.3z"/>
	<path class="st36" d="M331,300.1v18.8l40.2,23.2v-18.8L331,300.1z"/>
	<path class="st37" d="M331,300.9v18l40.2,23.2v-18L331,300.9z"/>
	<path class="st38" d="M331,301.7v17.2l40.2,23.2v-17.2L331,301.7z"/>
	<path class="st39" d="M331,302.5v16.4l40.2,23.2v-16.4L331,302.5z"/>
	<path class="st40" d="M331,303.3v15.6l40.2,23.2v-15.6L331,303.3z"/>
	<path class="st41" d="M331,304.1v14.8l40.2,23.2v-14.7L331,304.1z"/>
	<path class="st42" d="M331,305v14l40.2,23.2v-13.9L331,305z"/>
	<path class="st43" d="M331,305.8V319l40.2,23.2V329L331,305.8z"/>
	<path class="st44" d="M331,306.6v12.3l40.2,23.2v-12.3L331,306.6z"/>
	<path class="st45" d="M331,307.4v11.5l40.2,23.2v-11.5L331,307.4z"/>
	<path class="st46" d="M331,308.2v10.7l40.2,23.2v-10.7L331,308.2z"/>
	<path class="st47" d="M331,309v9.9l40.2,23.2v-9.9L331,309z"/>
	<path class="st48" d="M331,309.8v9.1l40.2,23.2V333L331,309.8z"/>
	<path class="st49" d="M331,310.6v8.3l40.2,23.2v-8.3L331,310.6z"/>
	<path class="st50" d="M331,311.4v7.5l40.2,23.2v-7.4L331,311.4z"/>
	<path class="st51" d="M331,312.3v6.7l40.2,23.2v-6.6L331,312.3z"/>
	<path class="st52" d="M331,313.1v5.9l40.2,23.2v-5.8L331,313.1z"/>
	<path class="st53" d="M331,313.9v5l40.2,23.2v-5L331,313.9z"/>
</g>
<g class="st1">
	<path class="st2" d="M411.9,272.5v46.4l-40.2,23.2v-46.4L411.9,272.5z"/>
	<path class="st3" d="M411.9,273.3v45.6l-40.2,23.2v-45.6L411.9,273.3z"/>
	<path class="st4" d="M411.9,274.1v44.8l-40.2,23.2v-44.8L411.9,274.1z"/>
	<path class="st5" d="M411.9,274.9v44l-40.2,23.2v-43.9L411.9,274.9z"/>
	<path class="st6" d="M411.9,275.8V319l-40.2,23.2V299L411.9,275.8z"/>
	<path class="st7" d="M411.9,276.6V319l-40.2,23.2v-42.3L411.9,276.6z"/>
	<path class="st8" d="M411.9,277.4v41.5l-40.2,23.2v-41.5L411.9,277.4z"/>
	<path class="st9" d="M411.9,278.2v40.7l-40.2,23.2v-40.7L411.9,278.2z"/>
	<path class="st10" d="M411.9,279v39.9l-40.2,23.2v-39.9L411.9,279z"/>
	<path class="st11" d="M411.9,279.8v39.1l-40.2,23.2V303L411.9,279.8z"/>
	<path class="st12" d="M411.9,280.6v38.3l-40.2,23.2v-38.3L411.9,280.6z"/>
	<path class="st13" d="M411.9,281.4v37.5l-40.2,23.2v-37.5L411.9,281.4z"/>
	<path class="st14" d="M411.9,282.2v36.7l-40.2,23.2v-36.6L411.9,282.2z"/>
	<path class="st15" d="M411.9,283.1V319l-40.2,23.2v-35.8L411.9,283.1z"/>
	<path class="st16" d="M411.9,283.9V319l-40.2,23.2v-35L411.9,283.9z"/>
	<path class="st17" d="M411.9,284.7v34.2l-40.2,23.2v-34.2L411.9,284.7z"/>
	<path class="st18" d="M411.9,285.5v33.4l-40.2,23.2v-33.4L411.9,285.5z"/>
	<path class="st19" d="M411.9,286.3v32.6l-40.2,23.2v-32.6L411.9,286.3z"/>
	<path class="st20" d="M411.9,287.1v31.8l-40.2,23.2v-31.8L411.9,287.1z"/>
	<path class="st21" d="M411.9,287.9v31l-40.2,23.2v-31L411.9,287.9z"/>
	<path class="st22" d="M411.9,288.7v30.2l-40.2,23.2V312L411.9,288.7z"/>
	<path class="st23" d="M411.9,289.5v29.4l-40.2,23.2v-29.3L411.9,289.5z"/>
	<path class="st24" d="M411.9,290.4V319l-40.2,23.2v-28.5L411.9,290.4z"/>
	<path class="st25" d="M411.9,291.2V319l-40.2,23.2v-27.7L411.9,291.2z"/>
	<path class="st26" d="M411.9,292v26.9l-40.2,23.2v-26.9L411.9,292z"/>
	<path class="st27" d="M411.9,292.8v26.1l-40.2,23.2V316L411.9,292.8z"/>
	<path class="st28" d="M411.9,293.6v25.3l-40.2,23.2v-25.3L411.9,293.6z"/>
	<path class="st29" d="M411.9,294.4v24.5l-40.2,23.2v-24.5L411.9,294.4z"/>
	<path class="st30" d="M411.9,295.2v23.7l-40.2,23.2v-23.7L411.9,295.2z"/>
	<path class="st31" d="M411.9,296v22.9l-40.2,23.2v-22.9L411.9,296z"/>
	<path class="st32" d="M411.9,296.8v22.1l-40.2,23.2v-22L411.9,296.8z"/>
	<path class="st33" d="M411.9,297.7V319l-40.2,23.2V321L411.9,297.7z"/>
	<path class="st34" d="M411.9,298.5V319l-40.2,23.2v-20.4L411.9,298.5z"/>
	<path class="st35" d="M411.9,299.3v19.6l-40.2,23.2v-19.6L411.9,299.3z"/>
	<path class="st36" d="M411.9,300.1v18.8l-40.2,23.2v-18.8L411.9,300.1z"/>
	<path class="st37" d="M411.9,300.9v18l-40.2,23.2v-18L411.9,300.9z"/>
	<path class="st38" d="M411.9,301.7v17.2l-40.2,23.2v-17.2L411.9,301.7z"/>
	<path class="st39" d="M411.9,302.5v16.4l-40.2,23.2v-16.4L411.9,302.5z"/>
	<path class="st40" d="M411.9,303.3v15.6l-40.2,23.2v-15.6L411.9,303.3z"/>
	<path class="st41" d="M411.9,304.1v14.8l-40.2,23.2v-14.7L411.9,304.1z"/>
	<path class="st42" d="M411.9,305v14l-40.2,23.2v-13.9L411.9,305z"/>
	<path class="st43" d="M411.9,305.8V319l-40.2,23.2V329L411.9,305.8z"/>
	<path class="st44" d="M411.9,306.6v12.3l-40.2,23.2v-12.3L411.9,306.6z"/>
	<path class="st45" d="M411.9,307.4v11.5l-40.2,23.2v-11.5L411.9,307.4z"/>
	<path class="st46" d="M411.9,308.2v10.7l-40.2,23.2v-10.7L411.9,308.2z"/>
	<path class="st47" d="M411.9,309v9.9l-40.2,23.2v-9.9L411.9,309z"/>
	<path class="st48" d="M411.9,309.8v9.1l-40.2,23.2V333L411.9,309.8z"/>
	<path class="st49" d="M411.9,310.6v8.3l-40.2,23.2v-8.3L411.9,310.6z"/>
	<path class="st50" d="M411.9,311.4v7.5l-40.2,23.2v-7.4L411.9,311.4z"/>
	<path class="st51" d="M411.9,312.3v6.7l-40.2,23.2v-6.6L411.9,312.3z"/>
	<path class="st52" d="M411.9,313.1v5.9l-40.2,23.2v-5.8L411.9,313.1z"/>
	<path class="st53" d="M411.9,313.9v5l-40.2,23.2v-5L411.9,313.9z"/>
</g>
<linearGradient id="SVGID_1_" gradientUnits="userSpaceOnUse" x1="322" y1="1551.3" x2="421.4" y2="1551.3" gradientTransform="matrix(1 0 0 1 0 -1264)">
	<stop  offset="0" style="stop-color:#3C5185"/>
	<stop  offset="0.2141" style="stop-color:#455D94"/>
	<stop  offset="0.7172" style="stop-color:#5674B3"/>
	<stop  offset="1" style="stop-color:#5D7DBE"/>
</linearGradient>
<path class="st54" d="M379.7,260.5c-4.4-2.5-11.5-2.5-15.9,0l-41.8,14v9.7c0,3,1.6,5.7,4.1,7.3l37.6,22.6c4.4,2.5,11.5,2.5,15.9,0
	l37.5-21.4c2.6-1.5,4.3-4.3,4.3-7.4v-10.8L379.7,260.5z"/>
<path class="st0" d="M379.7,247.7c-4.4-2.5-11.5-2.5-15.9,0l-38.5,22.2c-4.4,2.5-4.4,6.6,0,9.2l38.5,22.2c4.4,2.5,11.5,2.5,15.9,0
	l38.5-22.2c4.4-2.5,4.4-6.6,0-9.2L379.7,247.7z"/>
<linearGradient id="SVGID_2_" gradientUnits="userSpaceOnUse" x1="322.1" y1="1603.1375" x2="421.5" y2="1603.1375" gradientTransform="matrix(1 0 0 1 0 -1264)">
	<stop  offset="0" style="stop-color:#3C5185"/>
	<stop  offset="0.2141" style="stop-color:#455D94"/>
	<stop  offset="0.7172" style="stop-color:#5674B3"/>
	<stop  offset="1" style="stop-color:#5D7DBE"/>
</linearGradient>
<path class="st55" d="M418.2,323l-38.5,22.2c-4.4,2.5-11.5,2.5-15.9,0L325.4,323c-2.2-1.3-3.3-2.9-3.3-4.6v9.7c0,3,1.6,5.7,4.1,7.3
	l37.6,22.6c4.4,2.5,11.5,2.5,15.9,0l37.5-21.4c2.7-1.5,4.3-4.3,4.3-7.4v-10.8C421.5,320.1,420.4,321.8,418.2,323z"/>
<linearGradient id="SVGID_3_" gradientUnits="userSpaceOnUse" x1="330.9" y1="1580.4375" x2="411.9" y2="1580.4375" gradientTransform="matrix(1 0 0 1 0 -1264)">
	<stop  offset="0" style="stop-color:#3C5185"/>
	<stop  offset="0.2141" style="stop-color:#455D94"/>
	<stop  offset="0.7172" style="stop-color:#5674B3"/>
	<stop  offset="1" style="stop-color:#5D7DBE"/>
</linearGradient>
<path class="st56" d="M409.3,303.3l-31.4,18.1c-3.6,2.1-9.4,2.1-12.9,0l-31.4-18.1c-1.8-1-2.7-2.4-2.7-3.7v7.9
	c0,2.4,1.3,4.7,3.3,5.9l30.7,18.4c3.6,2.1,9.4,2.1,12.9,0l30.6-17.5c2.1-1.2,3.5-3.5,3.5-6v-8.8C411.9,300.9,411,302.3,409.3,303.3z
	"/>
</svg>
