<?xml version="1.0" encoding="utf-8"?>
<!-- Generator: Adobe Illustrator 24.0.1, SVG Export Plug-In . SVG Version: 6.00 Build 0)  -->
<svg version="1.1" id="Layer_1" xmlns="http://www.w3.org/2000/svg" xmlns:xlink="http://www.w3.org/1999/xlink" x="0px" y="0px"
	 viewBox="0 0 422 447" style="enable-background:new 0 0 422 447;" xml:space="preserve">
<style type="text/css">
	.st0{fill:#EDF3FA;}
	.st1{opacity:0.21;}
	.st2{opacity:1.000000e-02;fill:#3C5185;enable-background:new    ;}
	.st3{opacity:1.960000e-02;fill:#3C5185;enable-background:new    ;}
	.st4{opacity:3.920000e-02;fill:#3C5185;enable-background:new    ;}
	.st5{opacity:5.880000e-02;fill:#3C5185;enable-background:new    ;}
	.st6{opacity:7.840000e-02;fill:#3C5185;enable-background:new    ;}
	.st7{opacity:9.800000e-02;fill:#3C5185;enable-background:new    ;}
	.st8{opacity:0.1176;fill:#3C5185;enable-background:new    ;}
	.st9{opacity:0.1373;fill:#3C5185;enable-background:new    ;}
	.st10{opacity:0.1569;fill:#3C5185;enable-background:new    ;}
	.st11{opacity:0.1765;fill:#3C5185;enable-background:new    ;}
	.st12{opacity:0.1961;fill:#3C5185;enable-background:new    ;}
	.st13{opacity:0.2157;fill:#3C5185;enable-background:new    ;}
	.st14{opacity:0.2353;fill:#3C5185;enable-background:new    ;}
	.st15{opacity:0.2549;fill:#3C5185;enable-background:new    ;}
	.st16{opacity:0.2745;fill:#3C5185;enable-background:new    ;}
	.st17{opacity:0.2941;fill:#3C5185;enable-background:new    ;}
	.st18{opacity:0.3137;fill:#3C5185;enable-background:new    ;}
	.st19{opacity:0.3333;fill:#3C5185;enable-background:new    ;}
	.st20{opacity:0.3529;fill:#3C5185;enable-background:new    ;}
	.st21{opacity:0.3725;fill:#3C5185;enable-background:new    ;}
	.st22{opacity:0.3922;fill:#3C5185;enable-background:new    ;}
	.st23{opacity:0.4118;fill:#3C5185;enable-background:new    ;}
	.st24{opacity:0.4314;fill:#3C5185;enable-background:new    ;}
	.st25{opacity:0.451;fill:#3C5185;enable-background:new    ;}
	.st26{opacity:0.4706;fill:#3C5185;enable-background:new    ;}
	.st27{opacity:0.4902;fill:#3C5185;enable-background:new    ;}
	.st28{opacity:0.5098;fill:#3C5185;enable-background:new    ;}
	.st29{opacity:0.5294;fill:#3C5185;enable-background:new    ;}
	.st30{opacity:0.549;fill:#3C5185;enable-background:new    ;}
	.st31{opacity:0.5686;fill:#3C5185;enable-background:new    ;}
	.st32{opacity:0.5882;fill:#3C5185;enable-background:new    ;}
	.st33{opacity:0.6078;fill:#3C5185;enable-background:new    ;}
	.st34{opacity:0.6275;fill:#3C5185;enable-background:new    ;}
	.st35{opacity:0.6471;fill:#3C5185;enable-background:new    ;}
	.st36{opacity:0.6667;fill:#3C5185;enable-background:new    ;}
	.st37{opacity:0.6863;fill:#3C5185;enable-background:new    ;}
	.st38{opacity:0.7059;fill:#3C5185;enable-background:new    ;}
	.st39{opacity:0.7255;fill:#3C5185;enable-background:new    ;}
	.st40{opacity:0.7451;fill:#3C5185;enable-background:new    ;}
	.st41{opacity:0.7647;fill:#3C5185;enable-background:new    ;}
	.st42{opacity:0.7843;fill:#3C5185;enable-background:new    ;}
	.st43{opacity:0.8039;fill:#3C5185;enable-background:new    ;}
	.st44{opacity:0.8235;fill:#3C5185;enable-background:new    ;}
	.st45{opacity:0.8431;fill:#3C5185;enable-background:new    ;}
	.st46{opacity:0.8627;fill:#3C5185;enable-background:new    ;}
	.st47{opacity:0.8824;fill:#3C5185;enable-background:new    ;}
	.st48{opacity:0.902;fill:#3C5185;enable-background:new    ;}
	.st49{opacity:0.9216;fill:#3C5185;enable-background:new    ;}
	.st50{opacity:0.9412;fill:#3C5185;enable-background:new    ;}
	.st51{opacity:0.9608;fill:#3C5185;enable-background:new    ;}
	.st52{opacity:0.9804;fill:#3C5185;enable-background:new    ;}
	.st53{fill:#3C5185;}
	.st54{fill:url(#SVGID_1_);}
	.st55{fill:#FFFFFF;}
	.st56{fill:url(#SVGID_2_);}
	.st57{opacity:0.38;fill:url(#SVGID_3_);enable-background:new    ;}
	.st58{fill:url(#SVGID_4_);}
</style>
<path class="st0" d="M37.5,176.6c-2.8-1.6-7.3-1.6-10,0l-24.4,14c-2.8,1.6-2.8,4.2,0,5.8l24.4,14c2.8,1.6,7.3,1.6,10,0l24.4-14
	c2.8-1.6,2.8-4.2,0-5.8L37.5,176.6z"/>
<g class="st1">
	<path class="st2" d="M6.6,164.5v29.4l25.5,14.7v-29.4L6.6,164.5z"/>
	<path class="st3" d="M6.6,165v28.9l25.5,14.7v-28.8L6.6,165z"/>
	<path class="st4" d="M6.6,165.5v28.4l25.5,14.7v-28.3L6.6,165.5z"/>
	<path class="st5" d="M6.6,166v27.8l25.5,14.7v-27.8L6.6,166z"/>
	<path class="st6" d="M6.6,166.5v27.3l25.5,14.7v-27.3L6.6,166.5z"/>
	<path class="st7" d="M6.6,167v26.8l25.5,14.7v-26.8L6.6,167z"/>
	<path class="st8" d="M6.6,167.5v26.3l25.5,14.7v-26.3L6.6,167.5z"/>
	<path class="st9" d="M6.6,168.1v25.8l25.5,14.7v-25.8L6.6,168.1z"/>
	<path class="st10" d="M6.6,168.6v25.3l25.5,14.7v-25.2L6.6,168.6z"/>
	<path class="st11" d="M6.6,169.1v24.8l25.5,14.7v-24.7L6.6,169.1z"/>
	<path class="st12" d="M6.6,169.6v24.2l25.5,14.7v-24.2L6.6,169.6z"/>
	<path class="st13" d="M6.6,170.1v23.7l25.5,14.7v-23.7L6.6,170.1z"/>
	<path class="st14" d="M6.6,170.6v23.2l25.5,14.7v-23.2L6.6,170.6z"/>
	<path class="st15" d="M6.6,171.1v22.7l25.5,14.7v-22.7L6.6,171.1z"/>
	<path class="st16" d="M6.6,171.6v22.2l25.5,14.7v-22.2L6.6,171.6z"/>
	<path class="st17" d="M6.6,172.1v21.7l25.5,14.7v-21.7L6.6,172.1z"/>
	<path class="st18" d="M6.6,172.6v21.2l25.5,14.7v-21.2L6.6,172.6z"/>
	<path class="st19" d="M6.6,173.2v20.6l25.5,14.7v-20.6L6.6,173.2z"/>
	<path class="st20" d="M6.6,173.7v20.1l25.5,14.7v-20.1L6.6,173.7z"/>
	<path class="st21" d="M6.6,174.2v19.6l25.5,14.7v-19.6L6.6,174.2z"/>
	<path class="st22" d="M6.6,174.7v19.1l25.5,14.7v-19.1L6.6,174.7z"/>
	<path class="st23" d="M6.6,175.2v18.6l25.5,14.7v-18.6L6.6,175.2z"/>
	<path class="st24" d="M6.6,175.7v18.1l25.5,14.7v-18.1L6.6,175.7z"/>
	<path class="st25" d="M6.6,176.2v17.6l25.5,14.7V191L6.6,176.2z"/>
	<path class="st26" d="M6.6,176.8v17.1l25.5,14.7v-17L6.6,176.8z"/>
	<path class="st27" d="M6.6,177.3v16.6l25.5,14.7V192L6.6,177.3z"/>
	<path class="st28" d="M6.6,177.8v16l25.5,14.7v-16L6.6,177.8z"/>
	<path class="st29" d="M6.6,178.3v15.5l25.5,14.7V193L6.6,178.3z"/>
	<path class="st30" d="M6.6,178.8v15l25.5,14.7v-15L6.6,178.8z"/>
	<path class="st31" d="M6.6,179.3v14.5l25.5,14.7V194L6.6,179.3z"/>
	<path class="st32" d="M6.6,179.8v14l25.5,14.7v-14L6.6,179.8z"/>
	<path class="st33" d="M6.6,180.4v13.5l25.5,14.7v-13.4L6.6,180.4z"/>
	<path class="st34" d="M6.6,180.9v13l25.5,14.7v-12.9L6.6,180.9z"/>
	<path class="st35" d="M6.6,181.4v12.4l25.5,14.7v-12.4L6.6,181.4z"/>
	<path class="st36" d="M6.6,181.9v11.9l25.5,14.7v-11.9L6.6,181.9z"/>
	<path class="st37" d="M6.6,182.4v11.4l25.5,14.7v-11.4L6.6,182.4z"/>
	<path class="st38" d="M6.6,182.9v10.9l25.5,14.7v-10.9L6.6,182.9z"/>
	<path class="st39" d="M6.6,183.4v10.4l25.5,14.7v-10.4L6.6,183.4z"/>
	<path class="st40" d="M6.6,184v9.9l25.5,14.7v-9.8L6.6,184z"/>
	<path class="st41" d="M6.6,184.5v9.4l25.5,14.7v-9.3L6.6,184.5z"/>
	<path class="st42" d="M6.6,185v8.8l25.5,14.7v-8.8L6.6,185z"/>
	<path class="st43" d="M6.6,185.5v8.3l25.5,14.7v-8.3L6.6,185.5z"/>
	<path class="st44" d="M6.6,186v7.8l25.5,14.7v-7.8L6.6,186z"/>
	<path class="st45" d="M6.6,186.5v7.3l25.5,14.7v-7.3L6.6,186.5z"/>
	<path class="st46" d="M6.6,187v6.8l25.5,14.7v-6.8L6.6,187z"/>
	<path class="st47" d="M6.6,187.6v6.3l25.5,14.7v-6.2L6.6,187.6z"/>
	<path class="st48" d="M6.6,188.1v5.8l25.5,14.7v-5.7L6.6,188.1z"/>
	<path class="st49" d="M6.6,188.6v5.2l25.5,14.7v-5.2L6.6,188.6z"/>
	<path class="st50" d="M6.6,189.1v4.7l25.5,14.7v-4.7L6.6,189.1z"/>
	<path class="st51" d="M6.6,189.6v4.2l25.5,14.7v-4.2L6.6,189.6z"/>
	<path class="st52" d="M6.6,190.1v3.7l25.5,14.7v-3.7L6.6,190.1z"/>
	<path class="st53" d="M6.6,190.6v3.2l25.5,14.7v-3.2L6.6,190.6z"/>
</g>
<g class="st1">
	<path class="st2" d="M57.9,164.5v29.4l-25.5,14.7v-29.4L57.9,164.5z"/>
	<path class="st3" d="M57.9,165v28.9l-25.5,14.7v-28.8L57.9,165z"/>
	<path class="st4" d="M57.9,165.5v28.4l-25.5,14.7v-28.3L57.9,165.5z"/>
	<path class="st5" d="M57.9,166v27.8l-25.5,14.7v-27.8L57.9,166z"/>
	<path class="st6" d="M57.9,166.5v27.3l-25.5,14.7v-27.3L57.9,166.5z"/>
	<path class="st7" d="M57.9,167v26.8l-25.5,14.7v-26.8L57.9,167z"/>
	<path class="st8" d="M57.9,167.5v26.3l-25.5,14.7v-26.3L57.9,167.5z"/>
	<path class="st9" d="M57.9,168.1v25.8l-25.5,14.7v-25.8L57.9,168.1z"/>
	<path class="st10" d="M57.9,168.6v25.3l-25.5,14.7v-25.2L57.9,168.6z"/>
	<path class="st11" d="M57.9,169.1v24.8l-25.5,14.7v-24.7L57.9,169.1z"/>
	<path class="st12" d="M57.9,169.6v24.2l-25.5,14.7v-24.2L57.9,169.6z"/>
	<path class="st13" d="M57.9,170.1v23.7l-25.5,14.7v-23.7L57.9,170.1z"/>
	<path class="st14" d="M57.9,170.6v23.2l-25.5,14.7v-23.2L57.9,170.6z"/>
	<path class="st15" d="M57.9,171.1v22.7l-25.5,14.7v-22.7L57.9,171.1z"/>
	<path class="st16" d="M57.9,171.6v22.2l-25.5,14.7v-22.2L57.9,171.6z"/>
	<path class="st17" d="M57.9,172.1v21.7l-25.5,14.7v-21.7L57.9,172.1z"/>
	<path class="st18" d="M57.9,172.6v21.2l-25.5,14.7v-21.2L57.9,172.6z"/>
	<path class="st19" d="M57.9,173.2v20.6l-25.5,14.7v-20.6L57.9,173.2z"/>
	<path class="st20" d="M57.9,173.7v20.1l-25.5,14.7v-20.1L57.9,173.7z"/>
	<path class="st21" d="M57.9,174.2v19.6l-25.5,14.7v-19.6L57.9,174.2z"/>
	<path class="st22" d="M57.9,174.7v19.1l-25.5,14.7v-19.1L57.9,174.7z"/>
	<path class="st23" d="M57.9,175.2v18.6l-25.5,14.7v-18.6L57.9,175.2z"/>
	<path class="st24" d="M57.9,175.7v18.1l-25.5,14.7v-18.1L57.9,175.7z"/>
	<path class="st25" d="M57.9,176.2v17.6l-25.5,14.7V191L57.9,176.2z"/>
	<path class="st26" d="M57.9,176.8v17.1l-25.5,14.7v-17L57.9,176.8z"/>
	<path class="st27" d="M57.9,177.3v16.6l-25.5,14.7V192L57.9,177.3z"/>
	<path class="st28" d="M57.9,177.8v16l-25.5,14.7v-16L57.9,177.8z"/>
	<path class="st29" d="M57.9,178.3v15.5l-25.5,14.7V193L57.9,178.3z"/>
	<path class="st30" d="M57.9,178.8v15l-25.5,14.7v-15L57.9,178.8z"/>
	<path class="st31" d="M57.9,179.3v14.5l-25.5,14.7V194L57.9,179.3z"/>
	<path class="st32" d="M57.9,179.8v14l-25.5,14.7v-14L57.9,179.8z"/>
	<path class="st33" d="M57.9,180.4v13.5l-25.5,14.7v-13.4L57.9,180.4z"/>
	<path class="st34" d="M57.9,180.9v13l-25.5,14.7v-12.9L57.9,180.9z"/>
	<path class="st35" d="M57.9,181.4v12.4l-25.5,14.7v-12.4L57.9,181.4z"/>
	<path class="st36" d="M57.9,181.9v11.9l-25.5,14.7v-11.9L57.9,181.9z"/>
	<path class="st37" d="M57.9,182.4v11.4l-25.5,14.7v-11.4L57.9,182.4z"/>
	<path class="st38" d="M57.9,182.9v10.9l-25.5,14.7v-10.9L57.9,182.9z"/>
	<path class="st39" d="M57.9,183.4v10.4l-25.5,14.7v-10.4L57.9,183.4z"/>
	<path class="st40" d="M57.9,184v9.9l-25.5,14.7v-9.8L57.9,184z"/>
	<path class="st41" d="M57.9,184.5v9.4l-25.5,14.7v-9.3L57.9,184.5z"/>
	<path class="st42" d="M57.9,185v8.8l-25.5,14.7v-8.8L57.9,185z"/>
	<path class="st43" d="M57.9,185.5v8.3l-25.5,14.7v-8.3L57.9,185.5z"/>
	<path class="st44" d="M57.9,186v7.8l-25.5,14.7v-7.8L57.9,186z"/>
	<path class="st45" d="M57.9,186.5v7.3l-25.5,14.7v-7.3L57.9,186.5z"/>
	<path class="st46" d="M57.9,187v6.8l-25.5,14.7v-6.8L57.9,187z"/>
	<path class="st47" d="M57.9,187.6v6.3l-25.5,14.7v-6.2L57.9,187.6z"/>
	<path class="st48" d="M57.9,188.1v5.8l-25.5,14.7v-5.7L57.9,188.1z"/>
	<path class="st49" d="M57.9,188.6v5.2l-25.5,14.7v-5.2L57.9,188.6z"/>
	<path class="st50" d="M57.9,189.1v4.7l-25.5,14.7v-4.7L57.9,189.1z"/>
	<path class="st51" d="M57.9,189.6v4.2l-25.5,14.7v-4.2L57.9,189.6z"/>
	<path class="st52" d="M57.9,190.1v3.7l-25.5,14.7v-3.7L57.9,190.1z"/>
	<path class="st53" d="M57.9,190.6v3.2l-25.5,14.7v-3.2L57.9,190.6z"/>
</g>
<linearGradient id="SVGID_1_" gradientUnits="userSpaceOnUse" x1="0.986" y1="274.1955" x2="63.8776" y2="274.1955" gradientTransform="matrix(1 0 0 -1 0 448)">
	<stop  offset="0" style="stop-color:#3C5185"/>
	<stop  offset="0.2141" style="stop-color:#455D94"/>
	<stop  offset="0.7172" style="stop-color:#5674B3"/>
	<stop  offset="1" style="stop-color:#5D7DBE"/>
</linearGradient>
<path class="st54" d="M37.5,156.8c-2.8-1.6-7.3-1.6-10,0L1,165.7v6.2c0,1.9,1,3.6,2.6,4.6l23.8,14.3c2.8,1.6,7.3,1.6,10,0l23.7-13.6
	c1.7-0.9,2.7-2.7,2.7-4.7v-6.9L37.5,156.8z"/>
<path class="st0" d="M37.5,148.7c-2.8-1.6-7.3-1.6-10,0l-24.4,14c-2.8,1.6-2.8,4.2,0,5.8l24.4,14c2.8,1.6,7.3,1.6,10,0l24.4-14
	c2.8-1.6,2.8-4.2,0-5.8L37.5,148.7z"/>
<path class="st53" d="M34.2,159.9c-0.9-0.5-2.5-0.5-3.4,0l-8.3,4.8c-0.9,0.5-0.9,1.4,0,2l8.3,4.8c0.9,0.5,2.5,0.5,3.4,0l8.3-4.8
	c0.9-0.5,0.9-1.4,0-2L34.2,159.9z"/>
<path class="st55" d="M22.5,166.7l0.3,0.2l8-4.6c0.9-0.5,2.5-0.5,3.4,0l8,4.6l0.3-0.2c0.9-0.5,0.9-1.4,0-2l-8.3-4.8
	c-0.9-0.5-2.5-0.5-3.4,0l-8.3,4.8C21.5,165.2,21.5,166.1,22.5,166.7z"/>
<linearGradient id="SVGID_2_" gradientUnits="userSpaceOnUse" x1="1.0139" y1="241.345" x2="63.9055" y2="241.345" gradientTransform="matrix(1 0 0 -1 0 448)">
	<stop  offset="0" style="stop-color:#3C5185"/>
	<stop  offset="0.2141" style="stop-color:#455D94"/>
	<stop  offset="0.7172" style="stop-color:#5674B3"/>
	<stop  offset="1" style="stop-color:#5D7DBE"/>
</linearGradient>
<path class="st56" d="M61.8,196.4l-24.4,14c-2.8,1.6-7.3,1.6-10,0l-24.4-14c-1.4-0.8-2.1-1.8-2.1-2.9v6.2c0,1.9,1,3.6,2.6,4.6
	l23.8,14.3c2.8,1.6,7.3,1.6,10,0L61.2,205c1.7-0.9,2.7-2.7,2.7-4.7v-6.9C63.9,194.6,63.2,195.6,61.8,196.4z"/>
<linearGradient id="SVGID_3_" gradientUnits="userSpaceOnUse" x1="6.5384" y1="255.8423" x2="58.3529" y2="255.8423" gradientTransform="matrix(1 0 0 -1 0 448)">
	<stop  offset="0" style="stop-color:#3C5185"/>
	<stop  offset="0.2141" style="stop-color:#455D94"/>
	<stop  offset="0.7172" style="stop-color:#5674B3"/>
	<stop  offset="1" style="stop-color:#5D7DBE"/>
</linearGradient>
<path class="st57" d="M56.7,183.7l-20.1,11.6c-2.3,1.3-6,1.3-8.3,0L8.2,183.7c-1.1-0.7-1.7-1.5-1.7-2.4v5.1c0,1.6,0.8,3,2.1,3.8
	L28.3,202c2.3,1.3,6,1.3,8.3,0l19.5-11.2c1.4-0.8,2.2-2.3,2.2-3.8v-5.6C58.4,182.2,57.8,183.1,56.7,183.7z"/>
<linearGradient id="SVGID_4_" gradientUnits="userSpaceOnUse" x1="20.5454" y1="287.7105" x2="44.346" y2="287.7105" gradientTransform="matrix(1 0 0 -1 0 448)">
	<stop  offset="0" style="stop-color:#3C5185"/>
	<stop  offset="0.2141" style="stop-color:#455D94"/>
	<stop  offset="0.7172" style="stop-color:#5674B3"/>
	<stop  offset="1" style="stop-color:#5D7DBE"/>
</linearGradient>
<path class="st58" d="M34.4,153.9c-1.1-0.6-2.8-0.6-3.8,0l-10,3.3v2.3c0,0.7,0.4,1.4,1,1.8l9,5.4c1.1,0.6,2.8,0.6,3.8,0l9-5.1
	c0.6-0.4,1-1,1-1.8v-2.6L34.4,153.9z"/>
<path class="st55" d="M34.4,150.8c-1.1-0.6-2.8-0.6-3.8,0l-9.2,5.3c-1.1,0.6-1.1,1.6,0,2.2l9.2,5.3c1.1,0.6,2.8,0.6,3.8,0l9.2-5.3
	c1.1-0.6,1.1-1.6,0-2.2L34.4,150.8z"/>
</svg>
