<?xml version="1.0" encoding="utf-8"?>
<!-- Generator: Adobe Illustrator 24.0.1, SVG Export Plug-In . SVG Version: 6.00 Build 0)  -->
<svg version="1.1" id="Layer_1" xmlns="http://www.w3.org/2000/svg" xmlns:xlink="http://www.w3.org/1999/xlink" x="0px" y="0px"
	 viewBox="0 0 422 447" style="enable-background:new 0 0 422 447;" xml:space="preserve">
<style type="text/css">
	.st0{fill:url(#SVGID_1_);}
	.st1{fill:#FFFFFF;}
	.st2{fill:#A5CBEF;}
</style>
<linearGradient id="SVGID_1_" gradientUnits="userSpaceOnUse" x1="414.9592" y1="1499.3153" x2="334.3432" y2="1460.4713" gradientTransform="matrix(1 0 0 1 0 -1264)">
	<stop  offset="3.800000e-02" style="stop-color:#A5CBEF"/>
	<stop  offset="0.6654" style="stop-color:#EAF3FB"/>
	<stop  offset="1" style="stop-color:#A5CBEF"/>
</linearGradient>
<path class="st0" d="M353.5,152.2l-0.5,2.5c-0.6,0.4-0.7,3.1-0.7,3.9l0.8,93.9c0,4.5,2.4,7.8,6.3,10.1l33.6,19.8
	c0.6,0.3,1.2,1.8,1.8,1.6l3.2,0.7c3.3-1.2,5.6-4.3,5.6-7.9v-93.4c0-4.5-3.2-10.1-7.1-12.3l-31.9-18.4
	C360.7,150.2,357.3,149.6,353.5,152.2z"/>
<path class="st1" d="M358.6,152.6c-3.9-2.3-7.1-0.4-7.1,4.1V252c0,4.5,3.2,10.1,7.1,12.3l34.6,20c3.9,2.3,7.1,0.4,7.1-4.1V185
	c0-4.5-3.2-10.1-7.1-12.3L358.6,152.6z"/>
<path class="st2" d="M381.3,171.5c-0.1,0-0.3,0-0.4-0.1l-10.8-6.2c-0.4-0.2-0.5-0.7-0.3-1.1c0.2-0.4,0.7-0.5,1.1-0.3l10.8,6.2
	c0.4,0.2,0.5,0.7,0.3,1.1C381.9,171.3,381.6,171.5,381.3,171.5z"/>
<path class="st2" d="M357.3,155l8.4,4.8c0.3,0.2,0.5,0.5,0.5,0.8v1.5c0,1.7,0.9,3.3,2.4,4.2l14.3,8.3c1.1,0.6,2.5-0.2,2.5-1.4V172
	c0-0.4,0.4-0.6,0.8-0.4l6.1,3.5c3.7,2.1,6,6.1,6,10.4V280c0,2.1-2.3,3.5-4.2,2.4l-34.7-20c-3.8-2.2-6.1-6.2-6.1-10.5l-0.1-94.4
	C353.1,155.2,355.4,153.9,357.3,155z"/>
</svg>
