<?xml version="1.0" encoding="utf-8"?>
<!-- Generator: Adobe Illustrator 24.0.1, SVG Export Plug-In . SVG Version: 6.00 Build 0)  -->
<svg version="1.1" id="Layer_1" xmlns="http://www.w3.org/2000/svg" xmlns:xlink="http://www.w3.org/1999/xlink" x="0px" y="0px"
	 viewBox="0 0 422 447" style="enable-background:new 0 0 422 447;" xml:space="preserve">
<style type="text/css">
	.st0{fill:#EDF3FA;}
	.st1{opacity:0.21;}
	.st2{opacity:1.000000e-02;fill:#3C5185;enable-background:new    ;}
	.st3{opacity:1.960000e-02;fill:#3C5185;enable-background:new    ;}
	.st4{opacity:3.920000e-02;fill:#3C5185;enable-background:new    ;}
	.st5{opacity:5.880000e-02;fill:#3C5185;enable-background:new    ;}
	.st6{opacity:7.840000e-02;fill:#3C5185;enable-background:new    ;}
	.st7{opacity:9.800000e-02;fill:#3C5185;enable-background:new    ;}
	.st8{opacity:0.1176;fill:#3C5185;enable-background:new    ;}
	.st9{opacity:0.1373;fill:#3C5185;enable-background:new    ;}
	.st10{opacity:0.1569;fill:#3C5185;enable-background:new    ;}
	.st11{opacity:0.1765;fill:#3C5185;enable-background:new    ;}
	.st12{opacity:0.1961;fill:#3C5185;enable-background:new    ;}
	.st13{opacity:0.2157;fill:#3C5185;enable-background:new    ;}
	.st14{opacity:0.2353;fill:#3C5185;enable-background:new    ;}
	.st15{opacity:0.2549;fill:#3C5185;enable-background:new    ;}
	.st16{opacity:0.2745;fill:#3C5185;enable-background:new    ;}
	.st17{opacity:0.2941;fill:#3C5185;enable-background:new    ;}
	.st18{opacity:0.3137;fill:#3C5185;enable-background:new    ;}
	.st19{opacity:0.3333;fill:#3C5185;enable-background:new    ;}
	.st20{opacity:0.3529;fill:#3C5185;enable-background:new    ;}
	.st21{opacity:0.3725;fill:#3C5185;enable-background:new    ;}
	.st22{opacity:0.3922;fill:#3C5185;enable-background:new    ;}
	.st23{opacity:0.4118;fill:#3C5185;enable-background:new    ;}
	.st24{opacity:0.4314;fill:#3C5185;enable-background:new    ;}
	.st25{opacity:0.451;fill:#3C5185;enable-background:new    ;}
	.st26{opacity:0.4706;fill:#3C5185;enable-background:new    ;}
	.st27{opacity:0.4902;fill:#3C5185;enable-background:new    ;}
	.st28{opacity:0.5098;fill:#3C5185;enable-background:new    ;}
	.st29{opacity:0.5294;fill:#3C5185;enable-background:new    ;}
	.st30{opacity:0.549;fill:#3C5185;enable-background:new    ;}
	.st31{opacity:0.5686;fill:#3C5185;enable-background:new    ;}
	.st32{opacity:0.5882;fill:#3C5185;enable-background:new    ;}
	.st33{opacity:0.6078;fill:#3C5185;enable-background:new    ;}
	.st34{opacity:0.6275;fill:#3C5185;enable-background:new    ;}
	.st35{opacity:0.6471;fill:#3C5185;enable-background:new    ;}
	.st36{opacity:0.6667;fill:#3C5185;enable-background:new    ;}
	.st37{opacity:0.6863;fill:#3C5185;enable-background:new    ;}
	.st38{opacity:0.7059;fill:#3C5185;enable-background:new    ;}
	.st39{opacity:0.7255;fill:#3C5185;enable-background:new    ;}
	.st40{opacity:0.7451;fill:#3C5185;enable-background:new    ;}
	.st41{opacity:0.7647;fill:#3C5185;enable-background:new    ;}
	.st42{opacity:0.7843;fill:#3C5185;enable-background:new    ;}
	.st43{opacity:0.8039;fill:#3C5185;enable-background:new    ;}
	.st44{opacity:0.8235;fill:#3C5185;enable-background:new    ;}
	.st45{opacity:0.8431;fill:#3C5185;enable-background:new    ;}
	.st46{opacity:0.8627;fill:#3C5185;enable-background:new    ;}
	.st47{opacity:0.8824;fill:#3C5185;enable-background:new    ;}
	.st48{opacity:0.902;fill:#3C5185;enable-background:new    ;}
	.st49{opacity:0.9216;fill:#3C5185;enable-background:new    ;}
	.st50{opacity:0.9412;fill:#3C5185;enable-background:new    ;}
	.st51{opacity:0.9608;fill:#3C5185;enable-background:new    ;}
	.st52{opacity:0.9804;fill:#3C5185;enable-background:new    ;}
	.st53{fill:#3C5185;}
	.st54{fill:url(#SVGID_1_);}
	.st55{fill:#FFFFFF;}
	.st56{fill:url(#SVGID_2_);}
	.st57{opacity:0.38;fill:url(#SVGID_3_);enable-background:new    ;}
	.st58{fill:url(#SVGID_4_);}
</style>
<path class="st0" d="M150.1,114.4c-2.8-1.6-7.3-1.6-10,0l-24.4,14c-2.8,1.6-2.8,4.2,0,5.8l24.4,14c2.8,1.6,7.3,1.6,10,0l24.4-14
	c2.8-1.6,2.8-4.2,0-5.8L150.1,114.4z"/>
<g class="st1">
	<path class="st2" d="M119.2,102.2v29.4l25.5,14.7v-29.4L119.2,102.2z"/>
	<path class="st3" d="M119.2,102.8v28.9l25.5,14.7v-28.9L119.2,102.8z"/>
	<path class="st4" d="M119.2,103.3v28.4l25.5,14.7V118L119.2,103.3z"/>
	<path class="st5" d="M119.2,103.8v27.9l25.5,14.7v-27.8L119.2,103.8z"/>
	<path class="st6" d="M119.2,104.3v27.3l25.5,14.7V119L119.2,104.3z"/>
	<path class="st7" d="M119.2,104.8v26.8l25.5,14.7v-26.8L119.2,104.8z"/>
	<path class="st8" d="M119.2,105.3v26.3l25.5,14.7V120L119.2,105.3z"/>
	<path class="st9" d="M119.2,105.8v25.8l25.5,14.7v-25.8L119.2,105.8z"/>
	<path class="st10" d="M119.2,106.4v25.3l25.5,14.7V121L119.2,106.4z"/>
	<path class="st11" d="M119.2,106.9v24.8l25.5,14.7v-24.7L119.2,106.9z"/>
	<path class="st12" d="M119.2,107.4v24.3l25.5,14.7v-24.2L119.2,107.4z"/>
	<path class="st13" d="M119.2,107.9v23.7l25.5,14.7v-23.7L119.2,107.9z"/>
	<path class="st14" d="M119.2,108.4v23.2l25.5,14.7v-23.2L119.2,108.4z"/>
	<path class="st15" d="M119.2,108.9v22.7l25.5,14.7v-22.7L119.2,108.9z"/>
	<path class="st16" d="M119.2,109.4v22.2l25.5,14.7v-22.2L119.2,109.4z"/>
	<path class="st17" d="M119.2,110v21.7l25.5,14.7v-21.7L119.2,110z"/>
	<path class="st18" d="M119.2,110.5v21.2l25.5,14.7v-21.1L119.2,110.5z"/>
	<path class="st19" d="M119.2,111v20.7l25.5,14.7v-20.6L119.2,111z"/>
	<path class="st20" d="M119.2,111.5v20.1l25.5,14.7v-20.1L119.2,111.5z"/>
	<path class="st21" d="M119.2,112v19.6l25.5,14.7v-19.6L119.2,112z"/>
	<path class="st22" d="M119.2,112.5v19.1l25.5,14.7v-19.1L119.2,112.5z"/>
	<path class="st23" d="M119.2,113v18.6l25.5,14.7v-18.6L119.2,113z"/>
	<path class="st24" d="M119.2,113.5v18.1l25.5,14.7v-18.1L119.2,113.5z"/>
	<path class="st25" d="M119.2,114v17.6l25.5,14.7v-17.6L119.2,114z"/>
	<path class="st26" d="M119.2,114.5v17.1l25.5,14.7v-17.1L119.2,114.5z"/>
	<path class="st27" d="M119.2,115.1v16.6l25.5,14.7v-16.5L119.2,115.1z"/>
	<path class="st28" d="M119.2,115.6v16.1l25.5,14.7v-16L119.2,115.6z"/>
	<path class="st29" d="M119.2,116.1v15.5l25.5,14.7v-15.5L119.2,116.1z"/>
	<path class="st30" d="M119.2,116.6v15l25.5,14.7v-15L119.2,116.6z"/>
	<path class="st31" d="M119.2,117.1v14.5l25.5,14.7v-14.5L119.2,117.1z"/>
	<path class="st32" d="M119.2,117.6v14l25.5,14.7v-14L119.2,117.6z"/>
	<path class="st33" d="M119.2,118.1v13.5l25.5,14.7v-13.5L119.2,118.1z"/>
	<path class="st34" d="M119.2,118.7v13l25.5,14.7v-12.9L119.2,118.7z"/>
	<path class="st35" d="M119.2,119.2v12.5l25.5,14.7v-12.4L119.2,119.2z"/>
	<path class="st36" d="M119.2,119.7v11.9l25.5,14.7v-11.9L119.2,119.7z"/>
	<path class="st37" d="M119.2,120.2v11.4l25.5,14.7v-11.4L119.2,120.2z"/>
	<path class="st38" d="M119.2,120.7v10.9l25.5,14.7v-10.9L119.2,120.7z"/>
	<path class="st39" d="M119.2,121.2v10.4l25.5,14.7v-10.4L119.2,121.2z"/>
	<path class="st40" d="M119.2,121.7v9.9l25.5,14.7v-9.9L119.2,121.7z"/>
	<path class="st41" d="M119.2,122.3v9.4l25.5,14.7V137L119.2,122.3z"/>
	<path class="st42" d="M119.2,122.8v8.9l25.5,14.7v-8.8L119.2,122.8z"/>
	<path class="st43" d="M119.2,123.3v8.3l25.5,14.7V138L119.2,123.3z"/>
	<path class="st44" d="M119.2,123.8v7.8l25.5,14.7v-7.8L119.2,123.8z"/>
	<path class="st45" d="M119.2,124.3v7.3l25.5,14.7V139L119.2,124.3z"/>
	<path class="st46" d="M119.2,124.8v6.8l25.5,14.7v-6.8L119.2,124.8z"/>
	<path class="st47" d="M119.2,125.3v6.3l25.5,14.7V140L119.2,125.3z"/>
	<path class="st48" d="M119.2,125.9v5.8l25.5,14.7v-5.7L119.2,125.9z"/>
	<path class="st49" d="M119.2,126.4v5.3l25.5,14.7v-5.2L119.2,126.4z"/>
	<path class="st50" d="M119.2,126.9v4.7l25.5,14.7v-4.7L119.2,126.9z"/>
	<path class="st51" d="M119.2,127.4v4.2l25.5,14.7v-4.2L119.2,127.4z"/>
	<path class="st52" d="M119.2,127.9v3.7l25.5,14.7v-3.7L119.2,127.9z"/>
	<path class="st53" d="M119.2,128.4v3.2l25.5,14.7v-3.2L119.2,128.4z"/>
</g>
<g class="st1">
	<path class="st2" d="M170.5,102.2v29.4L145,146.3v-29.4L170.5,102.2z"/>
	<path class="st3" d="M170.5,102.8v28.9L145,146.3v-28.9L170.5,102.8z"/>
	<path class="st4" d="M170.5,103.3v28.4L145,146.3V118L170.5,103.3z"/>
	<path class="st5" d="M170.5,103.8v27.9L145,146.3v-27.8L170.5,103.8z"/>
	<path class="st6" d="M170.5,104.3v27.3L145,146.3V119L170.5,104.3z"/>
	<path class="st7" d="M170.5,104.8v26.8L145,146.3v-26.8L170.5,104.8z"/>
	<path class="st8" d="M170.5,105.3v26.3L145,146.3V120L170.5,105.3z"/>
	<path class="st9" d="M170.5,105.8v25.8L145,146.3v-25.8L170.5,105.8z"/>
	<path class="st10" d="M170.5,106.4v25.3L145,146.3V121L170.5,106.4z"/>
	<path class="st11" d="M170.5,106.9v24.8L145,146.3v-24.7L170.5,106.9z"/>
	<path class="st12" d="M170.5,107.4v24.3L145,146.3v-24.2L170.5,107.4z"/>
	<path class="st13" d="M170.5,107.9v23.7L145,146.3v-23.7L170.5,107.9z"/>
	<path class="st14" d="M170.5,108.4v23.2L145,146.3v-23.2L170.5,108.4z"/>
	<path class="st15" d="M170.5,108.9v22.7L145,146.3v-22.7L170.5,108.9z"/>
	<path class="st16" d="M170.5,109.4v22.2L145,146.3v-22.2L170.5,109.4z"/>
	<path class="st17" d="M170.5,110v21.7L145,146.3v-21.7L170.5,110z"/>
	<path class="st18" d="M170.5,110.5v21.2L145,146.3v-21.1L170.5,110.5z"/>
	<path class="st19" d="M170.5,111v20.7L145,146.3v-20.6L170.5,111z"/>
	<path class="st20" d="M170.5,111.5v20.1L145,146.3v-20.1L170.5,111.5z"/>
	<path class="st21" d="M170.5,112v19.6L145,146.3v-19.6L170.5,112z"/>
	<path class="st22" d="M170.5,112.5v19.1L145,146.3v-19.1L170.5,112.5z"/>
	<path class="st23" d="M170.5,113v18.6L145,146.3v-18.6L170.5,113z"/>
	<path class="st24" d="M170.5,113.5v18.1L145,146.3v-18.1L170.5,113.5z"/>
	<path class="st25" d="M170.5,114v17.6L145,146.3v-17.6L170.5,114z"/>
	<path class="st26" d="M170.5,114.5v17.1L145,146.3v-17.1L170.5,114.5z"/>
	<path class="st27" d="M170.5,115.1v16.6L145,146.3v-16.5L170.5,115.1z"/>
	<path class="st28" d="M170.5,115.6v16.1L145,146.3v-16L170.5,115.6z"/>
	<path class="st29" d="M170.5,116.1v15.5L145,146.3v-15.5L170.5,116.1z"/>
	<path class="st30" d="M170.5,116.6v15L145,146.3v-15L170.5,116.6z"/>
	<path class="st31" d="M170.5,117.1v14.5L145,146.3v-14.5L170.5,117.1z"/>
	<path class="st32" d="M170.5,117.6v14L145,146.3v-14L170.5,117.6z"/>
	<path class="st33" d="M170.5,118.1v13.5L145,146.3v-13.5L170.5,118.1z"/>
	<path class="st34" d="M170.5,118.7v13L145,146.3v-12.9L170.5,118.7z"/>
	<path class="st35" d="M170.5,119.2v12.5L145,146.3v-12.4L170.5,119.2z"/>
	<path class="st36" d="M170.5,119.7v11.9L145,146.3v-11.9L170.5,119.7z"/>
	<path class="st37" d="M170.5,120.2v11.4L145,146.3v-11.4L170.5,120.2z"/>
	<path class="st38" d="M170.5,120.7v10.9L145,146.3v-10.9L170.5,120.7z"/>
	<path class="st39" d="M170.5,121.2v10.4L145,146.3v-10.4L170.5,121.2z"/>
	<path class="st40" d="M170.5,121.7v9.9L145,146.3v-9.9L170.5,121.7z"/>
	<path class="st41" d="M170.5,122.3v9.4L145,146.3V137L170.5,122.3z"/>
	<path class="st42" d="M170.5,122.8v8.9L145,146.3v-8.8L170.5,122.8z"/>
	<path class="st43" d="M170.5,123.3v8.3L145,146.3V138L170.5,123.3z"/>
	<path class="st44" d="M170.5,123.8v7.8L145,146.3v-7.8L170.5,123.8z"/>
	<path class="st45" d="M170.5,124.3v7.3L145,146.3V139L170.5,124.3z"/>
	<path class="st46" d="M170.5,124.8v6.8L145,146.3v-6.8L170.5,124.8z"/>
	<path class="st47" d="M170.5,125.3v6.3L145,146.3V140L170.5,125.3z"/>
	<path class="st48" d="M170.5,125.9v5.8L145,146.3v-5.7L170.5,125.9z"/>
	<path class="st49" d="M170.5,126.4v5.3L145,146.3v-5.2L170.5,126.4z"/>
	<path class="st50" d="M170.5,126.9v4.7L145,146.3v-4.7L170.5,126.9z"/>
	<path class="st51" d="M170.5,127.4v4.2L145,146.3v-4.2L170.5,127.4z"/>
	<path class="st52" d="M170.5,127.9v3.7L145,146.3v-3.7L170.5,127.9z"/>
	<path class="st53" d="M170.5,128.4v3.2L145,146.3v-3.2L170.5,128.4z"/>
</g>
<linearGradient id="SVGID_1_" gradientUnits="userSpaceOnUse" x1="113.647" y1="336.3906" x2="176.539" y2="336.3906" gradientTransform="matrix(1 0 0 -1 0 448)">
	<stop  offset="0" style="stop-color:#3C5185"/>
	<stop  offset="0.2141" style="stop-color:#455D94"/>
	<stop  offset="0.7172" style="stop-color:#5674B3"/>
	<stop  offset="1" style="stop-color:#5D7DBE"/>
</linearGradient>
<path class="st54" d="M150.1,94.7c-2.8-1.6-7.3-1.6-10,0l-26.4,8.8v6.2c0,1.9,1,3.6,2.6,4.6l23.8,14.3c2.8,1.6,7.3,1.6,10,0
	l23.7-13.6c1.7-0.9,2.7-2.7,2.7-4.7v-6.9L150.1,94.7z"/>
<path class="st0" d="M150.1,86.5c-2.8-1.6-7.3-1.6-10,0l-24.4,14c-2.8,1.6-2.8,4.2,0,5.8l24.4,14c2.8,1.6,7.3,1.6,10,0l24.4-14
	c2.8-1.6,2.8-4.2,0-5.8L150.1,86.5z"/>
<path class="st53" d="M146.8,97.7c-0.9-0.5-2.5-0.5-3.4,0l-8.3,4.8c-0.9,0.5-0.9,1.4,0,2l8.3,4.8c0.9,0.5,2.5,0.5,3.4,0l8.3-4.8
	c0.9-0.5,0.9-1.4,0-2L146.8,97.7z"/>
<path class="st55" d="M135.1,104.5l0.3,0.2l8-4.6c0.9-0.5,2.5-0.5,3.4,0l8,4.6l0.3-0.2c0.9-0.5,0.9-1.4,0-2l-8.3-4.8
	c-0.9-0.5-2.5-0.5-3.4,0l-8.3,4.8C134.2,103,134.2,103.9,135.1,104.5z"/>
<linearGradient id="SVGID_2_" gradientUnits="userSpaceOnUse" x1="113.647" y1="303.54" x2="176.5398" y2="303.54" gradientTransform="matrix(1 0 0 -1 0 448)">
	<stop  offset="0" style="stop-color:#3C5185"/>
	<stop  offset="0.2141" style="stop-color:#455D94"/>
	<stop  offset="0.7172" style="stop-color:#5674B3"/>
	<stop  offset="1" style="stop-color:#5D7DBE"/>
</linearGradient>
<path class="st56" d="M174.5,134.2l-24.4,14c-2.8,1.6-7.3,1.6-10,0l-24.4-14c-1.4-0.8-2.1-1.8-2.1-2.9v6.2c0,1.9,1,3.6,2.6,4.6
	l23.8,14.3c2.8,1.6,7.3,1.6,10,0l23.7-13.6c1.7-0.9,2.7-2.7,2.7-4.7v-6.9C176.6,132.4,175.9,133.4,174.5,134.2z"/>
<linearGradient id="SVGID_3_" gradientUnits="userSpaceOnUse" x1="119.2" y1="318.0652" x2="171.015" y2="318.0652" gradientTransform="matrix(1 0 0 -1 0 448)">
	<stop  offset="0" style="stop-color:#3C5185"/>
	<stop  offset="0.2141" style="stop-color:#455D94"/>
	<stop  offset="0.7172" style="stop-color:#5674B3"/>
	<stop  offset="1" style="stop-color:#5D7DBE"/>
</linearGradient>
<path class="st57" d="M169.3,121.5l-20.1,11.6c-2.3,1.3-6,1.3-8.3,0l-20.1-11.6c-1.1-0.7-1.7-1.5-1.7-2.4v5.1c0,1.6,0.8,3,2.1,3.8
	l19.6,11.8c2.3,1.3,6,1.3,8.3,0l19.5-11.2c1.4-0.8,2.2-2.3,2.2-3.8v-5.6C171,120,170.4,120.9,169.3,121.5z"/>
<linearGradient id="SVGID_4_" gradientUnits="userSpaceOnUse" x1="133.179" y1="349.9332" x2="156.98" y2="349.9332" gradientTransform="matrix(1 0 0 -1 0 448)">
	<stop  offset="0" style="stop-color:#3C5185"/>
	<stop  offset="0.2141" style="stop-color:#455D94"/>
	<stop  offset="0.7172" style="stop-color:#5674B3"/>
	<stop  offset="1" style="stop-color:#5D7DBE"/>
</linearGradient>
<path class="st58" d="M147,91.6c-1.1-0.6-2.8-0.6-3.8,0l-10,3.3v2.3c0,0.7,0.4,1.4,1,1.8l9,5.4c1.1,0.6,2.8,0.6,3.8,0l9-5.1
	c0.6-0.4,1-1,1-1.8V95L147,91.6z"/>
<path class="st55" d="M147,88.6c-1.1-0.6-2.8-0.6-3.8,0l-9.2,5.3c-1.1,0.6-1.1,1.6,0,2.2l9.2,5.3c1.1,0.6,2.8,0.6,3.8,0l9.2-5.3
	c1.1-0.6,1.1-1.6,0-2.2L147,88.6z"/>
</svg>
