<?xml version="1.0" encoding="utf-8"?>
<!-- Generator: Adobe Illustrator 24.0.1, SVG Export Plug-In . SVG Version: 6.00 Build 0)  -->
<svg version="1.1" id="Layer_1" xmlns="http://www.w3.org/2000/svg" xmlns:xlink="http://www.w3.org/1999/xlink" x="0px" y="0px"
	 viewBox="0 0 449 425" style="enable-background:new 0 0 449 425;" xml:space="preserve">
<style type="text/css">
	.st0{fill:#3C5186;}
	.st1{fill:#5D7DBE;}
	.st2{fill:#FAF8F9;}
	.st3{fill:#F09EA3;}
	.st4{fill:url(#SVGID_1_);}
	.st5{fill:url(#SVGID_2_);}
	.st6{fill:url(#SVGID_3_);}
	.st7{opacity:0.3;fill:#231F20;enable-background:new    ;}
	.st8{fill:#F3B3B6;}
	.st9{fill:url(#SVGID_4_);}
	.st10{fill:#FECC55;}
</style>
<path class="st0" d="M162.6,361.5l-1.7-0.5c-2.7-0.8-5.7-0.3-8,1.4l-1.8-1.3l-1.8,4.1l-8.6-0.7l1.9,7.7c0.1,0.5,0.5,0.9,1,1l3.5,1
	c3,0.9,6.2,0.1,8.4-2l7.9-7.5C164.5,363.7,164.1,361.9,162.6,361.5z"/>
<path class="st1" d="M162.6,361.5l-1.7-0.5c-2.7-0.8-5.7-0.3-8,1.4l-1.8-1.3l-1.8,4.1l-8.6-0.7l1,4c0.4,1.8,1.8,3.2,3.5,3.7l1.5,0.4
	c3,0.9,6.2,0.1,8.4-2l7.9-7.5c0.3-0.3,0.5-0.6,0.5-1C163.3,361.9,163,361.7,162.6,361.5z"/>
<path class="st2" d="M150.5,364.4c1.8-1.7,1.3-3.7-1.1-4.4c-2.4-0.7-5.8,0.2-7.6,1.9c-1.8,1.7-1.3,3.7,1.1,4.4
	C145.3,367,148.7,366.2,150.5,364.4z"/>
<path class="st3" d="M145.8,364.7c-1.6,0-2.8-1.3-2.8-2.9v-11c0-1.6,1.3-2.9,2.8-2.9c1.6,0,2.8,1.3,2.8,2.9v11
	C148.6,363.4,147.3,364.7,145.8,364.7z"/>
<linearGradient id="SVGID_1_" gradientUnits="userSpaceOnUse" x1="153.045" y1="-2513.1482" x2="141.2953" y2="-2513.1482" gradientTransform="matrix(1 0 0 -1 0 -2190)">
	<stop  offset="0" style="stop-color:#A9D7F5"/>
	<stop  offset="1" style="stop-color:#FFFFFF"/>
</linearGradient>
<path class="st4" d="M145.8,362.9c-0.1,0-0.1,0-0.2,0c-2.5-0.1-4.4-2.2-4.3-4.7l1.2-27l-1.2-43.2c-0.1-2.5,1.9-4.6,4.4-4.6
	c2.5-0.1,7.3,1.9,7.4,4.4l-1.6,43.5v0.2l-1.2,27.2C150.1,361,148.2,362.9,145.8,362.9z"/>
<path class="st0" d="M174.6,372.5l-1.5-0.9c-2.5-1.4-5.5-1.6-8.1-0.6l-1.4-1.7l-2.7,3.6l-8.2-2.8v7.9c0,0.5,0.3,1,0.7,1.2l3.2,1.9
	c2.7,1.6,5.9,1.6,8.6,0l9.4-5.4C175.9,375.1,175.9,373.3,174.6,372.5z"/>
<path class="st1" d="M174.6,372.5l-1.5-0.9c-2.5-1.4-5.5-1.6-8.1-0.6l-1.4-1.7l-2.7,3.6l-8.2-2.8v4.1c0,1.8,1,3.5,2.5,4.4l1.4,0.8
	c2.7,1.6,5.9,1.6,8.6,0l9.4-5.4c0.3-0.2,0.6-0.5,0.7-0.8C175.2,373,174.9,372.7,174.6,372.5z"/>
<path class="st2" d="M162.1,372.5c2.2-1.3,2.2-3.3,0-4.5c-2.2-1.3-5.7-1.3-7.9,0s-2.2,3.3,0,4.5C156.4,373.7,160,373.7,162.1,372.5z
	"/>
<path class="st3" d="M158.2,372c-1.6,0-2.8-1.3-2.8-2.9v-11c0-1.6,1.3-2.9,2.8-2.9c1.6,0,2.8,1.3,2.8,2.9v11
	C161,370.7,159.8,372,158.2,372z"/>
<path class="st1" d="M145.8,295.4c-1.1,0-2.2-0.6-2.8-1.6l-5.9-10.2c-6.1-10.7-3.4-24.3,6.3-31.8l1.6-1.2c1.4-1.1,3.5-0.8,4.6,0.6
	s0.8,3.5-0.6,4.6l-1.6,1.2c-7.1,5.5-9.1,15.5-4.7,23.3l5.9,10.2c0.9,1.6,0.4,3.6-1.2,4.5C146.9,295.3,146.3,295.4,145.8,295.4z"/>
<linearGradient id="SVGID_2_" gradientUnits="userSpaceOnUse" x1="165.1" y1="-2514.8999" x2="141.3" y2="-2514.8999" gradientTransform="matrix(1 0 0 -1 0 -2190)">
	<stop  offset="0" style="stop-color:#A9D7F5"/>
	<stop  offset="1" style="stop-color:#FFFFFF"/>
</linearGradient>
<path class="st5" d="M141.6,299.2l-0.3-11.2l17.9-6.9L159,291c1.9,0.4,3.5,2,3.6,4.1l2.5,39.3l-2.5,30.2c-0.2,2.4-2.1,4.1-4.5,4.1
	c-0.5,0-0.9-0.1-1.4-0.2c-2-0.7-3.2-2.7-3-4.8l2.4-29.4l-4.1-26.6l-8.1-4.6C142.5,302.3,141.7,300.9,141.6,299.2z"/>
<linearGradient id="SVGID_3_" gradientUnits="userSpaceOnUse" x1="165.121" y1="-2519.7927" x2="157.602" y2="-2519.7927" gradientTransform="matrix(1 0 0 -1 0 -2190)">
	<stop  offset="0" style="stop-color:#A9D7F5"/>
	<stop  offset="1" style="stop-color:#FFFFFF"/>
</linearGradient>
<path class="st6" d="M162.7,295.1c-0.2-2.5-2.3-4.4-4.7-4.2c-0.1,0-0.2,0-0.3,0c2.1,0.3,3.7,2,3.9,4.2l2.5,39.3l-2.5,30.2
	c-0.2,2.1-1.8,3.8-3.9,4.1c0.1,0,0.1,0,0.2,0c0.1,0,0.2,0,0.4,0c2.3,0,4.3-1.8,4.5-4.1l2.5-30.2L162.7,295.1z"/>
<path class="st7" d="M139.7,288.1l0.4-4.3c0.4-3,0.6-5.9,0.5-8.9c0.4,1.8,1,3.6,2,5.3l5.9,10.2c0.9,1.6,0.4,3.6-1.2,4.5
	c-0.5,0.3-1.1,0.4-1.6,0.4c-1.1,0-2.2-0.6-2.8-1.6L139.7,288.1z"/>
<path class="st1" d="M140.4,234.6l14.1,8.2c6.2,3.6,10.1,10.3,10.1,17.5v40.2c-5.7,4-21.1-1.6-24.1-7.9l0.9-8.8
	c0.5-3.5,0.6-7,0.5-10.5L140.4,234.6z"/>
<path class="st8" d="M158.4,243.5h-12.5v-19.2h16.6v15.1C162.5,241.6,160.6,243.5,158.4,243.5z"/>
<path class="st8" d="M154,246.7h-5.2c-0.5,0-0.9-0.4-0.9-0.9v-13.1h6.9v13.1C154.9,246.3,154.5,246.7,154,246.7z"/>
<path class="st7" d="M164.6,269.1c-0.6-0.2-1.6-0.9-1.8-2.4l-1.3-10.2c-0.2-1.8-1.9-3.1-3.6-2.8c-1.8,0.2-1.9,2.1-1.6,3.9l0.1,10
	c0.5,3.8,3,6.8,6.6,7.9c0.6,0.2,1.1,0.3,1.7,0.3L164.6,269.1L164.6,269.1z"/>
<path class="st1" d="M165.7,274.1c-0.9,0-1.9-0.1-2.8-0.4c-3.6-1.1-6.1-4.1-6.6-7.9l-1.3-10.2c-0.2-1.8,1-3.4,2.8-3.7
	c1.8-0.2,3.4,1,3.6,2.8l1.3,10.2c0.2,1.8,1.6,2.3,2.1,2.5c0.4,0.1,1.9,0.5,3.1-0.9l9.4-10.8c1.2-1.4,3.2-1.5,4.6-0.3
	c1.3,1.2,1.5,3.3,0.3,4.6l-9.4,10.8C170.9,272.9,168.4,274.1,165.7,274.1z"/>
<path class="st8" d="M175.8,257.5l1.6-1.8c1.2-1.4,3.2-1.5,4.6-0.3c1.3,1.2,1.5,3.3,0.3,4.6l-1.9,2.2L175.8,257.5z"/>
<path class="st8" d="M185.3,256.9c0,2.2-1.8,4-3.9,4c-2.2,0-3.9-1.8-3.9-4c0-2.2,1.8-4,3.9-4S185.3,254.7,185.3,256.9z"/>
<path class="st8" d="M184.7,250.1l-5,5.2c-0.3,0.4-0.9,0.4-1.2,0l0,0c-0.3-0.3-0.4-0.9,0-1.2l5-5.2c0.3-0.4,0.9-0.4,1.2,0l0,0
	C185,249.2,185,249.7,184.7,250.1z"/>
<linearGradient id="SVGID_4_" gradientUnits="userSpaceOnUse" x1="134.9075" y1="-2430.9438" x2="164.6691" y2="-2430.9438" gradientTransform="matrix(1 0 0 -1 0 -2190)">
	<stop  offset="0.1499" style="stop-color:#F49719"/>
	<stop  offset="1" style="stop-color:#FCC00E"/>
</linearGradient>
<path class="st9" d="M163.6,220.9c-2.9-3.4-9.6-2.4-13.3-1.2c-4.6,1.5-10.3,3.2-11.1,8.7c-0.2,1.4-0.1,2.8-0.1,4.3
	c0,3.3-0.7,6.6-2.2,9.5c-2.1,4.2-3.1,6.9-0.9,11.2c1.3,2.6,2.1,6.6,4.8,8.2s8.5,2.6,11.1,0.6c3.6-2.8,5.5-9.5,5.2-13.8
	c-0.4-4.7-2.7-9.4-1.3-13.8c0.9-2.8,4.6-5.9,6.7-7.9C164.6,224.9,165.5,223.2,163.6,220.9z"/>
<path class="st10" d="M163.6,220.9c-1.7-2-4.7-2.5-7.6-2.3c2.2,0.1,4.2,0.7,5.5,2.3c1.9,2.3,0.9,4-0.9,5.7c-2.1,2-5.9,5.1-6.7,7.9
	c-1.4,4.5,0.9,9.2,1.3,13.8c0.3,4.3-1.5,11.1-5.2,13.8c-0.8,0.6-2,0.9-3.3,1c2.1,0.2,4.1-0.1,5.4-1c3.6-2.8,5.5-9.5,5.2-13.8
	c-0.4-4.7-2.7-9.4-1.3-13.8c0.9-2.8,4.6-5.9,6.7-7.9C164.6,224.9,165.5,223.2,163.6,220.9z"/>
</svg>
