<?xml version="1.0" encoding="utf-8"?>
<!-- Generator: Adobe Illustrator 24.0.1, SVG Export Plug-In . SVG Version: 6.00 Build 0)  -->
<svg version="1.1" id="Layer_1" xmlns="http://www.w3.org/2000/svg" xmlns:xlink="http://www.w3.org/1999/xlink" x="0px" y="0px"
	 viewBox="0 0 449 425" style="enable-background:new 0 0 449 425;" xml:space="preserve">
<style type="text/css">
	.st0{fill:#3C5186;}
</style>
<path class="st0" d="M272.1,63.8c-3,0-5.7-1-7.8-2.9c-2-1.8-4.3-5.1-4.3-11.1c0-10,6.9-21.8,15.7-26.8c5-2.8,10.1-3.2,14.1-0.9
	s6.2,6.8,6.2,12.5c0,4.7-1.5,9.9-4.3,14.8l-8.1-4.5c2-3.5,3.1-7.2,3.1-10.3c0-2.2-0.6-4-1.6-4.5c-1-0.6-2.8-0.2-4.8,0.9
	c-5.9,3.3-11,12.1-11,18.8c0,2,0.5,3.6,1.3,4.3c0.3,0.3,0.8,0.6,1.8,0.5l0.8,9.2C272.8,63.8,272.4,63.8,272.1,63.8z"/>
<path class="st0" d="M272.1,63.8c-3,0-5.7-1-7.8-2.9c-2-1.8-4.3-5.1-4.3-11.1c0-10,6.9-21.8,15.7-26.8c5-2.8,10.1-3.2,14.1-0.9
	s6.2,6.8,6.2,12.5c0,2.5-2.1,4.6-4.7,4.6s-4.7-2.1-4.7-4.6c0-2.2-0.6-4-1.6-4.5c-1-0.6-2.8-0.2-4.8,0.9c-5.9,3.3-11,12.1-11,18.8
	c0,2,0.5,3.6,1.3,4.3c0.3,0.3,0.8,0.6,1.8,0.5c2.5-0.2,4.8,1.7,5,4.2s-1.7,4.8-4.2,5C272.8,63.8,272.4,63.8,272.1,63.8z"/>
</svg>
