<?xml version="1.0" encoding="utf-8"?>
<!-- Generator: Adobe Illustrator 24.0.1, SVG Export Plug-In . SVG Version: 6.00 Build 0)  -->
<svg version="1.1" id="Layer_1" xmlns="http://www.w3.org/2000/svg" xmlns:xlink="http://www.w3.org/1999/xlink" x="0px" y="0px"
	 viewBox="0 0 449 425" style="enable-background:new 0 0 449 425;" xml:space="preserve">
<style type="text/css">
	.st0{fill-rule:evenodd;clip-rule:evenodd;fill:#3C5186;}
	.st1{fill:#3C5186;}
	.st2{fill-rule:evenodd;clip-rule:evenodd;fill:url(#SVGID_1_);}
</style>
<path class="st0" d="M254.1,247.2c0.8,0,1.4,0.3,1.4,0.8v3.9c0,0.4-0.6,0.8-1.4,0.8h-1.7v3.3l0,0v0.1l0,0c0,0.2-0.2,0.3-0.4,0.4
	l-3.3,1.9c-0.3,0.2-0.8,0.2-1.2,0.2l0,0l0,0c-0.3,0-0.5-0.1-0.7-0.2l-2.1-1.2c-0.3-0.2-0.9-0.2-1.3-0.1c-0.3,0.1-0.5,0.1-0.8,0.2
	c-0.5,0.1-0.8,0.3-0.8,0.6v1.6c0,0.4-0.6,0.8-1.4,0.8h-4.7c-0.8,0-1.4-0.3-1.4-0.8v-1.6c0-0.3-0.3-0.5-0.7-0.6
	c-0.3-0.1-0.6-0.1-0.8-0.2h-0.1c-0.4-0.1-0.9,0-1.2,0.1l-2.1,1.2c-0.2,0.1-0.5,0.2-0.7,0.2l0,0l0,0c-0.4,0-0.9,0-1.2-0.2l-3.4-1.9
	c-0.2-0.1-0.4-0.3-0.4-0.5c0-0.1,0-0.1,0-0.2v-3.2H222c-0.8,0-1.4-0.3-1.4-0.8v-3.9c0-0.4,0.6-0.8,1.4-0.8h2.9
	c0.2,0,0.5,0.1,0.8,0.2c0.3,0.1,0.6,0.2,0.6,0.1c0.2-0.2,0.1-0.5-0.2-0.7l-2.1-1.2c-0.3-0.1,0.4-0.1,1.1-0.1c0.8,0,1.7,0,2-0.1
	l0.2-2.7c0.5-0.3,1.4-0.3,1.9,0l2.1,1.2c0.3,0.2,0.8,0.2,1.3,0.1c0.3-0.1,0.6-0.1,0.8-0.2c0.4-0.1,0.8-0.3,0.8-0.6v-1.6
	c0-0.4,0.6-0.8,1.4-0.8h4.7c0.8,0,1.4,0.3,1.4,0.8v1.6c0,0.3,0.3,0.5,0.7,0.6c0.3,0.1,0.6,0.1,0.8,0.2h0.1c0.4,0.1,0.9,0,1.2-0.1
	l2.1-1.2c0.5-0.3,1.4-0.3,1.9,0v2.5c0.3,0.1,1.1,0.2,2,0.2s1.7,0.1,1.4,0.2l-2.1,1.2c-0.3,0.2-0.4,0.5-0.2,0.7
	c0.1,0.1,0.3,0,0.6-0.1s0.6-0.2,0.8-0.2h3.1V247.2z M235.8,254c3.9,0.8,8.2-0.5,9-2.8c0.6-1.8-1.2-3.5-4.2-4.2
	c-3.9-0.8-8.2,0.5-9,2.8C231,251.6,232.8,253.4,235.8,254z"/>
<path class="st1" d="M252.5,243.5v-2.1h-3.1l-0.7-0.4c-0.5-0.3-1.4-0.3-1.9,0l-0.7,0.4h-4.2v-1.5c0-0.4-0.6-0.8-1.4-0.8h-4.7
	c-0.8,0-1.4,0.3-1.4,0.8v1.5h-4.3l-0.7-0.4c-0.5-0.3-1.4-0.3-1.9,0l-0.6,0.4h-3.1v2c0,0.2,0.1,0.4,0.4,0.6l2.1,1.2H250l2.1-1.2
	C252.4,243.9,252.5,243.7,252.5,243.5L252.5,243.5z"/>
<linearGradient id="SVGID_1_" gradientUnits="userSpaceOnUse" x1="220.9" y1="2208.8" x2="255.526" y2="2208.8" gradientTransform="matrix(1 0 0 1 0 -1962)">
	<stop  offset="0" style="stop-color:#4A66A4"/>
	<stop  offset="0.4999" style="stop-color:#5573B3"/>
	<stop  offset="1" style="stop-color:#5D7DBE"/>
</linearGradient>
<path class="st2" d="M254.2,248.9h-3.7c0,0-0.3,0.5-0.6,0.9c-0.2,0.2-0.1,0.5,0.2,0.7l2.1,1.2c0.5,0.3,0.5,0.8,0,1.1l-3.3,1.9
	c-0.5,0.3-1.4,0.3-1.9,0l-2.1-1.2c-0.3-0.2-0.8-0.2-1.3-0.1c-0.3,0.1-0.5,0.1-0.8,0.2c-0.5,0.1-0.8,0.3-0.8,0.6v1.6
	c0,0.4-0.6,0.8-1.4,0.8h-4.7c-0.8,0-1.4-0.3-1.4-0.8v-1.6c0-0.3-0.3-0.5-0.7-0.6c-0.3-0.1-0.6-0.1-0.8-0.2h-0.1
	c-0.4-0.1-0.9,0-1.2,0.1l-2.1,1.2c-0.5,0.3-1.4,0.3-1.9,0l-3.4-1.9c-0.5-0.3-0.5-0.8,0-1.1l2.1-1.2c0.3-0.2,0.4-0.5,0.2-0.7
	c-0.1-0.1-0.2-0.3-0.3-0.4c-0.2-0.3-0.6-0.4-1.1-0.4h-2.9c-0.8,0-1.4-0.3-1.4-0.8v-2.7c0-0.4,0.6-0.8,1.4-0.8h2.9
	c0.5,0,0.9-0.2,1-0.4c0-0.1,0.1-0.1,0.1-0.2c0.1-0.1,0.1-0.2,0.2-0.3c0.2-0.2,0.1-0.5-0.2-0.7l-2.1-1.2c-0.5-0.3-0.5-0.8,0-1.1
	l3.3-1.9c0.5-0.3,1.4-0.3,1.9,0l2.1,1.2c0.3,0.2,0.8,0.2,1.3,0.1c0.3-0.1,0.6-0.1,0.8-0.2c0.4-0.1,0.8-0.3,0.8-0.6v-1.6
	c0-0.4,0.6-0.8,1.4-0.8h4.7c0.8,0,1.4,0.3,1.4,0.8v1.6c0,0.3,0.3,0.5,0.7,0.6c0.3,0.1,0.6,0.1,0.8,0.2h0.1c0.4,0.1,0.9,0,1.2-0.1
	l2.1-1.2c0.5-0.3,1.4-0.3,1.9,0l3.3,1.9c0.5,0.3,0.5,0.8,0,1.1l-2.1,1.2c-0.3,0.2-0.4,0.5-0.2,0.7c0.1,0.1,0.2,0.3,0.3,0.4
	c0.2,0.3,0.6,0.4,1.1,0.4h2.9c0.8,0,1.4,0.3,1.4,0.8v2.7C255.5,248.6,254.9,248.9,254.2,248.9z M240.6,243.3c-3.9-0.8-8.2,0.5-9,2.8
	c-0.6,1.8,1.2,3.6,4.2,4.2c3.9,0.8,8.2-0.5,9-2.8C245.4,245.8,243.6,244,240.6,243.3z"/>
</svg>
