<?xml version="1.0" encoding="utf-8"?>
<!-- Generator: Adobe Illustrator 24.0.1, SVG Export Plug-In . SVG Version: 6.00 Build 0)  -->
<svg version="1.1" id="Layer_1" xmlns="http://www.w3.org/2000/svg" xmlns:xlink="http://www.w3.org/1999/xlink" x="0px" y="0px"
	 viewBox="0 0 449 425" style="enable-background:new 0 0 449 425;" xml:space="preserve">
<style type="text/css">
	.st0{opacity:0.3;fill:#4A66A4;enable-background:new    ;}
	.st1{fill:#3C5186;}
	.st2{fill:#F3B3B6;}
	.st3{fill:#D1E1F2;}
	.st4{fill:url(#SVGID_1_);}
	.st5{fill:url(#SVGID_2_);}
	.st6{fill:#A6CBED;}
	.st7{fill:#4A66A4;}
	.st8{fill-rule:evenodd;clip-rule:evenodd;fill:url(#SVGID_3_);}
	.st9{fill:url(#SVGID_4_);}
	.st10{fill:#EDF3FA;}
</style>
<path class="st0" d="M246.4,167.8c0.4,0.2,0.8,0.1,0.8-0.2l6.1-32.3c0.1-0.4-0.2-0.8-0.6-1.1L190.8,97l-6.5,33.5l61.8,37.2
	L246.4,167.8z"/>
<path class="st1" d="M133.7,167.8l2.3,5.4l3.4,2.7c0.8,0.1,1.5,0.7,1.5,1.6c0,1.1-0.9,2-2,2h-5.7c-1.4,0-2.8-0.5-3.8-1.5l-7.3-7.1
	c-1.5-1.4-1.3-3.9,0.4-5l1.9-1.3l2-1.1L133.7,167.8z"/>
<path class="st1" d="M101,157.3l1,6.3l2.6,3.5c0.8,0.3,1.2,1.1,1,1.9c-0.3,1-1.4,1.6-2.4,1.4l-5.4-1.5c-1.4-0.4-2.5-1.3-3.2-2.5
	l-5.1-8.8c-1-1.8-0.2-4.1,1.8-4.7l2.2-0.7l2.2-0.5L101,157.3z"/>
<path class="st2" d="M177.6,103.1c1.4,0,2.3-0.1,2.9-1.4c0.9-1.8-0.1-3.6-2-4.5l-32.9-16.3c-1.9-0.9-4.1-0.1-5,1.7
	c-0.9,1.8-0.1,4,1.7,4.9l33.6,15.2C176.5,103,177,103.1,177.6,103.1z"/>
<path class="st3" d="M172.1,101.3c1.6,0,3-0.9,3.8-2.3c1-2.1,0.1-4.5-1.9-5.5l-27-13c-2.1-1-4.6-0.1-5.6,1.9c-1,2.1-0.1,4.5,1.9,5.5
	l27,13C170.9,101.2,171.5,101.3,172.1,101.3z"/>
<linearGradient id="SVGID_1_" gradientUnits="userSpaceOnUse" x1="150.472" y1="-2308.698" x2="86.7247" y2="-2337.4399" gradientTransform="matrix(1 0 0 -1 0 -2190)">
	<stop  offset="0" style="stop-color:#3C5186"/>
	<stop  offset="0.1045" style="stop-color:#3E548A"/>
	<stop  offset="0.6425" style="stop-color:#47619D"/>
	<stop  offset="1" style="stop-color:#4A66A4"/>
</linearGradient>
<path class="st4" d="M101.5,157.2c1.4,0,17.9-6.5,17.9-6.5c1.5-0.7,2.6-1.9,3.2-3.4l9.6-24.9c1.4-3.6-0.2-7.8-3.8-9.3
	c-3.7-1.5-7.9,0.3-9.4,4l-9,23.3l-12.6,9.8c-3.2,2.2-2.1,1.9,0.1,5.2C98.9,157.5,99.2,157.2,101.5,157.2z"/>
<linearGradient id="SVGID_2_" gradientUnits="userSpaceOnUse" x1="155.7112" y1="-2343.0068" x2="96.7982" y2="-2309.3745" gradientTransform="matrix(1 0 0 -1 0 -2190)">
	<stop  offset="0" style="stop-color:#3C5186"/>
	<stop  offset="1" style="stop-color:#4A66A4"/>
</linearGradient>
<path class="st5" d="M130.9,168.3c2,0,4-0.8,5.4-2.4l18.4-20.3c2.2-1.8,2.8-4.8,1.3-7.3l-13.3-22.2c-2.2-3.6-7-4.6-10.5-1.9
	c-2.8,2.2-12.1,1.7-10.2,4.8l19.1,22l-14.7,22.4c-0.9,1-0.8,2.6,0.3,3.5C127.9,167.8,129.4,168.3,130.9,168.3z"/>
<path class="st2" d="M167.2,121.2c1.4,0,2.3-0.5,2.9-1.9c0.8-1.9,0-3.3-1.9-4.1l-19.9-9.6l-10.7-14.4c-1.2-1.6-3.5-2-5.2-0.8
	s-2,3.5-0.8,5.2l11.9,16l22.2,9.3C166.2,121.1,166.7,121.2,167.2,121.2z"/>
<path class="st3" d="M121.3,99.1c2.1-8.3,4.1-14.8,10.9-18.6l7.8-4c5.5-3.1,12.3,0.8,12.3,7l-5.4,19.8l0.6,0.9l17,7.5
	c2,0.9,2.9,3.2,2,5.2c-0.7,1.5-2,3-3.5,3c-0.5,0-1.1-0.1-1.6-0.3l-16.9-7.4l-1.5,5.5c-3.9,9-16.5,4-25-0.9L121.3,99.1z"/>
<path class="st2" d="M168.8,114.7c-2.1,2.1-2.8,4.7-1.5,5.9c1.2,1.2,3.9,0.5,6-1.6s2.8-4.7,1.5-5.9
	C173.6,111.9,170.9,112.6,168.8,114.7z"/>
<path class="st2" d="M142.5,83.4l-4.8-0.6c-0.2,0-0.3-0.2-0.3-0.4l1.1-8.3c0-0.1,0.1-0.2,0.2-0.2l5,0.7c0.1,0,0.2,0.1,0.2,0.2
	l-1.1,8.3C142.9,83.3,142.7,83.4,142.5,83.4z"/>
<path class="st2" d="M140.2,79.6l-3.4-1.2c-1.5-0.5-2.3-2.1-1.8-3.6l4.6-13.2l14.6,5l-2.6,7.5C150,78.7,144.9,81.2,140.2,79.6z"/>
<path class="st1" d="M156.7,66.1c-0.1-1.2-1-2.3-2.2-2.5c-1.1-0.2-2.3-0.6-3.1-1.8c-1.2-1.7-3.2-2.6-5.2-3.3s-4.3-0.5-5.8,0.9
	c-0.7-1.2-2.4-1.3-3.6-0.6c-1.2,0.7-1.9,1.9-2.4,3.2c-1.1,2.4-2,5.1-1.8,7.7c0.1,0.7,0.2,1.3,0.3,2c0.3,1.7,0.3,3.4,0.7,5
	c0.1,0.2,0.1,0.4,0.3,0.6s0.6,0.2,0.9,0.1c0.3-0.2,0.5-0.4,0.7-0.7c0.9-1.3,0.2-2.2,0.5-3.6c0.1-0.8,0.6-1.5,1.3-1.8
	c1-0.3,2,0.3,3,0.6c2.3,0.7,7.8-1.1,6.8-4.3C150.3,69,154.9,70.1,156.7,66.1z"/>
<path class="st6" d="M132.5,93.8c0-2-0.7-3.1-0.1-3.4c1.3-0.6,3.7,9.8,6.8,16.4c1.5,3.2,5.1,5.3,5.1,5.3l-0.9,3.2
	c-2.3-1.4-4.2-3.5-5.4-5.9L132.5,93.8z"/>
<path class="st7" d="M178.4,96.5c0.1-0.4,0.4-0.5,0.9-0.2l66.6,39.9c0.4,0.2,0.7,0.7,0.6,1.1l-6.1,32.3c-0.1,0.4-0.4,0.5-0.9,0.2
	l-66.6-39.9c-0.4-0.2-0.7-0.7-0.6-1.1L178.4,96.5z"/>
<linearGradient id="SVGID_3_" gradientUnits="userSpaceOnUse" x1="233.1366" y1="-2347.0798" x2="211.3166" y2="-2318.8098" gradientTransform="matrix(1 0 0 -1 0 -2190)">
	<stop  offset="0.1499" style="stop-color:#F49719"/>
	<stop  offset="1" style="stop-color:#FCC00E"/>
</linearGradient>
<path class="st8" d="M226,156.1c-0.7,0-1.3,0-2-0.1c-0.3,0-0.6-0.1-0.9-0.2c-1-0.2-1.9-0.5-2.9-0.9s-1.9-0.8-2.8-1.4
	c-0.9-0.5-1.8-1.1-2.6-1.8c-0.8-0.6-1.6-1.4-2.3-2.1c-0.7-0.7-1.3-1.5-1.9-2.3c-0.6-0.8-1.1-1.6-1.6-2.5s-0.9-1.7-1.2-2.6
	c-0.3-0.9-0.6-1.8-0.8-2.6c-0.2-0.9-0.3-1.8-0.3-2.6c0-0.9,0-1.7,0.2-2.5s0.4-1.6,0.8-2.3c0.4-0.7,0.8-1.4,1.3-2
	c0.6-0.6,1.2-1.1,1.9-1.6c0.8-0.4,1.6-0.8,2.5-1c0.5-0.1,1-0.2,1.6-0.3c0.7-0.1,1.5-0.1,2.2,0h0.3l-0.8,4.2c-0.3,0-0.7,0-1,0.1
	s-0.6,0.2-0.9,0.3c-0.3,0.2-0.6,0.4-0.8,0.7c-0.3,0.3-0.5,0.7-0.7,1.1c-0.2,0.5-0.4,1-0.5,1.5c-0.1,0.6-0.2,1.2-0.1,1.9
	c0,0.6,0.1,1.3,0.3,2s0.4,1.4,0.6,2.1c0.3,0.7,0.6,1.4,1,2.1c0.4,0.7,0.8,1.4,1.3,2c0.5,0.7,1,1.3,1.6,1.9c0.6,0.6,1.1,1.1,1.8,1.6
	c0.6,0.5,1.2,0.9,1.9,1.3c0.6,0.4,1.2,0.7,1.8,0.9c0.5,0.2,1.1,0.4,1.6,0.5c0.4,0.1,0.9,0.1,1.2,0.1s0.7,0,1-0.1s0.6-0.2,0.9-0.4
	c0.3-0.2,0.6-0.4,0.8-0.7c0.3-0.3,0.5-0.7,0.7-1.1c0.2-0.4,0.4-1,0.5-1.5c0.1-0.6,0.2-1.2,0.1-1.8l6,0.1c0,0.9,0,1.7-0.2,2.6
	c-0.2,0.8-0.4,1.6-0.8,2.3c-0.4,0.7-0.8,1.4-1.3,2c-0.6,0.6-1.2,1.1-1.9,1.6c-0.8,0.4-1.6,0.8-2.5,1C227.9,155.9,227,156,226,156.1z
	 M226.4,137.8c0.5,0.7,0.9,1.3,1.3,2c0.4,0.7,0.7,1.4,1,2.1l5.3-0.9l0.5-0.1c-0.3-0.9-0.7-1.7-1.2-2.6c-0.5-0.8-1-1.7-1.6-2.5
	s-1.2-1.6-1.9-2.3c-0.7-0.8-1.5-1.5-2.3-2.1c-0.8-0.7-1.7-1.3-2.6-1.8c-0.9-0.6-1.9-1-2.8-1.4l-2.7,3.8c0.6,0.2,1.2,0.5,1.8,0.9
	s1.3,0.8,1.9,1.3c0.6,0.5,1.2,1,1.8,1.6C225.4,136.5,225.9,137.2,226.4,137.8z"/>
<linearGradient id="SVGID_4_" gradientUnits="userSpaceOnUse" x1="246.4956" y1="-2327.3381" x2="172.4186" y2="-2318.7751" gradientTransform="matrix(1 0 0 -1 0 -2190)">
	<stop  offset="3.802050e-03" style="stop-color:#3C5186"/>
	<stop  offset="1" style="stop-color:#5D7DBE"/>
</linearGradient>
<path class="st9" d="M245.9,136.2l-66.6-39.9c-0.4-0.2-0.8-0.1-0.9,0.2l-0.1,0.3l66.3,39.7c0.4,0.2,0.7,0.7,0.6,1.1l-6,32l0.3,0.2
	c0.4,0.2,0.8,0.1,0.9-0.2l6.1-32.3C246.5,137,246.3,136.5,245.9,136.2z"/>
<path class="st10" d="M196.4,115.1l-0.4,2.2l-14.9-8.9l0.4-2.3L196.4,115.1z"/>
<path class="st10" d="M205,127.9l-0.4,2.2l-24.7-14.7l0.4-2.3L205,127.9z"/>
<path class="st10" d="M203.8,133.8l-0.4,2.2l-24.7-14.7l0.4-2.3L203.8,133.8z"/>
<path class="st10" d="M202.8,139.3l-0.4,2.2l-24.7-14.7l0.4-2.3L202.8,139.3z"/>
<path class="st2" d="M175.9,100.7c0.4-0.4,1.1-0.4,1.5,0l3.3,3.4c0.4,0.4,0.4,1.1,0,1.5s-1.1,0.4-1.5,0l-3.3-3.4
	C175.5,101.7,175.5,101.1,175.9,100.7z"/>
<path class="st2" d="M173.5,113.2c0.4-0.4,1.1-0.4,1.5,0l3.3,3.4c0.4,0.4,0.4,1.1,0,1.5s-1.1,0.4-1.5,0l-3.3-3.4
	C173,114.3,173,113.6,173.5,113.2z"/>
<path class="st2" d="M172,115.2c0.4-0.4,1.1-0.4,1.5,0l3.3,3.4c0.4,0.4,0.4,1.1,0,1.5s-1.1,0.4-1.5,0l-3.3-3.4
	C171.6,116.3,171.6,115.6,172,115.2z"/>
<path class="st2" d="M170.7,117.2c0.4-0.4,1.1-0.4,1.5,0l3.3,3.4c0.4,0.4,0.4,1.1,0,1.5s-1.1,0.4-1.5,0l-3.3-3.4
	C170.3,118.3,170.3,117.6,170.7,117.2z"/>
<path class="st2" d="M168.6,118.8c0.4-0.4,1.1-0.4,1.5,0l3.3,3.4c0.4,0.4,0.4,1.1,0,1.5s-1.1,0.4-1.5,0l-3.3-3.4
	C168.2,119.9,168.2,119.2,168.6,118.8z"/>
</svg>
