<?xml version="1.0" encoding="utf-8"?>
<!-- Generator: Adobe Illustrator 24.0.1, SVG Export Plug-In . SVG Version: 6.00 Build 0)  -->
<svg version="1.1" id="Layer_1" xmlns="http://www.w3.org/2000/svg" xmlns:xlink="http://www.w3.org/1999/xlink" x="0px" y="0px"
	 viewBox="0 0 449 425" style="enable-background:new 0 0 449 425;" xml:space="preserve">
<style type="text/css">
	.st0{fill:url(#SVGID_1_);}
	.st1{fill:#3C5186;}
	.st2{fill:#FFFFFF;}
</style>
<linearGradient id="SVGID_1_" gradientUnits="userSpaceOnUse" x1="0.7214" y1="86.2401" x2="36.5318" y2="86.2401" gradientTransform="matrix(1 0 0 -1 0 426)">
	<stop  offset="0" style="stop-color:#3C5186"/>
	<stop  offset="0.116" style="stop-color:#40578D"/>
	<stop  offset="0.6906" style="stop-color:#5472B0"/>
	<stop  offset="1" style="stop-color:#5D7DBE"/>
</linearGradient>
<path class="st0" d="M36.5,335.1h-2c-0.8-0.9-1.9-1.7-3.2-2.5c-7-3.9-18.4-3.9-25.4,0c-1.3,0.7-2.4,1.6-3.2,2.5h-2v4.6
	c0,2.6,1.7,5.2,5.2,7.1c7,3.9,18.4,3.9,25.4,0c3.5-2,5.2-4.5,5.2-7.1L36.5,335.1L36.5,335.1z"/>
<path class="st1" d="M6,328.1c7-3.9,18.4-3.9,25.4,0c7,3.9,7,10.3,0,14.2s-18.4,3.9-25.4,0C-1,338.3-1,332,6,328.1z"/>
<path class="st2" d="M19.1,339.4c-1.3,0.6-3.4,0.5-4.7-0.2c-1.3-0.7-1.2-1.7,0.1-2.3c0.2-0.1,0.5-0.2,0.8-0.2l-0.9-2.5
	c-0.8,0-1.6-0.2-2.3-0.6c-1.3-0.7-1.2-1.7,0.1-2.3c1.3-0.6,3.4-0.5,4.7,0.2c0.6,0.3,0.9,0.8,0.9,1.2l5,0.8c0.2-0.2,0.4-0.3,0.6-0.4
	c1.3-0.6,3.4-0.5,4.7,0.2c1.3,0.7,1.2,1.7-0.1,2.3c-1.3,0.6-3.4,0.5-4.7-0.2c-0.6-0.3-0.9-0.7-0.9-1.1l-5-0.8
	c-0.2,0.1-0.3,0.3-0.6,0.4c-0.3,0.1-0.6,0.2-0.9,0.3l0.9,2.5c0.8,0,1.7,0.2,2.3,0.6C20.5,337.8,20.4,338.9,19.1,339.4z"/>
</svg>
