<?xml version="1.0" encoding="utf-8"?>
<!-- Generator: Adobe Illustrator 24.0.1, SVG Export Plug-In . SVG Version: 6.00 Build 0)  -->
<svg version="1.1" id="Layer_1" xmlns="http://www.w3.org/2000/svg" xmlns:xlink="http://www.w3.org/1999/xlink" x="0px" y="0px"
	 viewBox="0 0 449 425" style="enable-background:new 0 0 449 425;" xml:space="preserve">
<style type="text/css">
	.st0{fill:#F09EA3;}
	.st1{opacity:0.3;fill:#4A66A4;enable-background:new    ;}
	.st2{fill:#4A66A4;}
	.st3{fill:url(#SVGID_1_);}
	.st4{fill:#EDF3FA;}
	.st5{fill:#3C5186;}
	.st6{fill:#F3B3B6;}
	.st7{fill:url(#SVGID_2_);}
	.st8{fill:url(#SVGID_3_);}
	.st9{fill:#FCC00E;}
</style>
<path class="st0" d="M373.5,236.3c-0.2,0-0.4,0-0.6,0c-5.9-0.2-11.2-3-14.7-7.7l-1.7-2.3c-1-1.4-0.7-3.3,0.7-4.2
	c1.4-1,3.3-0.7,4.3,0.7l1.7,2.3c2.4,3.2,6,5.1,10,5.3c4,0.1,7.7-1.5,10.3-4.6l6.9-8.2c1.1-1.3,3-1.5,4.3-0.4s1.5,3,0.4,4.3l-6.9,8.2
	C384.4,233.9,379.2,236.3,373.5,236.3z"/>
<path class="st0" d="M362.1,222.7c0,2-1.6,3.6-3.6,3.6s-3.6-1.6-3.6-3.6s1.6-3.6,3.6-3.6S362.1,220.8,362.1,222.7z"/>
<path class="st1" d="M359.5,201.3L293,161.4c-0.4-0.2-0.8-0.1-0.8,0.2l-4.6,23.1c-0.1,0.4,0.2,0.8,0.6,1.1l66.1,39.7l0.3,0.2
	c0.4,0.2,0.8,0.1,0.8-0.2l4.6-23.1C360.2,202.1,359.9,201.6,359.5,201.3z"/>
<path class="st2" d="M294.4,167.1c0.1-0.4,0.4-0.5,0.8-0.2l66.5,39.9c0.4,0.2,0.7,0.7,0.6,1.1l-4.6,23.1c-0.1,0.4-0.4,0.5-0.8,0.2
	l-66.5-39.9c-0.4-0.2-0.7-0.7-0.6-1.1L294.4,167.1z"/>
<linearGradient id="SVGID_1_" gradientUnits="userSpaceOnUse" x1="362.9452" y1="2820.5081" x2="289.3942" y2="2809.4429" gradientTransform="matrix(1 0 0 1 0 -2616)">
	<stop  offset="3.802050e-03" style="stop-color:#3C5186"/>
	<stop  offset="1" style="stop-color:#5D7DBE"/>
</linearGradient>
<path class="st3" d="M361.7,206.7l-66.5-39.9c-0.4-0.2-0.8-0.1-0.8,0.2l-0.1,0.3l66.1,39.7c0.4,0.2,0.7,0.7,0.6,1.1l-4.5,22.8
	l0.3,0.2c0.4,0.2,0.8,0.1,0.8-0.2l4.6-23.1C362.4,207.5,362.1,207,361.7,206.7z"/>
<path class="st4" d="M356.1,210.9l-0.4,2.2l-58.4-34.6l0.4-2.3L356.1,210.9z"/>
<path class="st4" d="M355,216.8l-0.4,2.2l-58.4-34.6l0.4-2.3L355,216.8z"/>
<path class="st4" d="M353.9,222.2l-0.4,2.2l-58.4-34.6l0.4-2.3L353.9,222.2z"/>
<path class="st2" d="M367.9,334.2l8.2,2.2l4.7,2.9c0.5,0.3,0.9,0.9,0.9,1.6v9l-2.5,1.4c-0.9,0.5-2.1,0.5-3.1,0l-14.2-8.1
	c-1.1-0.6-1.8-1.8-1.8-3C360.1,336.1,364,333.2,367.9,334.2z"/>
<path class="st5" d="M376.1,349l-14.2-8.1c-0.8-0.5-1.4-1.2-1.6-2c-0.1,0.4-0.2,0.9-0.2,1.3c0,1.3,0.7,2.4,1.8,3l14.2,8.1
	c0.9,0.5,2.1,0.5,3.1,0l2.5-1.4v-2.3l-2.5,1.4C378.2,349.5,377.1,349.5,376.1,349z"/>
<path class="st5" d="M380.8,339.3l-4.7-2.9l-3.1-0.8v5.6c0,1.8,1.8,3.3,4.1,3.3c2.3,0,4.1-1.5,4.1-3.3v-1.4
	C381.2,339.6,381,339.4,380.8,339.3z"/>
<path class="st2" d="M380,322.8l8.2,2.2l4.7,2.9c0.5,0.3,0.9,0.9,0.9,1.6v9l-2.5,1.4c-0.9,0.5-2.1,0.5-3.1,0l-14.2-8.1
	c-1.1-0.6-1.8-1.8-1.8-3C372.2,324.7,376,321.8,380,322.8z"/>
<path class="st5" d="M388.2,337.6l-14.2-8.1c-0.8-0.5-1.4-1.2-1.6-2c-0.1,0.4-0.2,0.9-0.2,1.3c0,1.3,0.7,2.4,1.8,3l14.2,8.1
	c0.9,0.5,2.1,0.5,3.1,0l2.5-1.4v-2.3l-2.5,1.4C390.3,338.1,389.1,338.1,388.2,337.6z"/>
<path class="st5" d="M392.8,327.9l-4.7-2.9l-3.1-0.8v5.6c0,1.8,1.8,3.4,4.1,3.4s4.1-1.5,4.1-3.4v-1.4
	C393.2,328.2,393,328.1,392.8,327.9z"/>
<path class="st6" d="M377.3,343.4c-1.7,0-3.1-1.4-3.1-3V303c0-1.7,1.4-3,3.1-3s6.7-7.2,6.7-5.5l-3.7,45.9
	C380.3,342,378.9,343.4,377.3,343.4z"/>
<path class="st6" d="M389.1,331.9c-1.7,0-3.1-1.4-3.1-3l-0.8-37.1c0-1.7,2.2,0.1,3.8,0.1s4.6-4.4,4.6-2.7l-1.5,39.7
	C392.2,330.5,390.8,331.9,389.1,331.9z"/>
<linearGradient id="SVGID_2_" gradientUnits="userSpaceOnUse" x1="370.4" y1="2853.7383" x2="394.7655" y2="2853.7383" gradientTransform="matrix(1 0 0 1 0 -2616)">
	<stop  offset="0" style="stop-color:#A9D7F5"/>
	<stop  offset="1" style="stop-color:#FFFFFF"/>
</linearGradient>
<path class="st7" d="M376.9,216.1l6.8-4.3c4.9-3.1,11.3,0.6,11,6.4l-2,31.2l-0.1,9.1l-16.8,6.3l-0.9-5.2l-1-21.9l-3.5-4.5l2.8-10.1
	C373.1,220.3,374.5,217.6,376.9,216.1z"/>
<linearGradient id="SVGID_3_" gradientUnits="userSpaceOnUse" x1="371.543" y1="2896.4529" x2="398.2249" y2="2896.4529" gradientTransform="matrix(1 0 0 1 0 -2616)">
	<stop  offset="0" style="stop-color:#A9D7F5"/>
	<stop  offset="1" style="stop-color:#FFFFFF"/>
</linearGradient>
<path class="st8" d="M374.9,261.6c-1.5,0.6-2.6,10.3-2.7,11.6c-0.6,6.3,0,15-0.3,21.3c-0.1,3.1-0.3,12-0.3,12
	c15.4,3.5,24.7-6.9,26.6-11.8c0.2-4.3,0.2-25-2-30.7c-0.7-1.8-1.3-3.6-1.8-5.4l-1.2-4.9C393.1,253.8,374.9,261.6,374.9,261.6z"/>
<path class="st2" d="M374.9,257v4.5c4.7,0.5,16.3-3.7,18.3-7.8l-0.4-4.3C389.8,255.1,377.2,258.1,374.9,257z"/>
<path class="st6" d="M363.5,236.3c-5.6,0-10.9-2.5-14.6-6.8l-6.9-8.2c-1.1-1.3-0.9-3.2,0.4-4.3s3.2-0.9,4.3,0.4l6.9,8.2
	c2.6,3,6.3,4.7,10.3,4.6c4-0.1,7.6-2,10-5.3l1.7-2.3c1-1.4,2.9-1.6,4.3-0.7c1.4,1,1.7,2.9,0.7,4.2l-1.7,2.3
	c-3.5,4.7-8.8,7.6-14.7,7.7C363.9,236.3,363.7,236.3,363.5,236.3z"/>
<path class="st9" d="M384.3,220.9c-1.7,0-3.1-1.4-3.1-3v-10.2c0-1.7,1.4-3,3.1-3s3.1,1.4,3.1,3v10.2
	C387.4,219.6,386,220.9,384.3,220.9z"/>
<path class="st6" d="M375.5,214.8h9.9v-19h-14.1v14.8C371.3,212.9,373.2,214.8,375.5,214.8z"/>
<path class="st5" d="M401.9,228.9c-0.6-3-2.5-5.7-3.4-8.6c-0.6-1.7-0.4-3.5-0.9-5.1c-0.6-2.1-2.1-4-2.9-6c-1.2-3.1-2.2-6.3-3.3-9.4
	c-1.1-3.2-3.2-5.6-6.6-6.5c-3.5-0.9-8.5-1.4-12-0.4c-4.3,1.2-2.9,5.5-1.2,8.9c2,4,5.7,7.2,7,11.6c1.4,4.5-0.1,9.2-0.9,13.8
	c-0.7,4.6-0.4,10.1,3.3,12.9c2.1,1.6,4.8,2,7.4,1.9c3.3-0.1,6.7-1,9.3-3c2.6-2,4.5-5.1,4.4-8.4C402.1,229.9,402,229.4,401.9,228.9z"
	/>
<path class="st6" d="M347.5,217.9c0,2-1.6,3.6-3.6,3.6s-3.6-1.6-3.6-3.6s1.6-3.6,3.6-3.6C345.8,214.3,347.5,215.9,347.5,217.9z"/>
</svg>
