<?xml version="1.0" encoding="utf-8"?>
<!-- Generator: Adobe Illustrator 24.0.1, SVG Export Plug-In . SVG Version: 6.00 Build 0)  -->
<svg version="1.1" id="Layer_1" xmlns="http://www.w3.org/2000/svg" xmlns:xlink="http://www.w3.org/1999/xlink" x="0px" y="0px"
	 viewBox="0 0 449 425" style="enable-background:new 0 0 449 425;" xml:space="preserve">
<style type="text/css">
	.st0{fill:url(#SVGID_1_);}
	.st1{fill:url(#SVGID_2_);}
	.st2{fill-rule:evenodd;clip-rule:evenodd;fill:#FFFFFF;}
</style>
<linearGradient id="SVGID_1_" gradientUnits="userSpaceOnUse" x1="225.5" y1="1722.9" x2="261.6612" y2="1722.9" gradientTransform="matrix(1 0 0 1 0 -1308)">
	<stop  offset="0" style="stop-color:#FCC00E"/>
	<stop  offset="0.8501" style="stop-color:#F49719"/>
</linearGradient>
<path class="st0" d="M261.7,410.3h-2c-0.8-0.9-1.9-1.7-3.3-2.5c-7-3.9-18.6-3.9-25.6,0c-1.3,0.7-2.4,1.6-3.3,2.5h-2v4.6
	c0,2.6,1.7,5.1,5.3,7.1c7,3.9,18.6,3.9,25.6,0c3.5-1.9,5.3-4.5,5.3-7.1V410.3z"/>
<linearGradient id="SVGID_2_" gradientUnits="userSpaceOnUse" x1="225.475" y1="1718.25" x2="261.65" y2="1718.25" gradientTransform="matrix(1 0 0 1 0 -1308)">
	<stop  offset="0.1499" style="stop-color:#F49719"/>
	<stop  offset="1" style="stop-color:#FCC00E"/>
</linearGradient>
<path class="st1" d="M230.8,403.2c7-3.9,18.6-3.9,25.6,0c7,3.9,7,10.2,0,14.1s-18.6,3.9-25.6,0C223.7,413.4,223.7,407.1,230.8,403.2
	z"/>
<path class="st2" d="M248,406.9c2.7,1.4,4.4,3.1,4.7,4.8c0.2,0.9-0.1,1.7-0.8,2.4c-0.8,0.9-2.1,1.3-3.5,1.3c-1.2,0-2.4-0.3-3.5-0.9
	c-0.4-0.2-1.2-0.7-1.3-1.4c0-0.1,0-0.3,0-0.4c-0.2,0-0.4,0-0.5,0c-1.2,0-2.3-0.3-3.4-0.9c-1-0.5-1.6-1.2-1.7-1.9
	c-0.1-0.4,0.1-0.9,0.4-1.2c0.7-0.7,1.8-1.1,3.3-1.1c1.6,0,3.5,0.5,5.1,1.3c0.9,0.5,1.8,1.1,2.4,1.6l0.3,0.2l-3,1.7
	c-0.8,0.4-0.8,0.7-0.8,0.8c0,0.1,0.1,0.2,0.4,0.4c0.4,0.2,1,0.4,1.6,0.4c1,0,1.9-0.4,2.5-1c0.5-0.5,0.7-1.1,0.6-1.7
	c-0.2-1.2-1.5-2.4-3.6-3.5c-2-1-4.1-1.6-6-1.6c-1.8,0-3.3,0.5-4.2,1.5c-0.5,0.6-0.7,1.2-0.6,1.8c0.2,1.3,1.6,2.7,3.8,3.8
	c1.3,0.7,2.7,1.2,3.9,1.4l0.3,0.1L244,416l-0.3-0.1c-1.6-0.3-3-0.9-4.7-1.8c-2.7-1.4-4.5-3.3-4.8-5c-0.2-0.9,0.1-1.8,0.8-2.5
	c1.1-1.2,3-1.8,5.3-1.8C242.7,404.9,245.5,405.6,248,406.9z M240.4,409.9c-0.1,0.1-0.2,0.3-0.2,0.4c0,0.3,0.3,0.5,0.8,0.8
	c0.6,0.3,1.3,0.4,2.1,0.4s1.5-0.2,2-0.4l1.3-0.8c-0.2-0.1-0.5-0.3-0.7-0.4c-0.9-0.5-2-0.8-3.1-0.8
	C241.7,409.1,240.9,409.4,240.4,409.9z"/>
</svg>
