<?xml version="1.0" encoding="utf-8"?>
<!-- Generator: Adobe Illustrator 24.0.1, SVG Export Plug-In . SVG Version: 6.00 Build 0)  -->
<svg version="1.1" id="Layer_1" xmlns="http://www.w3.org/2000/svg" xmlns:xlink="http://www.w3.org/1999/xlink" x="0px" y="0px"
	 viewBox="0 0 449 425" style="enable-background:new 0 0 449 425;" xml:space="preserve">
<style type="text/css">
	.st0{fill:url(#SVGID_1_);}
	.st1{fill:#4A66A4;}
	.st2{fill:#FFFFFF;}
</style>
<linearGradient id="SVGID_1_" gradientUnits="userSpaceOnUse" x1="73.892" y1="-460.45" x2="102.2781" y2="-460.45" gradientTransform="matrix(1 0 0 -1 0 -228)">
	<stop  offset="0" style="stop-color:#3C5186"/>
	<stop  offset="0.116" style="stop-color:#40578D"/>
	<stop  offset="0.6906" style="stop-color:#5472B0"/>
	<stop  offset="1" style="stop-color:#5D7DBE"/>
</linearGradient>
<path class="st0" d="M102.3,228.8h-1.6c-0.6-0.7-1.5-1.3-2.6-1.9c-5.5-3-14.6-3-20.1,0c-1.1,0.6-1.9,1.2-2.6,1.9h-1.6v3.6
	c0,2,1.4,4,4.1,5.6c5.5,3,14.6,3,20.1,0c2.8-1.5,4.2-3.5,4.1-5.6L102.3,228.8L102.3,228.8z"/>
<path class="st1" d="M78,223.3c5.5-3,14.6-3,20.1,0s5.5,8,0,11.1c-5.5,3-14.6,3-20.1,0C72.5,231.3,72.5,226.3,78,223.3z"/>
<path class="st2" d="M93.6,231c0.2-0.3,0.1-0.6-0.3-0.7l-0.2-0.1c0.4,0.2,1,0,1.3-0.3c0.2-0.3,0.1-0.6-0.3-0.7l-1.7-0.7l-1.5-0.6
	c0,0,0.3-0.1,0.6-0.3c0.1,0,0.1-0.1,0.2-0.1c0,0,0,0,0.1,0c0.3-0.2,0.7-0.5,0.9-0.7c0.1-0.1,0.2-0.2,0.3-0.3l0.1-0.1
	c0.1-0.1,0.2-0.2,0.2-0.3c0.1-0.1,0.1-0.3,0.1-0.4c0-0.1-0.1-0.1-0.2-0.2c-0.3-0.1-0.7-0.1-1,0.1c-0.5,0.3-1.2,0.8-1.6,0.9
	c-0.4,0.1-1.9,0.5-1.9,0.5h-0.1l-0.6-0.3l0.5-0.4v-0.1l-2.2-0.9l-2.9,2.7l-1.5,1.4l2.2,0.9l0,0c0.1,0,0.2,0,0.2,0l0,0l0.4-0.4
	l0.4,0.2c0,0,0.1,0,0.1,0.1c0,0,0.1,0,0.1,0.1c0,0,0.1,0.1,0.1,0.2l0.2,0.8c0,0.1,0.1,0.3,0.3,0.3l2.9,1.2c0.3,0.1,0.8,0.1,1.1-0.1
	c0.4-0.3,0.3-0.7-0.1-0.8l0.7,0.3c0.3,0.1,0.8,0.1,1.1-0.1c0.4-0.3,0.3-0.7-0.1-0.8l0.7,0.3C92.7,231.4,93.3,231.3,93.6,231z"/>
</svg>
