<?xml version="1.0" encoding="utf-8"?>
<!-- Generator: Adobe Illustrator 24.0.1, SVG Export Plug-In . SVG Version: 6.00 Build 0)  -->
<svg version="1.1" id="Layer_1" xmlns="http://www.w3.org/2000/svg" xmlns:xlink="http://www.w3.org/1999/xlink" x="0px" y="0px"
	 viewBox="0 0 449 425" style="enable-background:new 0 0 449 425;" xml:space="preserve">
<style type="text/css">
	.st0{fill:#D1E1F2;}
	.st1{fill:url(#SVGID_1_);}
	.st2{fill:#4A66A4;}
	.st3{fill:url(#SVGID_2_);}
	.st4{fill:url(#SVGID_3_);}
	.st5{fill:#FFFFFF;}
	.st6{fill:#DEEAF9;}
	.st7{fill:url(#SVGID_4_);}
	.st8{fill:url(#SVGID_5_);}
	.st9{fill:#3C5186;}
</style>
<path class="st0" d="M212.7,4.1l206.1,116.5l29,122.9c2.1,8.4-7,15.1-14.6,10.8L243,149.1L212.7,4.1z"/>
<linearGradient id="SVGID_1_" gradientUnits="userSpaceOnUse" x1="212.7" y1="2745.8784" x2="448.0899" y2="2745.8784" gradientTransform="matrix(1 0 0 1 0 -2616)">
	<stop  offset="0" style="stop-color:#F5FAFE"/>
	<stop  offset="0.2091" style="stop-color:#E5F1FA"/>
	<stop  offset="0.822" style="stop-color:#B6D3F0"/>
	<stop  offset="0.9962" style="stop-color:#A6CBED"/>
</linearGradient>
<path class="st1" d="M447.8,243.5l-29-122.9L212.7,4.1l0.8,3.1l200.8,114.5l28.9,121.8c1.4,5.7-2.4,10.6-7.3,11.9
	C442.7,257,449.6,250.9,447.8,243.5z"/>
<path class="st2" d="M418.8,120.6l9.5,40.8l-4.1,2.4l-9.9-42.1L418.8,120.6z"/>
<linearGradient id="SVGID_2_" gradientUnits="userSpaceOnUse" x1="385.752" y1="2750.6001" x2="424.111" y2="2750.6001" gradientTransform="matrix(1 0 0 1 0 -2616)">
	<stop  offset="0" style="stop-color:#3C5186"/>
	<stop  offset="0.3931" style="stop-color:#4C67A1"/>
	<stop  offset="0.7545" style="stop-color:#5877B6"/>
	<stop  offset="1" style="stop-color:#5D7DBE"/>
</linearGradient>
<path class="st3" d="M424.1,163.8l-36.5-20.7l-1.8-37.7l28.5,16.2L424.1,163.8z"/>
<linearGradient id="SVGID_3_" gradientUnits="userSpaceOnUse" x1="208" y1="2678.8999" x2="418.8" y2="2678.8999" gradientTransform="matrix(1 0 0 1 0 -2616)">
	<stop  offset="0" style="stop-color:#3C5186"/>
	<stop  offset="0.3931" style="stop-color:#4C67A1"/>
	<stop  offset="0.7545" style="stop-color:#5877B6"/>
	<stop  offset="1" style="stop-color:#5D7DBE"/>
</linearGradient>
<path class="st4" d="M418.8,120.6L212.7,4.1H208l206.2,117.6L418.8,120.6z"/>
<path class="st5" d="M208,4.1l206.2,117.6l-31.1,158.4c-1.7,8.6-11.5,13-19.2,8.6L184.5,186.4c-6.6-3.8-10-11.2-8.6-18.6L208,4.1z"
	/>
<path class="st6" d="M217.4,83.7l15.7,8.9c1.8,1,2.8,3.1,2.3,5.1l-3.2,14.7c-0.5,2.4-3.2,3.5-5.3,2.3l-15.7-8.9
	c-1.8-1-2.8-3.1-2.3-5.1l3.2-14.7C212.6,83.7,215.3,82.5,217.4,83.7z"/>
<path class="st6" d="M252.4,103.9l15.7,8.9c1.8,1,2.8,3.1,2.3,5.1l-3.2,14.7c-0.5,2.4-3.2,3.5-5.3,2.3l-15.7-8.9
	c-1.8-1-2.8-3.1-2.3-5.1l3.2-14.7C247.6,103.9,250.2,102.7,252.4,103.9z"/>
<path class="st6" d="M287.3,124l15.7,9c1.8,1,2.8,3.1,2.3,5.1l-3.2,14.7c-0.5,2.4-3.2,3.5-5.3,2.3l-15.7-9c-1.8-1-2.8-3.1-2.3-5.1
	l3.2-14.7C282.5,124,285.2,122.8,287.3,124z"/>
<path class="st6" d="M322.3,144.2l15.7,8.9c1.8,1,2.8,3.1,2.3,5.1l-3.2,14.7c-0.5,2.4-3.2,3.5-5.3,2.3l-15.7-8.9
	c-1.8-1-2.8-3.1-2.3-5.1l3.2-14.7C317.5,144.1,320.2,143,322.3,144.2z"/>
<path class="st6" d="M357.2,164.3l15.7,8.9c1.8,1,2.8,3.1,2.3,5.1L372,193c-0.5,2.4-3.2,3.5-5.3,2.3l-15.7-8.9
	c-1.8-1-2.8-3.1-2.3-5.1l3.2-14.7C352.4,164.3,355.1,163.1,357.2,164.3z"/>
<path class="st6" d="M210.3,117.5l15.7,8.9c1.8,1,2.8,3.1,2.3,5.1l-3.2,14.7c-0.5,2.4-3.2,3.5-5.3,2.3l-15.7-8.9
	c-1.8-1-2.8-3.1-2.3-5.1l3.2-14.7C205.5,117.5,208.2,116.3,210.3,117.5z"/>
<path class="st6" d="M245.3,137.7l15.7,8.9c1.8,1,2.8,3.1,2.3,5.1l-3.2,14.7c-0.5,2.4-3.2,3.5-5.3,2.3l-15.7-8.9
	c-1.8-1-2.8-3.1-2.3-5.1L240,140C240.4,137.6,243.1,136.5,245.3,137.7z"/>
<path class="st6" d="M280.2,157.8l15.7,8.9c1.8,1,2.8,3.1,2.3,5.1l-3.2,14.7c-0.5,2.4-3.2,3.5-5.3,2.3l-15.7-8.9
	c-1.8-1-2.8-3.1-2.3-5.1l3.2-14.7C275.4,157.8,278.1,156.6,280.2,157.8z"/>
<path class="st6" d="M315.2,178l15.7,8.9c1.8,1,2.8,3.1,2.3,5.1l-3.2,14.7c-0.5,2.4-3.2,3.5-5.3,2.3l-15.7-8.9
	c-1.8-1-2.8-3.1-2.3-5.1l3.2-14.7C310.4,177.9,313.1,176.8,315.2,178z"/>
<path class="st6" d="M350.1,198.1l15.7,9c1.8,1,2.8,3.1,2.3,5.1l-3.2,14.7c-0.5,2.4-3.2,3.5-5.3,2.3l-15.7-8.9
	c-1.8-1-2.8-3.1-2.3-5.1l3.2-14.7C345.3,198.1,348,196.9,350.1,198.1z"/>
<path class="st6" d="M203.2,151.3l15.7,8.9c1.8,1,2.8,3.1,2.3,5.1L218,180c-0.5,2.4-3.2,3.5-5.3,2.3l-15.7-8.9
	c-1.8-1-2.8-3.1-2.3-5.1l3.2-14.7C198.4,151.3,201.1,150.1,203.2,151.3z"/>
<path class="st6" d="M238.2,171.5l15.7,9c1.8,1,2.8,3.1,2.3,5.1l-3.2,14.7c-0.5,2.4-3.2,3.5-5.3,2.3l-15.7-8.9
	c-1.8-1-2.8-3.1-2.3-5.1l3.2-14.7C233.3,171.4,236,170.2,238.2,171.5z"/>
<path class="st6" d="M273.1,191.6l15.7,8.9c1.8,1,2.8,3.1,2.3,5.1l-3.2,14.7c-0.5,2.4-3.2,3.5-5.3,2.3l-15.7-8.9
	c-1.8-1-2.8-3.1-2.3-5.1l3.2-14.7C268.3,191.6,271,190.4,273.1,191.6z"/>
<path class="st6" d="M308.1,211.7l15.7,8.9c1.8,1,2.8,3.1,2.3,5.1l-3.2,14.7c-0.5,2.4-3.2,3.5-5.3,2.3l-15.7-8.9
	c-1.8-1-2.8-3.1-2.3-5.1l3.2-14.7C303.3,211.7,306,210.5,308.1,211.7z"/>
<path class="st6" d="M343,231.9l15.7,8.9c1.8,1,2.8,3.1,2.3,5.1l-3.2,14.7c-0.5,2.4-3.2,3.5-5.3,2.3l-15.7-9c-1.8-1-2.8-3.1-2.3-5.1
	l3.2-14.7C338.2,231.9,340.9,230.7,343,231.9z"/>
<linearGradient id="SVGID_4_" gradientUnits="userSpaceOnUse" x1="207.5" y1="2763.2517" x2="414.1" y2="2763.2517" gradientTransform="matrix(1 0 0 1 0 -2616)">
	<stop  offset="0" style="stop-color:#F5FAFE"/>
	<stop  offset="0.2091" style="stop-color:#E5F1FA"/>
	<stop  offset="0.822" style="stop-color:#B6D3F0"/>
	<stop  offset="0.9962" style="stop-color:#A6CBED"/>
</linearGradient>
<path class="st7" d="M208,4.1l-0.5,2.4l202,115.2l-31.1,158.4c-1.1,5.5-5.4,9.2-10.4,10.1c6.7,1.2,13.6-3,15-10.1l31.1-158.4
	L208,4.1z"/>
<linearGradient id="SVGID_5_" gradientUnits="userSpaceOnUse" x1="199" y1="2700.6499" x2="414.2" y2="2700.6499" gradientTransform="matrix(1 0 0 1 0 -2616)">
	<stop  offset="0" style="stop-color:#465D94"/>
	<stop  offset="1" style="stop-color:#5D7DBE"/>
</linearGradient>
<path class="st8" d="M199,50.1l202,115.1l13.2-43.5L208,4.1L199,50.1z"/>
<path class="st2" d="M409.6,121.7l-8.6,43.5l4.8-0.5l8.4-43H409.6z"/>
<path class="st9" d="M236.8,43.3c-3,0-5.7-1-7.8-2.9c-2-1.8-4.3-5.1-4.3-11.1c0-10,6.9-21.8,15.7-26.8c5-2.8,10.1-3.2,14.1-0.9
	s6.2,6.8,6.2,12.5c0,4.7-1.5,9.9-4.3,14.8l-8.1-4.5c2-3.5,3.1-7.2,3.1-10.3c0-2.2-0.6-4-1.6-4.5c-1-0.6-2.8-0.2-4.8,0.9
	c-5.9,3.3-11,12.1-11,18.8c0,2,0.5,3.6,1.3,4.3c0.3,0.3,0.8,0.6,1.8,0.5l0.8,9.2C237.5,43.3,237.1,43.3,236.8,43.3z"/>
<path class="st9" d="M236.8,43.3c-3,0-5.7-1-7.8-2.9c-2-1.8-4.3-5.1-4.3-11.1c0-10,6.9-21.8,15.7-26.8c5-2.8,10.1-3.2,14.1-0.9
	s6.2,6.8,6.2,12.5c0,2.5-2.1,4.6-4.7,4.6s-4.7-2.1-4.7-4.6c0-2.2-0.6-4-1.6-4.5c-1-0.6-2.8-0.2-4.8,0.9c-5.9,3.3-11,12.1-11,18.8
	c0,2,0.5,3.6,1.3,4.3c0.3,0.3,0.8,0.6,1.8,0.5c2.5-0.2,4.8,1.7,5,4.2s-1.7,4.8-4.2,5C237.5,43.3,237.1,43.3,236.8,43.3z"/>
<path class="st9" d="M272.1,63.8c-3,0-5.7-1-7.8-2.9c-2-1.8-4.3-5.1-4.3-11.1c0-10,6.9-21.8,15.7-26.8c5-2.8,10.1-3.2,14.1-0.9
	s6.2,6.8,6.2,12.5c0,4.7-1.5,9.9-4.3,14.8l-8.1-4.5c2-3.5,3.1-7.2,3.1-10.3c0-2.2-0.6-4-1.6-4.5c-1-0.6-2.8-0.2-4.8,0.9
	c-5.9,3.3-11,12.1-11,18.8c0,2,0.5,3.6,1.3,4.3c0.3,0.3,0.8,0.6,1.8,0.5l0.8,9.2C272.8,63.8,272.4,63.8,272.1,63.8z"/>
<path class="st9" d="M272.1,63.8c-3,0-5.7-1-7.8-2.9c-2-1.8-4.3-5.1-4.3-11.1c0-10,6.9-21.8,15.7-26.8c5-2.8,10.1-3.2,14.1-0.9
	s6.2,6.8,6.2,12.5c0,2.5-2.1,4.6-4.7,4.6s-4.7-2.1-4.7-4.6c0-2.2-0.6-4-1.6-4.5c-1-0.6-2.8-0.2-4.8,0.9c-5.9,3.3-11,12.1-11,18.8
	c0,2,0.5,3.6,1.3,4.3c0.3,0.3,0.8,0.6,1.8,0.5c2.5-0.2,4.8,1.7,5,4.2s-1.7,4.8-4.2,5C272.8,63.8,272.4,63.8,272.1,63.8z"/>
<path class="st9" d="M307.6,84c-3,0-5.7-1-7.8-2.9c-2-1.8-4.3-5.1-4.3-11.1c0-10,6.9-21.8,15.7-26.8c5-2.8,10.1-3.2,14.1-0.9
	s6.2,6.8,6.2,12.5c0,4.7-1.5,9.9-4.3,14.8l-8.1-4.5c2-3.5,3.1-7.2,3.1-10.3c0-2.2-0.6-4-1.6-4.5c-1-0.6-2.8-0.2-4.8,0.9
	c-5.9,3.3-11,12.1-11,18.8c0,2,0.5,3.6,1.3,4.3c0.3,0.3,0.8,0.6,1.8,0.5l0.8,9.2C308.3,84,307.9,84,307.6,84z"/>
<path class="st9" d="M307.6,84c-3,0-5.7-1-7.8-2.9c-2-1.8-4.3-5.1-4.3-11.1c0-10,6.9-21.8,15.7-26.8c5-2.8,10.1-3.2,14.1-0.9
	s6.2,6.8,6.2,12.5c0,2.5-2.1,4.6-4.7,4.6s-4.7-2.1-4.7-4.6c0-2.2-0.6-4-1.6-4.5c-1-0.6-2.8-0.2-4.8,0.9c-5.9,3.3-11,12.1-11,18.8
	c0,2,0.5,3.6,1.3,4.3c0.3,0.3,0.8,0.6,1.8,0.5c2.5-0.2,4.8,1.7,5,4.2s-1.7,4.8-4.2,5C308.3,84,307.9,84,307.6,84z"/>
<path class="st9" d="M342.6,103.8c-3,0-5.7-1-7.8-2.9c-2-1.8-4.3-5.1-4.3-11.1c0-10,6.9-21.8,15.7-26.8c5-2.8,10.1-3.2,14.1-0.9
	s6.2,6.8,6.2,12.5c0,4.7-1.5,9.9-4.3,14.8l-8.1-4.5c2-3.5,3.1-7.2,3.1-10.3c0-2.2-0.6-4-1.6-4.5c-1-0.6-2.8-0.2-4.8,0.9
	c-5.9,3.3-11,12.1-11,18.8c0,2,0.5,3.6,1.3,4.3c0.3,0.2,0.8,0.6,1.8,0.5l0.8,9.2C343.4,103.8,343,103.8,342.6,103.8z"/>
<path class="st9" d="M342.6,103.8c-3,0-5.7-1-7.8-2.9c-2-1.8-4.3-5.1-4.3-11.1c0-10,6.9-21.8,15.7-26.8c5-2.8,10.1-3.2,14.1-0.9
	s6.2,6.8,6.2,12.5c0,2.5-2.1,4.6-4.7,4.6s-4.7-2.1-4.7-4.6c0-2.2-0.6-4-1.6-4.5c-1-0.6-2.8-0.2-4.8,0.9c-5.9,3.3-11,12.1-11,18.8
	c0,2,0.5,3.6,1.3,4.3c0.3,0.2,0.8,0.6,1.8,0.5c2.6-0.2,4.8,1.7,5,4.2s-1.7,4.8-4.2,5C343.4,103.8,343,103.8,342.6,103.8z"/>
<path class="st9" d="M378,124.1c-3,0-5.7-1-7.8-2.9c-2-1.8-4.3-5.1-4.3-11.1c0-10,6.9-21.8,15.7-26.8c5-2.8,10.1-3.2,14.1-0.9
	c4,2.3,6.2,6.8,6.2,12.5c0,4.7-1.5,9.9-4.3,14.8l-8.1-4.5c2-3.5,3.1-7.2,3.1-10.3c0-2.2-0.6-4-1.6-4.5c-1-0.6-2.8-0.2-4.8,0.9
	c-5.9,3.3-11,12.1-11,18.8c0,2,0.5,3.6,1.3,4.3c0.3,0.2,0.8,0.6,1.8,0.5l0.8,9.2C378.7,124,378.4,124.1,378,124.1z"/>
<path class="st9" d="M378,124.1c-3,0-5.7-1-7.8-2.9c-2-1.8-4.3-5.1-4.3-11.1c0-10,6.9-21.8,15.7-26.8c5-2.8,10.1-3.2,14.1-0.9
	c4,2.3,6.2,6.8,6.2,12.5c0,2.5-2.1,4.6-4.7,4.6s-4.7-2.1-4.7-4.6c0-2.2-0.6-4-1.6-4.5c-1-0.6-2.8-0.2-4.8,0.9
	c-5.9,3.3-11,12.1-11,18.8c0,2,0.5,3.6,1.3,4.3c0.3,0.2,0.8,0.6,1.8,0.5c2.6-0.2,4.8,1.7,5,4.2s-1.7,4.8-4.2,5
	C378.7,124,378.4,124.1,378,124.1z"/>
</svg>
