<?xml version="1.0" encoding="utf-8"?>
<!-- Generator: Adobe Illustrator 24.0.1, SVG Export Plug-In . SVG Version: 6.00 Build 0)  -->
<svg version="1.1" id="Layer_1" xmlns="http://www.w3.org/2000/svg" xmlns:xlink="http://www.w3.org/1999/xlink" x="0px" y="0px"
	 viewBox="0 0 449 425" style="enable-background:new 0 0 449 425;" xml:space="preserve">
<style type="text/css">
	.st0{fill:#37393D;}
	.st1{fill:#FFFFFF;}
	.st2{fill:#4A66A4;}
</style>
<path class="st0" d="M61.1,198.3c2.1-2.1,1.5-6.5-2.2-6.5h-9.8c0.4-2.1,0.9-5.5,0.9-5.8c-0.2-3.1-2.2-6.8-2.2-7
	c-0.4-0.7-2.2-1.6-4-1.2c-2.3,0.5-2.6,2-2.6,2.4c0,0,0.1,4.1,0.1,5.2c-1.1,2.5-5,8.9-6.2,9.4c-0.3-0.2-0.6-0.3-0.9-0.3H21.9
	c-1,0-1.9,0.8-1.9,1.9v17.1c0.1,0.9,0.9,1.6,1.8,1.6h11.1c1,0,1.8-0.8,1.8-1.8v-0.6c0,0,0.4,0,0.6,0.1c0.7,0.5,1.6,1,2.7,1h16.5
	c6.2,0,5.5-5.5,5-6.2c1-1.1,1.7-3.1,0.8-4.7C60.9,202.3,62.1,200.3,61.1,198.3L61.1,198.3z"/>
<path class="st1" d="M58.5,193.6H46.9c0.5-1.8,1.3-7.5,1.3-7.5c-0.2-2.8-2-6.2-2-6.2c-2.2-0.9-3.2,0.3-3.2,0.3s0.1,4.4,0.1,5.4
	s-5,9.1-6.2,10.2c-0.7,0.6-1.8,1.3-2.8,1.9v13.1h0.8c0.9,0,2,1.4,3.1,1.4h16.8c3.4,0,3.9-3.8,1.7-4.2l0.1-0.4
	c2.1-0.2,3.4-3.6,0.7-4.3l0.1-0.4c2-0.2,3.6-3.5,0.7-4.3l0.1-0.4C60.9,197.7,61.4,193.6,58.5,193.6L58.5,193.6z"/>
<path class="st2" d="M21.7,196.4h11.1v17H21.7V196.4z"/>
</svg>
